<svg xmlns="http://www.w3.org/2000/svg" xmlns:xlink="http://www.w3.org/1999/xlink" width="656.998" height="375.857" viewBox="0 0 656.998 375.857">
  <defs>
    <clipPath id="clip-path">
      <path id="path1729" d="M0-682.665H38.494v38.494H0Z" transform="translate(0 682.665)"/>
    </clipPath>
  </defs>
  <g id="Grupo_1093251" data-name="Grupo 1093251" transform="translate(-471.998 -2776.078)">
    <path id="Trazado_835853" data-name="Trazado 835853" d="M6,0H163a6,6,0,0,1,6,6V33a6,6,0,0,1-6,6H6a6,6,0,0,1-6-6V6A6,6,0,0,1,6,0Z" transform="translate(734.996 2776.078)" fill="#6e40fb"/>
    <path id="Trazado_835854" data-name="Trazado 835854" d="M1.016,15V3.625h3.5A5.315,5.315,0,0,1,7.2,4.3,4.712,4.712,0,0,1,9.047,6.223a5.928,5.928,0,0,1,.664,2.832v.523a5.945,5.945,0,0,1-.652,2.82,4.672,4.672,0,0,1-1.84,1.914A5.355,5.355,0,0,1,4.539,15ZM3.359,5.523v7.594H4.492a2.545,2.545,0,0,0,2.1-.9,4.06,4.06,0,0,0,.742-2.57v-.6a4.124,4.124,0,0,0-.719-2.629,2.537,2.537,0,0,0-2.1-.895ZM13.648,15H11.383V6.547h2.266ZM11.25,4.359a1.112,1.112,0,0,1,.34-.836,1.277,1.277,0,0,1,.926-.328,1.28,1.28,0,0,1,.922.328,1.105,1.105,0,0,1,.344.836,1.108,1.108,0,0,1-.348.844,1.448,1.448,0,0,1-1.836,0A1.108,1.108,0,0,1,11.25,4.359Zm8.836,8.3a.727.727,0,0,0-.41-.652,4.659,4.659,0,0,0-1.316-.426q-3.016-.633-3.016-2.562a2.323,2.323,0,0,1,.934-1.879,3.766,3.766,0,0,1,2.441-.754,4.053,4.053,0,0,1,2.574.758,2.388,2.388,0,0,1,.965,1.969H20a1.092,1.092,0,0,0-.312-.8A1.322,1.322,0,0,0,18.711,8a1.351,1.351,0,0,0-.883.258.814.814,0,0,0-.312.656.7.7,0,0,0,.355.605,3.657,3.657,0,0,0,1.2.4,9.8,9.8,0,0,1,1.422.379,2.336,2.336,0,0,1,1.789,2.273,2.2,2.2,0,0,1-.992,1.871,4.28,4.28,0,0,1-2.562.715,4.47,4.47,0,0,1-1.887-.379,3.166,3.166,0,0,1-1.293-1.039,2.414,2.414,0,0,1-.469-1.426h2.141a1.179,1.179,0,0,0,.445.922,1.766,1.766,0,0,0,1.109.32,1.635,1.635,0,0,0,.98-.246A.766.766,0,0,0,20.086,12.664Zm11.258-1.812a5.07,5.07,0,0,1-.887,3.129,2.843,2.843,0,0,1-2.395,1.176,2.633,2.633,0,0,1-2.07-.891V18.25H23.734V6.547h2.094l.078.828a2.654,2.654,0,0,1,2.141-.984,2.862,2.862,0,0,1,2.43,1.156,5.207,5.207,0,0,1,.867,3.188Zm-2.258-.172a3.345,3.345,0,0,0-.418-1.826,1.36,1.36,0,0,0-1.215-.643,1.478,1.478,0,0,0-1.461.815V12.5a1.5,1.5,0,0,0,1.477.839Q29.086,13.336,29.086,10.679Zm3.3.016a5.013,5.013,0,0,1,.484-2.242A3.546,3.546,0,0,1,34.27,6.93a4.069,4.069,0,0,1,2.113-.539,3.849,3.849,0,0,1,2.793,1.047,4.2,4.2,0,0,1,1.207,2.844l.016.578a4.418,4.418,0,0,1-1.086,3.121,4.209,4.209,0,0,1-5.832,0,4.5,4.5,0,0,1-1.09-3.187Zm2.258.16A3.16,3.16,0,0,0,35.1,12.7a1.628,1.628,0,0,0,2.578.008,3.457,3.457,0,0,0,.461-2.015A3.128,3.128,0,0,0,37.68,8.86a1.5,1.5,0,0,0-1.3-.649,1.474,1.474,0,0,0-1.281.646A3.516,3.516,0,0,0,34.648,10.856Zm11.719,1.808a.727.727,0,0,0-.41-.652,4.659,4.659,0,0,0-1.316-.426q-3.016-.633-3.016-2.562a2.323,2.323,0,0,1,.934-1.879A3.766,3.766,0,0,1,45,6.391a4.053,4.053,0,0,1,2.574.758,2.388,2.388,0,0,1,.965,1.969H46.281a1.092,1.092,0,0,0-.312-.8A1.322,1.322,0,0,0,44.992,8a1.351,1.351,0,0,0-.883.258.814.814,0,0,0-.312.656.7.7,0,0,0,.355.605,3.657,3.657,0,0,0,1.2.4,9.8,9.8,0,0,1,1.422.379,2.336,2.336,0,0,1,1.789,2.273,2.2,2.2,0,0,1-.992,1.871,4.28,4.28,0,0,1-2.562.715,4.47,4.47,0,0,1-1.887-.379,3.166,3.166,0,0,1-1.293-1.039,2.414,2.414,0,0,1-.469-1.426H43.5a1.179,1.179,0,0,0,.445.922,1.766,1.766,0,0,0,1.109.32,1.635,1.635,0,0,0,.98-.246A.766.766,0,0,0,46.367,12.664ZM52.4,15H50.133V6.547H52.4ZM50,4.359a1.112,1.112,0,0,1,.34-.836,1.465,1.465,0,0,1,1.848,0,1.105,1.105,0,0,1,.344.836,1.108,1.108,0,0,1-.348.844,1.448,1.448,0,0,1-1.836,0A1.108,1.108,0,0,1,50,4.359Zm6.961.109V6.547h1.445V8.2H56.961v4.219a1.007,1.007,0,0,0,.18.672.9.9,0,0,0,.688.2,3.6,3.6,0,0,0,.664-.055v1.711a4.648,4.648,0,0,1-1.367.2,2.156,2.156,0,0,1-2.422-2.4V8.2H53.469V6.547H54.7V4.469ZM62.047,15H59.781V6.547h2.266Zm-2.4-10.641a1.112,1.112,0,0,1,.34-.836,1.465,1.465,0,0,1,1.848,0,1.105,1.105,0,0,1,.344.836,1.108,1.108,0,0,1-.348.844A1.448,1.448,0,0,1,60,5.2,1.108,1.108,0,0,1,59.648,4.359Zm7.422,7.883,1.57-5.7H71L68.148,15H65.992L63.141,6.547H65.5ZM71.523,10.7a5.013,5.013,0,0,1,.484-2.242A3.546,3.546,0,0,1,73.4,6.93a4.069,4.069,0,0,1,2.113-.539,3.849,3.849,0,0,1,2.793,1.047,4.2,4.2,0,0,1,1.207,2.844l.016.578a4.418,4.418,0,0,1-1.086,3.121,4.209,4.209,0,0,1-5.832,0,4.5,4.5,0,0,1-1.09-3.187Zm2.258.16a3.16,3.16,0,0,0,.453,1.843,1.628,1.628,0,0,0,2.578.008,3.457,3.457,0,0,0,.461-2.015,3.128,3.128,0,0,0-.461-1.831,1.5,1.5,0,0,0-1.3-.649,1.474,1.474,0,0,0-1.281.646A3.516,3.516,0,0,0,73.781,10.856ZM85.5,12.664a.727.727,0,0,0-.41-.652,4.659,4.659,0,0,0-1.316-.426q-3.016-.633-3.016-2.562a2.323,2.323,0,0,1,.934-1.879,3.766,3.766,0,0,1,2.441-.754,4.053,4.053,0,0,1,2.574.758,2.388,2.388,0,0,1,.965,1.969H85.414a1.092,1.092,0,0,0-.312-.8A1.322,1.322,0,0,0,84.125,8a1.351,1.351,0,0,0-.883.258.814.814,0,0,0-.312.656.7.7,0,0,0,.355.605,3.657,3.657,0,0,0,1.2.4,9.8,9.8,0,0,1,1.422.379A2.336,2.336,0,0,1,87.7,12.57a2.2,2.2,0,0,1-.992,1.871,4.28,4.28,0,0,1-2.562.715,4.47,4.47,0,0,1-1.887-.379,3.166,3.166,0,0,1-1.293-1.039,2.414,2.414,0,0,1-.469-1.426h2.141a1.179,1.179,0,0,0,.445.922,1.766,1.766,0,0,0,1.109.32,1.635,1.635,0,0,0,.98-.246A.766.766,0,0,0,85.5,12.664Zm7.281-1.953a5.094,5.094,0,0,1,.887-3.148,2.877,2.877,0,0,1,2.426-1.172,2.589,2.589,0,0,1,2.039.922V3H100.4V15H98.359l-.109-.9a2.657,2.657,0,0,1-2.172,1.055,2.869,2.869,0,0,1-2.395-1.176A5.258,5.258,0,0,1,92.781,10.711Zm2.258.161a3.355,3.355,0,0,0,.414,1.829,1.348,1.348,0,0,0,1.2.636,1.51,1.51,0,0,0,1.477-.887V9.1a1.489,1.489,0,0,0-1.461-.887Q95.039,8.211,95.039,10.872Zm11,4.285a4.15,4.15,0,0,1-3.027-1.141,4.054,4.054,0,0,1-1.168-3.039v-.219a5.106,5.106,0,0,1,.492-2.277,3.612,3.612,0,0,1,1.395-1.547,3.914,3.914,0,0,1,2.059-.543,3.508,3.508,0,0,1,2.73,1.094,4.444,4.444,0,0,1,1,3.1v.922h-5.383a2.1,2.1,0,0,0,.66,1.328,2,2,0,0,0,1.395.5,2.437,2.437,0,0,0,2.039-.945l1.109,1.242a3.389,3.389,0,0,1-1.375,1.121A4.511,4.511,0,0,1,106.039,15.156Zm-.258-6.945a1.411,1.411,0,0,0-1.09.455,2.357,2.357,0,0,0-.535,1.3H107.3V9.788a1.681,1.681,0,0,0-.406-1.165A1.456,1.456,0,0,0,105.781,8.211Zm13.75.453a6.134,6.134,0,0,0-.812-.062,1.654,1.654,0,0,0-1.68.867V15h-2.258V6.547h2.133l.063,1.008a2.092,2.092,0,0,1,1.883-1.164,2.366,2.366,0,0,1,.7.1Zm4.828,6.492a4.15,4.15,0,0,1-3.027-1.141,4.054,4.054,0,0,1-1.168-3.039v-.219a5.106,5.106,0,0,1,.492-2.277,3.612,3.612,0,0,1,1.395-1.547,3.914,3.914,0,0,1,2.059-.543,3.508,3.508,0,0,1,2.73,1.094,4.444,4.444,0,0,1,1,3.1v.922h-5.383a2.1,2.1,0,0,0,.66,1.328,2,2,0,0,0,1.395.5,2.437,2.437,0,0,0,2.039-.945l1.109,1.242a3.389,3.389,0,0,1-1.375,1.121A4.511,4.511,0,0,1,124.359,15.156ZM124.1,8.211a1.411,1.411,0,0,0-1.09.455,2.357,2.357,0,0,0-.535,1.3h3.141V9.788a1.681,1.681,0,0,0-.406-1.165A1.456,1.456,0,0,0,124.1,8.211Zm4.664,2.5a5.094,5.094,0,0,1,.887-3.148,2.877,2.877,0,0,1,2.426-1.172,2.589,2.589,0,0,1,2.039.922V3h2.266V15h-2.039l-.109-.9a2.657,2.657,0,0,1-2.172,1.055,2.869,2.869,0,0,1-2.395-1.176A5.258,5.258,0,0,1,128.766,10.711Zm2.258.161a3.355,3.355,0,0,0,.414,1.829,1.348,1.348,0,0,0,1.2.636,1.51,1.51,0,0,0,1.477-.887V9.1a1.489,1.489,0,0,0-1.461-.887Q131.023,8.211,131.023,10.872Z" transform="translate(749.996 2786.078)" fill="#fff"/>
    <path id="Trazado_835855" data-name="Trazado 835855" d="M6,0H163a6,6,0,0,1,6,6V33a6,6,0,0,1-6,6H6a6,6,0,0,1-6-6V6A6,6,0,0,1,6,0Z" transform="translate(549.996 3112.936)" fill="#6e40fb"/>
    <path id="Trazado_835856" data-name="Trazado 835856" d="M21.426,3.625l2.922,8.25,2.906-8.25h3.078V15H27.98V11.891l.234-5.367L25.145,15H23.535L20.473,6.531l.234,5.359V15H18.363V3.625ZM31.879,10.7a5.013,5.013,0,0,1,.484-2.242A3.546,3.546,0,0,1,33.758,6.93a4.069,4.069,0,0,1,2.113-.539,3.849,3.849,0,0,1,2.793,1.047,4.2,4.2,0,0,1,1.207,2.844l.016.578A4.418,4.418,0,0,1,38.8,13.98a4.209,4.209,0,0,1-5.832,0,4.5,4.5,0,0,1-1.09-3.187Zm2.258.16A3.16,3.16,0,0,0,34.59,12.7a1.628,1.628,0,0,0,2.578.008,3.457,3.457,0,0,0,.461-2.015,3.128,3.128,0,0,0-.461-1.831,1.5,1.5,0,0,0-1.3-.649,1.474,1.474,0,0,0-1.281.646A3.516,3.516,0,0,0,34.137,10.856Zm9.219-4.309.07.977a2.951,2.951,0,0,1,2.43-1.133,2.453,2.453,0,0,1,2,.789,3.682,3.682,0,0,1,.672,2.359V15H46.27V9.581a1.47,1.47,0,0,0-.312-1.045,1.4,1.4,0,0,0-1.039-.325,1.553,1.553,0,0,0-1.43.814V15H41.23V6.547ZM52.621,15H50.355V6.547h2.266Zm-2.4-10.641a1.112,1.112,0,0,1,.34-.836,1.465,1.465,0,0,1,1.848,0,1.105,1.105,0,0,1,.344.836,1.108,1.108,0,0,1-.348.844,1.448,1.448,0,0,1-1.836,0A1.108,1.108,0,0,1,50.223,4.359Zm6.961.109V6.547h1.445V8.2H57.184v4.219a1.007,1.007,0,0,0,.18.672.9.9,0,0,0,.688.2,3.6,3.6,0,0,0,.664-.055v1.711a4.648,4.648,0,0,1-1.367.2,2.156,2.156,0,0,1-2.422-2.4V8.2H53.691V6.547h1.234V4.469ZM59.3,10.7a5.013,5.013,0,0,1,.484-2.242A3.546,3.546,0,0,1,61.18,6.93a4.069,4.069,0,0,1,2.113-.539,3.849,3.849,0,0,1,2.793,1.047,4.2,4.2,0,0,1,1.207,2.844l.016.578a4.418,4.418,0,0,1-1.086,3.121,4.209,4.209,0,0,1-5.832,0A4.5,4.5,0,0,1,59.3,10.8Zm2.258.16a3.16,3.16,0,0,0,.453,1.843,1.628,1.628,0,0,0,2.578.008,3.457,3.457,0,0,0,.461-2.015A3.128,3.128,0,0,0,64.59,8.86a1.5,1.5,0,0,0-1.3-.649,1.474,1.474,0,0,0-1.281.646A3.516,3.516,0,0,0,61.559,10.856ZM73.449,8.664a6.134,6.134,0,0,0-.812-.062,1.654,1.654,0,0,0-1.68.867V15H68.7V6.547h2.133l.063,1.008a2.092,2.092,0,0,1,1.883-1.164,2.366,2.366,0,0,1,.7.1Zm4.719,2.047a5.094,5.094,0,0,1,.887-3.148A2.877,2.877,0,0,1,81.48,6.391a2.589,2.589,0,0,1,2.039.922V3h2.266V15H83.746l-.109-.9a2.657,2.657,0,0,1-2.172,1.055A2.869,2.869,0,0,1,79.07,13.98,5.258,5.258,0,0,1,78.168,10.711Zm2.258.161A3.355,3.355,0,0,0,80.84,12.7a1.348,1.348,0,0,0,1.2.636,1.51,1.51,0,0,0,1.477-.887V9.1a1.489,1.489,0,0,0-1.461-.887Q80.426,8.211,80.426,10.872Zm11,4.285A4.15,4.15,0,0,1,88.4,14.016a4.054,4.054,0,0,1-1.168-3.039v-.219a5.106,5.106,0,0,1,.492-2.277,3.612,3.612,0,0,1,1.395-1.547,3.914,3.914,0,0,1,2.059-.543,3.508,3.508,0,0,1,2.73,1.094,4.444,4.444,0,0,1,1,3.1v.922H89.52a2.1,2.1,0,0,0,.66,1.328,2,2,0,0,0,1.395.5,2.437,2.437,0,0,0,2.039-.945l1.109,1.242a3.389,3.389,0,0,1-1.375,1.121A4.511,4.511,0,0,1,91.426,15.156Zm-.258-6.945a1.411,1.411,0,0,0-1.09.455,2.357,2.357,0,0,0-.535,1.3h3.141V9.788a1.681,1.681,0,0,0-.406-1.165A1.456,1.456,0,0,0,91.168,8.211Zm13.75.453a6.134,6.134,0,0,0-.812-.062,1.654,1.654,0,0,0-1.68.867V15h-2.258V6.547H102.3l.063,1.008a2.092,2.092,0,0,1,1.883-1.164,2.366,2.366,0,0,1,.7.1Zm4.828,6.492a4.15,4.15,0,0,1-3.027-1.141,4.054,4.054,0,0,1-1.168-3.039v-.219a5.106,5.106,0,0,1,.492-2.277,3.612,3.612,0,0,1,1.395-1.547,3.914,3.914,0,0,1,2.059-.543,3.508,3.508,0,0,1,2.73,1.094,4.444,4.444,0,0,1,1,3.1v.922H107.84a2.1,2.1,0,0,0,.66,1.328,2,2,0,0,0,1.395.5,2.437,2.437,0,0,0,2.039-.945l1.109,1.242a3.389,3.389,0,0,1-1.375,1.121A4.511,4.511,0,0,1,109.746,15.156Zm-.258-6.945a1.411,1.411,0,0,0-1.09.455,2.357,2.357,0,0,0-.535,1.3H111V9.788a1.681,1.681,0,0,0-.406-1.165A1.456,1.456,0,0,0,109.488,8.211Zm4.664,2.5a5.094,5.094,0,0,1,.887-3.148,2.877,2.877,0,0,1,2.426-1.172,2.589,2.589,0,0,1,2.039.922V3h2.266V15H119.73l-.109-.9a2.657,2.657,0,0,1-2.172,1.055,2.869,2.869,0,0,1-2.395-1.176A5.258,5.258,0,0,1,114.152,10.711Zm2.258.161a3.355,3.355,0,0,0,.414,1.829,1.348,1.348,0,0,0,1.2.636,1.51,1.51,0,0,0,1.477-.887V9.1a1.489,1.489,0,0,0-1.461-.887Q116.41,8.211,116.41,10.872Z" transform="translate(564.996 3122.936)" fill="#fff"/>
    <path id="Trazado_835857" data-name="Trazado 835857" d="M6,0H200a6,6,0,0,1,6,6V33a6,6,0,0,1-6,6H6a6,6,0,0,1-6-6V6A6,6,0,0,1,6,0Z" transform="translate(922.996 2845.078)" fill="#6e40fb"/>
    <path id="Trazado_835858" data-name="Trazado 835858" d="M5.039,12.836H3.18L2.453,17H.164L2.141,5.625l3.766.008a4.289,4.289,0,0,1,2.91.891A2.817,2.817,0,0,1,9.719,9a3.574,3.574,0,0,1-2.5,3.258l1.6,4.617V17H6.383Zm-1.531-1.9,1.7.016a2.386,2.386,0,0,0,1.5-.488A1.933,1.933,0,0,0,7.414,9.18a1.473,1.473,0,0,0-.242-1.187,1.442,1.442,0,0,0-1.117-.461L4.1,7.523ZM14.844,8.391a3.39,3.39,0,0,1,1.926.574A3.234,3.234,0,0,1,17.957,10.5a4.762,4.762,0,0,1,.27,2.176,5.143,5.143,0,0,1-1.4,3.262,3.96,3.96,0,0,1-3.02,1.215A3.38,3.38,0,0,1,11.9,16.59a3.222,3.222,0,0,1-1.187-1.527,4.657,4.657,0,0,1-.273-2.156,5.3,5.3,0,0,1,1.422-3.328A3.878,3.878,0,0,1,14.844,8.391Zm-2.227,5.315a1.95,1.95,0,0,0,.352,1.182,1.168,1.168,0,0,0,.945.449,1.712,1.712,0,0,0,1.594-.932,4.647,4.647,0,0,0,.539-2.531,2.122,2.122,0,0,0-.363-1.2,1.149,1.149,0,0,0-.949-.464,1.715,1.715,0,0,0-1.574.924A4.6,4.6,0,0,0,12.617,13.706Zm11.477,2.419a2.919,2.919,0,0,1-2.328,1.031,2.172,2.172,0,0,1-1.844-.875,3.2,3.2,0,0,1-.484-2.266l.914-5.469h2.2l-.93,5.5a2.175,2.175,0,0,0-.008.485.8.8,0,0,0,.867.806,2.014,2.014,0,0,0,1.7-.79l1.055-6h2.219L25.984,17H23.93Zm8-9.656-.367,2.078h1.406L32.844,10.2H31.438l-.719,4.234a1.077,1.077,0,0,0,.063.609q.109.211.531.227.125.008.672-.039l-.156,1.727a3.706,3.706,0,0,1-1.266.18,1.985,1.985,0,0,1-1.617-.68,2.456,2.456,0,0,1-.437-1.8l.727-4.461h-1.2l.289-1.656h1.2l.359-2.078Zm4.867,10.688A3.677,3.677,0,0,1,35,16.613a3.292,3.292,0,0,1-1.277-1.469,4.093,4.093,0,0,1-.328-2.059l.023-.312a5.465,5.465,0,0,1,.719-2.266,4.341,4.341,0,0,1,1.547-1.59,3.827,3.827,0,0,1,2.094-.527,2.924,2.924,0,0,1,2.473,1.2,4.117,4.117,0,0,1,.637,2.962l-.125.962h-5.18a1.814,1.814,0,0,0,.4,1.313,1.521,1.521,0,0,0,1.172.508,2.7,2.7,0,0,0,2.109-.937l1.008,1.25a3.135,3.135,0,0,1-1.375,1.121A4.5,4.5,0,0,1,36.961,17.156Zm.7-6.945a1.565,1.565,0,0,0-1.082.383,3.363,3.363,0,0,0-.848,1.383h3.031l.047-.2a2.071,2.071,0,0,0,.008-.594,1.134,1.134,0,0,0-.383-.707A1.2,1.2,0,0,0,37.664,10.211Zm9.539.453a4.548,4.548,0,0,0-.742-.078,2.136,2.136,0,0,0-1.867.883L43.617,17h-2.2l1.469-8.453,2.07-.008-.2,1.031a2.325,2.325,0,0,1,1.969-1.2,3.214,3.214,0,0,1,.766.109Zm.531,7.313H46L52.2,5.625h1.742Zm11.7-4.016q.164-.93-.914-1.422l-1.508-.6q-2.625-1.172-2.492-3.227a2.964,2.964,0,0,1,.625-1.687,3.758,3.758,0,0,1,1.6-1.152,5.67,5.67,0,0,1,2.227-.4,3.857,3.857,0,0,1,2.664.98,3.267,3.267,0,0,1,1,2.543H60.352a1.628,1.628,0,0,0-.34-1.2,1.531,1.531,0,0,0-1.176-.445,2.37,2.37,0,0,0-1.359.355,1.458,1.458,0,0,0-.687,1.02q-.148.852,1.141,1.352l1.031.391.594.273q2.3,1.141,2.156,3.2a3.09,3.09,0,0,1-.645,1.738A3.633,3.633,0,0,1,59.5,16.8a5.565,5.565,0,0,1-2.176.367,4.873,4.873,0,0,1-2.156-.508,3.349,3.349,0,0,1-1.437-1.367,3.54,3.54,0,0,1-.43-1.875l2.289.008q-.109,1.852,1.82,1.883a2.392,2.392,0,0,0,1.375-.367A1.43,1.43,0,0,0,59.43,13.961Zm10.852-.039,2.008-5.375h2.2L70.93,17H69.086l-.625-5.289L65.992,17H64.148l-.625-8.453h2.063l.133,5.32,2.414-5.32h1.594ZM76.461,17H74.242l1.469-8.453H77.93ZM75.969,6.4a1.1,1.1,0,0,1,.344-.867,1.323,1.323,0,0,1,1.734-.039,1.1,1.1,0,0,1,.383.828,1.132,1.132,0,0,1-.324.844,1.215,1.215,0,0,1-.887.375,1.235,1.235,0,0,1-.863-.3A1.091,1.091,0,0,1,75.969,6.4Zm6.828.07L82.43,8.547h1.406L83.547,10.2H82.141l-.719,4.234a1.077,1.077,0,0,0,.063.609q.109.211.531.227.125.008.672-.039l-.156,1.727a3.706,3.706,0,0,1-1.266.18,1.985,1.985,0,0,1-1.617-.68,2.456,2.456,0,0,1-.437-1.8l.727-4.461h-1.2l.289-1.656h1.2l.359-2.078Zm4.555,8.875a1.447,1.447,0,0,0,1.016-.332,1.632,1.632,0,0,0,.531-.926l2.07-.008a3.037,3.037,0,0,1-.559,1.6,3.394,3.394,0,0,1-1.344,1.109,3.847,3.847,0,0,1-1.77.375A3.123,3.123,0,0,1,84.859,16.1a3.965,3.965,0,0,1-.867-2.766l.023-.43.008-.086a5.284,5.284,0,0,1,1.391-3.27,3.761,3.761,0,0,1,2.914-1.16,3.047,3.047,0,0,1,2.27.934,3.3,3.3,0,0,1,.824,2.379H89.367a1.73,1.73,0,0,0-.3-1.07,1.128,1.128,0,0,0-.891-.422q-1.578-.047-1.914,2.3a7.782,7.782,0,0,0-.086,1.438Q86.258,15.32,87.352,15.344ZM95.18,9.484a2.946,2.946,0,0,1,2.289-1.094,2.143,2.143,0,0,1,1.848.9,3.548,3.548,0,0,1,.441,2.379L98.867,17h-2.2l.9-5.358a2.6,2.6,0,0,0,.016-.563.885.885,0,0,0-.984-.868,1.9,1.9,0,0,0-1.562.766L93.969,17h-2.2L93.844,5h2.211Zm5.984,8.492H99.43l6.2-12.352h1.742Zm12.9-5.625H109.7L108.891,17H106.6l1.977-11.375h7.2l-.336,1.9h-4.906l-.516,2.938H114.4Zm3.3,4.648h-2.219l1.469-8.453h2.219Zm-.492-10.6a1.1,1.1,0,0,1,.344-.867,1.323,1.323,0,0,1,1.734-.039,1.1,1.1,0,0,1,.383.828,1.132,1.132,0,0,1-.324.844,1.215,1.215,0,0,1-.887.375,1.235,1.235,0,0,1-.863-.3A1.091,1.091,0,0,1,116.875,6.4Zm8.148,4.266a4.548,4.548,0,0,0-.742-.078,2.136,2.136,0,0,0-1.867.883L121.438,17h-2.2L120.7,8.547l2.07-.008-.2,1.031a2.325,2.325,0,0,1,1.969-1.2,3.214,3.214,0,0,1,.766.109Zm3.969,6.492a3.677,3.677,0,0,1-1.965-.543,3.292,3.292,0,0,1-1.277-1.469,4.093,4.093,0,0,1-.328-2.059l.023-.312a5.465,5.465,0,0,1,.719-2.266,4.341,4.341,0,0,1,1.547-1.59,3.827,3.827,0,0,1,2.094-.527,2.924,2.924,0,0,1,2.473,1.2,4.117,4.117,0,0,1,.637,2.962l-.125.962h-5.18a1.814,1.814,0,0,0,.4,1.313,1.521,1.521,0,0,0,1.172.508,2.7,2.7,0,0,0,2.109-.937l1.008,1.25a3.135,3.135,0,0,1-1.375,1.121A4.5,4.5,0,0,1,128.992,17.156Zm.7-6.945a1.565,1.565,0,0,0-1.082.383,3.363,3.363,0,0,0-.848,1.383H130.8l.047-.2a2.071,2.071,0,0,0,.008-.594,1.134,1.134,0,0,0-.383-.707A1.2,1.2,0,0,0,129.7,10.211Zm11.383,3.711,2.008-5.375h2.2L141.727,17h-1.844l-.625-5.289L136.789,17h-1.844l-.625-8.453h2.063l.133,5.32,2.414-5.32h1.594ZM149.82,17a2.281,2.281,0,0,1-.086-.766,2.863,2.863,0,0,1-2.156.922,2.594,2.594,0,0,1-1.84-.723,2.186,2.186,0,0,1-.684-1.746,2.527,2.527,0,0,1,1.16-2.121,5.266,5.266,0,0,1,2.965-.738l1.031.016.109-.508a1.764,1.764,0,0,0,.023-.492.846.846,0,0,0-.277-.574.955.955,0,0,0-.629-.215,1.345,1.345,0,0,0-.875.254,1.231,1.231,0,0,0-.461.777l-2.211.008A2.457,2.457,0,0,1,147,9.129a4.312,4.312,0,0,1,2.613-.738,3.117,3.117,0,0,1,2.25.855,2.5,2.5,0,0,1,.68,2.121l-.648,4.047-.039.5a2.412,2.412,0,0,0,.133.938l-.008.148Zm-1.7-1.555a2.017,2.017,0,0,0,1.664-.828l.273-1.461-.766-.008a2.139,2.139,0,0,0-1.758.742,1.292,1.292,0,0,0-.242.633.75.75,0,0,0,.176.668A.891.891,0,0,0,148.125,15.445ZM155.656,17h-2.219l2.086-12h2.211Zm4.2,0h-2.219l2.086-12h2.211Z" transform="translate(937.996 2855.078)" fill="#fff"/>
    <path id="Trazado_835859" data-name="Trazado 835859" d="M6,0H200a6,6,0,0,1,6,6V33a6,6,0,0,1-6,6H6a6,6,0,0,1-6-6V6A6,6,0,0,1,6,0Z" transform="translate(922.996 2995.078)" fill="#6e40fb"/>
    <path id="Trazado_835860" data-name="Trazado 835860" d="M30.887,15H28.543V3.625h2.344Zm4.141-8.453.07.945a2.971,2.971,0,0,1,2.43-1.1A2.255,2.255,0,0,1,39.77,7.68a2.9,2.9,0,0,1,2.539-1.289,2.521,2.521,0,0,1,2.047.8,3.681,3.681,0,0,1,.672,2.41V15H42.762V9.6a1.616,1.616,0,0,0-.281-1.053,1.245,1.245,0,0,0-.992-.333,1.409,1.409,0,0,0-1.406.971L40.09,15H37.832V9.6a1.6,1.6,0,0,0-.289-1.065,1.257,1.257,0,0,0-.984-.329,1.463,1.463,0,0,0-1.391.8V15H32.91V6.547Zm19.344,4.3a5.07,5.07,0,0,1-.887,3.129,2.843,2.843,0,0,1-2.395,1.176,2.633,2.633,0,0,1-2.07-.891V18.25H46.762V6.547h2.094l.078.828a2.654,2.654,0,0,1,2.141-.984A2.862,2.862,0,0,1,53.5,7.547a5.207,5.207,0,0,1,.867,3.188Zm-2.258-.172A3.345,3.345,0,0,0,51.7,8.854a1.36,1.36,0,0,0-1.215-.643,1.478,1.478,0,0,0-1.461.815V12.5a1.5,1.5,0,0,0,1.477.839Q52.113,13.336,52.113,10.679ZM60.52,8.664a6.134,6.134,0,0,0-.812-.062,1.654,1.654,0,0,0-1.68.867V15H55.77V6.547H57.9l.063,1.008a2.092,2.092,0,0,1,1.883-1.164,2.366,2.366,0,0,1,.7.1Zm4.828,6.492a4.15,4.15,0,0,1-3.027-1.141,4.054,4.054,0,0,1-1.168-3.039v-.219a5.106,5.106,0,0,1,.492-2.277,3.612,3.612,0,0,1,1.395-1.547A3.914,3.914,0,0,1,65.1,6.391a3.508,3.508,0,0,1,2.73,1.094,4.444,4.444,0,0,1,1,3.1v.922H63.441a2.1,2.1,0,0,0,.66,1.328,2,2,0,0,0,1.395.5,2.437,2.437,0,0,0,2.039-.945l1.109,1.242a3.389,3.389,0,0,1-1.375,1.121A4.511,4.511,0,0,1,65.348,15.156ZM65.09,8.211A1.411,1.411,0,0,0,64,8.666a2.357,2.357,0,0,0-.535,1.3h3.141V9.788A1.681,1.681,0,0,0,66.2,8.623,1.456,1.456,0,0,0,65.09,8.211Zm9.594,4.453a.727.727,0,0,0-.41-.652,4.659,4.659,0,0,0-1.316-.426q-3.016-.633-3.016-2.562a2.323,2.323,0,0,1,.934-1.879,3.766,3.766,0,0,1,2.441-.754,4.053,4.053,0,0,1,2.574.758,2.388,2.388,0,0,1,.965,1.969H74.6a1.092,1.092,0,0,0-.312-.8A1.322,1.322,0,0,0,73.309,8a1.351,1.351,0,0,0-.883.258.814.814,0,0,0-.312.656.7.7,0,0,0,.355.605,3.657,3.657,0,0,0,1.2.4,9.8,9.8,0,0,1,1.422.379,2.336,2.336,0,0,1,1.789,2.273,2.2,2.2,0,0,1-.992,1.871,4.28,4.28,0,0,1-2.562.715,4.47,4.47,0,0,1-1.887-.379,3.166,3.166,0,0,1-1.293-1.039,2.414,2.414,0,0,1-.469-1.426h2.141a1.179,1.179,0,0,0,.445.922,1.766,1.766,0,0,0,1.109.32,1.635,1.635,0,0,0,.98-.246A.766.766,0,0,0,74.684,12.664Zm3.3-1.969a5.013,5.013,0,0,1,.484-2.242A3.546,3.546,0,0,1,79.859,6.93a4.069,4.069,0,0,1,2.113-.539,3.849,3.849,0,0,1,2.793,1.047,4.2,4.2,0,0,1,1.207,2.844l.016.578A4.418,4.418,0,0,1,84.9,13.98a4.209,4.209,0,0,1-5.832,0A4.5,4.5,0,0,1,77.98,10.8Zm2.258.16a3.16,3.16,0,0,0,.453,1.843,1.628,1.628,0,0,0,2.578.008,3.457,3.457,0,0,0,.461-2.015A3.128,3.128,0,0,0,83.27,8.86a1.5,1.5,0,0,0-1.3-.649,1.474,1.474,0,0,0-1.281.646A3.516,3.516,0,0,0,80.238,10.856ZM92.129,8.664a6.134,6.134,0,0,0-.812-.062,1.654,1.654,0,0,0-1.68.867V15H87.379V6.547h2.133l.063,1.008a2.092,2.092,0,0,1,1.883-1.164,2.366,2.366,0,0,1,.7.1ZM97.879,15a2.507,2.507,0,0,1-.227-.758,2.732,2.732,0,0,1-2.133.914,3,3,0,0,1-2.059-.719,2.312,2.312,0,0,1-.816-1.812,2.389,2.389,0,0,1,1-2.062,4.915,4.915,0,0,1,2.879-.727h1.039V9.352a1.393,1.393,0,0,0-.3-.937,1.183,1.183,0,0,0-.949-.352,1.345,1.345,0,0,0-.895.273.929.929,0,0,0-.324.75H92.832a2.268,2.268,0,0,1,.453-1.359,3,3,0,0,1,1.281-.98,4.669,4.669,0,0,1,1.859-.355,3.689,3.689,0,0,1,2.48.785,2.747,2.747,0,0,1,.918,2.207v3.664a4.041,4.041,0,0,0,.336,1.82V15Zm-1.867-1.57a1.945,1.945,0,0,0,.922-.223,1.462,1.462,0,0,0,.625-.6V11.156h-.844q-1.7,0-1.8,1.172l-.008.133a.9.9,0,0,0,.3.7A1.153,1.153,0,0,0,96.012,13.43Zm13.422,1.727a4.15,4.15,0,0,1-3.027-1.141,4.054,4.054,0,0,1-1.168-3.039v-.219a5.106,5.106,0,0,1,.492-2.277,3.612,3.612,0,0,1,1.395-1.547,3.914,3.914,0,0,1,2.059-.543,3.508,3.508,0,0,1,2.73,1.094,4.444,4.444,0,0,1,1,3.1v.922h-5.383a2.1,2.1,0,0,0,.66,1.328,2,2,0,0,0,1.395.5,2.437,2.437,0,0,0,2.039-.945l1.109,1.242a3.389,3.389,0,0,1-1.375,1.121A4.511,4.511,0,0,1,109.434,15.156Zm-.258-6.945a1.411,1.411,0,0,0-1.09.455,2.357,2.357,0,0,0-.535,1.3h3.141V9.788a1.681,1.681,0,0,0-.406-1.165A1.456,1.456,0,0,0,109.176,8.211Zm7.094-1.664.07.977a2.951,2.951,0,0,1,2.43-1.133,2.453,2.453,0,0,1,2,.789,3.682,3.682,0,0,1,.672,2.359V15h-2.258V9.581a1.47,1.47,0,0,0-.312-1.045,1.4,1.4,0,0,0-1.039-.325,1.553,1.553,0,0,0-1.43.814V15h-2.258V6.547Zm15.617,2.117a6.134,6.134,0,0,0-.812-.062,1.654,1.654,0,0,0-1.68.867V15h-2.258V6.547h2.133l.063,1.008a2.092,2.092,0,0,1,1.883-1.164,2.366,2.366,0,0,1,.7.1Zm4.828,6.492a4.15,4.15,0,0,1-3.027-1.141,4.054,4.054,0,0,1-1.168-3.039v-.219a5.106,5.106,0,0,1,.492-2.277,3.612,3.612,0,0,1,1.395-1.547,3.914,3.914,0,0,1,2.059-.543,3.508,3.508,0,0,1,2.73,1.094,4.444,4.444,0,0,1,1,3.1v.922h-5.383a2.1,2.1,0,0,0,.66,1.328,2,2,0,0,0,1.395.5,2.437,2.437,0,0,0,2.039-.945l1.109,1.242a3.389,3.389,0,0,1-1.375,1.121A4.511,4.511,0,0,1,136.715,15.156Zm-.258-6.945a1.411,1.411,0,0,0-1.09.455,2.357,2.357,0,0,0-.535,1.3h3.141V9.788a1.681,1.681,0,0,0-.406-1.165A1.456,1.456,0,0,0,136.457,8.211Zm4.664,2.5a5.094,5.094,0,0,1,.887-3.148,2.877,2.877,0,0,1,2.426-1.172,2.589,2.589,0,0,1,2.039.922V3h2.266V15H146.7l-.109-.9a2.657,2.657,0,0,1-2.172,1.055,2.869,2.869,0,0,1-2.395-1.176A5.258,5.258,0,0,1,141.121,10.711Zm2.258.161a3.355,3.355,0,0,0,.414,1.829,1.348,1.348,0,0,0,1.2.636,1.51,1.51,0,0,0,1.477-.887V9.1a1.489,1.489,0,0,0-1.461-.887Q143.379,8.211,143.379,10.872Z" transform="translate(937.996 3005.078)" fill="#fff"/>
    <path id="Trazado_835861" data-name="Trazado 835861" d="M6,0H200a6,6,0,0,1,6,6V33a6,6,0,0,1-6,6H6a6,6,0,0,1-6-6V6A6,6,0,0,1,6,0Z" transform="translate(922.996 3054.078)" fill="#6e40fb"/>
    <path id="Trazado_835862" data-name="Trazado 835862" d="M65.07,12.016A1.2,1.2,0,0,0,64.6,11a6.148,6.148,0,0,0-1.687-.75,11.963,11.963,0,0,1-1.93-.777,3.153,3.153,0,0,1-1.937-2.82A2.747,2.747,0,0,1,59.566,5a3.389,3.389,0,0,1,1.492-1.129,5.616,5.616,0,0,1,2.184-.406,5.112,5.112,0,0,1,2.172.441,3.458,3.458,0,0,1,1.48,1.246,3.261,3.261,0,0,1,.527,1.828H65.078a1.534,1.534,0,0,0-.492-1.215A2.023,2.023,0,0,0,63.2,5.336a2.162,2.162,0,0,0-1.336.363,1.146,1.146,0,0,0-.477.957,1.1,1.1,0,0,0,.559.93,6.311,6.311,0,0,0,1.645.7,7.106,7.106,0,0,1,2.914,1.492A2.972,2.972,0,0,1,67.422,12,2.737,2.737,0,0,1,66.3,14.316a4.891,4.891,0,0,1-3.008.84,5.808,5.808,0,0,1-2.391-.48,3.783,3.783,0,0,1-1.645-1.316,3.371,3.371,0,0,1-.566-1.937h2.352q0,1.883,2.25,1.883a2.189,2.189,0,0,0,1.3-.34A1.106,1.106,0,0,0,65.07,12.016Zm7.68,3.141a4.15,4.15,0,0,1-3.027-1.141,4.054,4.054,0,0,1-1.168-3.039v-.219a5.106,5.106,0,0,1,.492-2.277,3.612,3.612,0,0,1,1.395-1.547A3.914,3.914,0,0,1,72.5,6.391a3.508,3.508,0,0,1,2.73,1.094,4.444,4.444,0,0,1,1,3.1v.922H70.844a2.1,2.1,0,0,0,.66,1.328,2,2,0,0,0,1.395.5,2.437,2.437,0,0,0,2.039-.945l1.109,1.242a3.389,3.389,0,0,1-1.375,1.121A4.511,4.511,0,0,1,72.75,15.156Zm-.258-6.945a1.411,1.411,0,0,0-1.09.455,2.357,2.357,0,0,0-.535,1.3h3.141V9.788A1.681,1.681,0,0,0,73.6,8.623,1.456,1.456,0,0,0,72.492,8.211Zm9.766.453a6.134,6.134,0,0,0-.812-.062,1.654,1.654,0,0,0-1.68.867V15H77.508V6.547h2.133L79.7,7.555a2.092,2.092,0,0,1,1.883-1.164,2.366,2.366,0,0,1,.7.1Zm4.391,3.578,1.57-5.7h2.359L87.727,15H85.57L82.719,6.547h2.359ZM93.953,15H91.688V6.547h2.266Zm-2.4-10.641a1.112,1.112,0,0,1,.34-.836,1.465,1.465,0,0,1,1.848,0,1.105,1.105,0,0,1,.344.836,1.108,1.108,0,0,1-.348.844,1.448,1.448,0,0,1-1.836,0A1.108,1.108,0,0,1,91.555,4.359Zm3.906,6.352a5.094,5.094,0,0,1,.887-3.148,2.877,2.877,0,0,1,2.426-1.172,2.589,2.589,0,0,1,2.039.922V3h2.266V15h-2.039l-.109-.9a2.657,2.657,0,0,1-2.172,1.055,2.869,2.869,0,0,1-2.395-1.176A5.258,5.258,0,0,1,95.461,10.711Zm2.258.161a3.355,3.355,0,0,0,.414,1.829,1.348,1.348,0,0,0,1.2.636,1.51,1.51,0,0,0,1.477-.887V9.1a1.489,1.489,0,0,0-1.461-.887Q97.719,8.211,97.719,10.872Zm6.758-.176a5.013,5.013,0,0,1,.484-2.242,3.546,3.546,0,0,1,1.395-1.523,4.069,4.069,0,0,1,2.113-.539,3.849,3.849,0,0,1,2.793,1.047,4.2,4.2,0,0,1,1.207,2.844l.016.578A4.418,4.418,0,0,1,111.4,13.98a4.209,4.209,0,0,1-5.832,0,4.5,4.5,0,0,1-1.09-3.187Zm2.258.16a3.16,3.16,0,0,0,.453,1.843,1.628,1.628,0,0,0,2.578.008,3.457,3.457,0,0,0,.461-2.015,3.128,3.128,0,0,0-.461-1.831,1.5,1.5,0,0,0-1.3-.649,1.474,1.474,0,0,0-1.281.646A3.516,3.516,0,0,0,106.734,10.856Zm11.891-2.192a6.134,6.134,0,0,0-.812-.062,1.654,1.654,0,0,0-1.68.867V15h-2.258V6.547h2.133l.063,1.008a2.092,2.092,0,0,1,1.883-1.164,2.366,2.366,0,0,1,.7.1Z" transform="translate(937.996 3064.078)" fill="#fff"/>
    <path id="Trazado_835863" data-name="Trazado 835863" d="M6,0H145a6,6,0,0,1,6,6V81a6,6,0,0,1-6,6H6a6,6,0,0,1-6-6V6A6,6,0,0,1,6,0Z" transform="translate(922.996 2896.078)" fill="#6e40fb"/>
    <path id="Trazado_835864" data-name="Trazado 835864" d="M6.914,12.016A1.2,1.2,0,0,0,6.445,11a6.148,6.148,0,0,0-1.687-.75,11.963,11.963,0,0,1-1.93-.777A3.153,3.153,0,0,1,.891,6.648,2.747,2.747,0,0,1,1.41,5,3.389,3.389,0,0,1,2.9,3.875a5.616,5.616,0,0,1,2.184-.406,5.112,5.112,0,0,1,2.172.441,3.458,3.458,0,0,1,1.48,1.246,3.261,3.261,0,0,1,.527,1.828H6.922A1.534,1.534,0,0,0,6.43,5.77a2.023,2.023,0,0,0-1.383-.434A2.162,2.162,0,0,0,3.711,5.7a1.146,1.146,0,0,0-.477.957,1.1,1.1,0,0,0,.559.93,6.311,6.311,0,0,0,1.645.7A7.106,7.106,0,0,1,8.352,9.781,2.972,2.972,0,0,1,9.266,12a2.737,2.737,0,0,1-1.117,2.316,4.891,4.891,0,0,1-3.008.84,5.808,5.808,0,0,1-2.391-.48,3.783,3.783,0,0,1-1.645-1.316,3.371,3.371,0,0,1-.566-1.937H2.891q0,1.883,2.25,1.883a2.189,2.189,0,0,0,1.3-.34A1.106,1.106,0,0,0,6.914,12.016Zm10.359.641H13.164L12.383,15H9.891L14.125,3.625H16.3L20.555,15H18.063Zm-3.477-1.9h2.844L15.211,6.5ZM24.109,15H21.766V3.625h2.344Zm6.109-4.625A11.99,11.99,0,0,1,30.7,6.969,8.989,8.989,0,0,1,32.1,4.105a5.251,5.251,0,0,1,2.016-1.73l.438,1.219A5.438,5.438,0,0,0,32.773,6.2a12.082,12.082,0,0,0-.641,4.125v.242a12.313,12.313,0,0,0,.633,4.141,5.544,5.544,0,0,0,1.789,2.648l-.437,1.2a5.253,5.253,0,0,1-1.98-1.684,8.838,8.838,0,0,1-1.4-2.785,11.918,11.918,0,0,1-.516-3.3Zm11.563,1.641A1.2,1.2,0,0,0,41.313,11a6.148,6.148,0,0,0-1.687-.75,11.963,11.963,0,0,1-1.93-.777,3.153,3.153,0,0,1-1.937-2.82A2.747,2.747,0,0,1,36.277,5,3.389,3.389,0,0,1,37.77,3.875a5.616,5.616,0,0,1,2.184-.406,5.112,5.112,0,0,1,2.172.441,3.458,3.458,0,0,1,1.48,1.246,3.261,3.261,0,0,1,.527,1.828H41.789A1.534,1.534,0,0,0,41.3,5.77a2.023,2.023,0,0,0-1.383-.434,2.162,2.162,0,0,0-1.336.363,1.146,1.146,0,0,0-.477.957,1.1,1.1,0,0,0,.559.93,6.311,6.311,0,0,0,1.645.7,7.106,7.106,0,0,1,2.914,1.492A2.972,2.972,0,0,1,44.133,12a2.737,2.737,0,0,1-1.117,2.316,4.891,4.891,0,0,1-3.008.84,5.808,5.808,0,0,1-2.391-.48,3.783,3.783,0,0,1-1.645-1.316,3.371,3.371,0,0,1-.566-1.937h2.352q0,1.883,2.25,1.883a2.189,2.189,0,0,0,1.3-.34A1.106,1.106,0,0,0,41.781,12.016ZM47.953,15H45.688V6.547h2.266Zm-2.4-10.641a1.112,1.112,0,0,1,.34-.836,1.465,1.465,0,0,1,1.848,0,1.105,1.105,0,0,1,.344.836,1.108,1.108,0,0,1-.348.844,1.448,1.448,0,0,1-1.836,0A1.108,1.108,0,0,1,45.555,4.359Zm8.836,8.3a.727.727,0,0,0-.41-.652,4.659,4.659,0,0,0-1.316-.426q-3.016-.633-3.016-2.562a2.323,2.323,0,0,1,.934-1.879,3.766,3.766,0,0,1,2.441-.754,4.053,4.053,0,0,1,2.574.758,2.388,2.388,0,0,1,.965,1.969H54.3a1.092,1.092,0,0,0-.312-.8A1.322,1.322,0,0,0,53.016,8a1.351,1.351,0,0,0-.883.258.814.814,0,0,0-.312.656.7.7,0,0,0,.355.605,3.657,3.657,0,0,0,1.2.4A9.8,9.8,0,0,1,54.8,10.3a2.336,2.336,0,0,1,1.789,2.273,2.2,2.2,0,0,1-.992,1.871,4.28,4.28,0,0,1-2.562.715,4.47,4.47,0,0,1-1.887-.379,3.166,3.166,0,0,1-1.293-1.039,2.414,2.414,0,0,1-.469-1.426h2.141a1.179,1.179,0,0,0,.445.922,1.766,1.766,0,0,0,1.109.32,1.635,1.635,0,0,0,.98-.246A.766.766,0,0,0,54.391,12.664Zm6.352-8.2V6.547h1.445V8.2H60.742v4.219a1.007,1.007,0,0,0,.18.672.9.9,0,0,0,.688.2,3.6,3.6,0,0,0,.664-.055v1.711a4.648,4.648,0,0,1-1.367.2,2.156,2.156,0,0,1-2.422-2.4V8.2H57.25V6.547h1.234V4.469Zm6.594,10.688a4.15,4.15,0,0,1-3.027-1.141,4.054,4.054,0,0,1-1.168-3.039v-.219a5.106,5.106,0,0,1,.492-2.277,3.612,3.612,0,0,1,1.395-1.547,3.914,3.914,0,0,1,2.059-.543,3.508,3.508,0,0,1,2.73,1.094,4.444,4.444,0,0,1,1,3.1v.922H65.43a2.1,2.1,0,0,0,.66,1.328,2,2,0,0,0,1.395.5,2.437,2.437,0,0,0,2.039-.945l1.109,1.242a3.389,3.389,0,0,1-1.375,1.121A4.511,4.511,0,0,1,67.336,15.156Zm-.258-6.945a1.411,1.411,0,0,0-1.09.455,2.357,2.357,0,0,0-.535,1.3h3.141V9.788a1.681,1.681,0,0,0-.406-1.165A1.456,1.456,0,0,0,67.078,8.211Zm7.133-1.664.07.945a2.971,2.971,0,0,1,2.43-1.1A2.255,2.255,0,0,1,78.953,7.68a2.9,2.9,0,0,1,2.539-1.289,2.521,2.521,0,0,1,2.047.8,3.681,3.681,0,0,1,.672,2.41V15H81.945V9.6a1.616,1.616,0,0,0-.281-1.053,1.245,1.245,0,0,0-.992-.333,1.409,1.409,0,0,0-1.406.971L79.273,15H77.016V9.6a1.6,1.6,0,0,0-.289-1.065,1.257,1.257,0,0,0-.984-.329,1.463,1.463,0,0,0-1.391.8V15H72.094V6.547ZM90.844,15a2.507,2.507,0,0,1-.227-.758,2.732,2.732,0,0,1-2.133.914,3,3,0,0,1-2.059-.719,2.312,2.312,0,0,1-.816-1.812,2.389,2.389,0,0,1,1-2.062,4.915,4.915,0,0,1,2.879-.727h1.039V9.352a1.393,1.393,0,0,0-.3-.937,1.183,1.183,0,0,0-.949-.352,1.345,1.345,0,0,0-.895.273.929.929,0,0,0-.324.75H85.8a2.268,2.268,0,0,1,.453-1.359,3,3,0,0,1,1.281-.98,4.669,4.669,0,0,1,1.859-.355,3.689,3.689,0,0,1,2.48.785,2.747,2.747,0,0,1,.918,2.207v3.664a4.041,4.041,0,0,0,.336,1.82V15Zm-1.867-1.57a1.945,1.945,0,0,0,.922-.223,1.462,1.462,0,0,0,.625-.6V11.156H89.68q-1.7,0-1.8,1.172l-.008.133a.9.9,0,0,0,.3.7A1.153,1.153,0,0,0,88.977,13.43Zm9.18-2.719a5.094,5.094,0,0,1,.887-3.148,2.877,2.877,0,0,1,2.426-1.172,2.589,2.589,0,0,1,2.039.922V3h2.266V15h-2.039l-.109-.9a2.657,2.657,0,0,1-2.172,1.055,2.869,2.869,0,0,1-2.395-1.176A5.258,5.258,0,0,1,98.156,10.711Zm2.258.161a3.355,3.355,0,0,0,.414,1.829,1.348,1.348,0,0,0,1.2.636,1.51,1.51,0,0,0,1.477-.887V9.1a1.489,1.489,0,0,0-1.461-.887Q100.414,8.211,100.414,10.872Zm11,4.285a4.15,4.15,0,0,1-3.027-1.141,4.054,4.054,0,0,1-1.168-3.039v-.219a5.106,5.106,0,0,1,.492-2.277,3.612,3.612,0,0,1,1.395-1.547,3.914,3.914,0,0,1,2.059-.543,3.508,3.508,0,0,1,2.73,1.094,4.444,4.444,0,0,1,1,3.1v.922h-5.383a2.1,2.1,0,0,0,.66,1.328,2,2,0,0,0,1.395.5,2.437,2.437,0,0,0,2.039-.945l1.109,1.242a3.389,3.389,0,0,1-1.375,1.121A4.511,4.511,0,0,1,111.414,15.156Zm-.258-6.945a1.411,1.411,0,0,0-1.09.455,2.357,2.357,0,0,0-.535,1.3h3.141V9.788a1.681,1.681,0,0,0-.406-1.165A1.456,1.456,0,0,0,111.156,8.211ZM7.438,36.656H3.328L2.547,39H.055L4.289,27.625H6.461L10.719,39H8.227Zm-3.477-1.9H6.8L5.375,30.5ZM14.016,39H11.75V27h2.266Zm4.242,0H15.992V30.547h2.266Zm-2.4-10.641a1.112,1.112,0,0,1,.34-.836,1.465,1.465,0,0,1,1.848,0,1.193,1.193,0,0,1,0,1.68,1.448,1.448,0,0,1-1.836,0A1.108,1.108,0,0,1,15.859,28.359Zm6.375,2.188.07.945a2.971,2.971,0,0,1,2.43-1.1,2.255,2.255,0,0,1,2.242,1.289,2.9,2.9,0,0,1,2.539-1.289,2.521,2.521,0,0,1,2.047.8,3.681,3.681,0,0,1,.672,2.41V39H29.969V33.6a1.616,1.616,0,0,0-.281-1.053,1.245,1.245,0,0,0-.992-.333,1.409,1.409,0,0,0-1.406.971L27.3,39H25.039V33.6a1.6,1.6,0,0,0-.289-1.065,1.257,1.257,0,0,0-.984-.329,1.463,1.463,0,0,0-1.391.8V39H20.117V30.547Zm15.625,8.609a4.15,4.15,0,0,1-3.027-1.141,4.054,4.054,0,0,1-1.168-3.039v-.219a5.106,5.106,0,0,1,.492-2.277,3.612,3.612,0,0,1,1.395-1.547,3.914,3.914,0,0,1,2.059-.543,3.508,3.508,0,0,1,2.73,1.094,4.444,4.444,0,0,1,1,3.1v.922H35.953a2.1,2.1,0,0,0,.66,1.328,2,2,0,0,0,1.395.5,2.437,2.437,0,0,0,2.039-.945l1.109,1.242a3.389,3.389,0,0,1-1.375,1.121A4.511,4.511,0,0,1,37.859,39.156ZM37.6,32.211a1.411,1.411,0,0,0-1.09.455,2.357,2.357,0,0,0-.535,1.3h3.141v-.181a1.681,1.681,0,0,0-.406-1.165A1.456,1.456,0,0,0,37.6,32.211ZM44.7,30.547l.07.977a2.951,2.951,0,0,1,2.43-1.133,2.453,2.453,0,0,1,2,.789,3.682,3.682,0,0,1,.672,2.359V39H47.609V33.581a1.47,1.47,0,0,0-.312-1.045,1.4,1.4,0,0,0-1.039-.325,1.553,1.553,0,0,0-1.43.814V39H42.57V30.547Zm9.586-2.078v2.078h1.445V32.2H54.281v4.219a1.007,1.007,0,0,0,.18.672.9.9,0,0,0,.688.2,3.6,3.6,0,0,0,.664-.055v1.711a4.648,4.648,0,0,1-1.367.2,2.156,2.156,0,0,1-2.422-2.4V32.2H50.789V30.547h1.234V28.469ZM61.883,39a2.507,2.507,0,0,1-.227-.758,2.732,2.732,0,0,1-2.133.914,3,3,0,0,1-2.059-.719,2.312,2.312,0,0,1-.816-1.812,2.389,2.389,0,0,1,1-2.062,4.915,4.915,0,0,1,2.879-.727h1.039v-.484a1.393,1.393,0,0,0-.3-.937,1.183,1.183,0,0,0-.949-.352,1.345,1.345,0,0,0-.895.273.929.929,0,0,0-.324.75H56.836a2.268,2.268,0,0,1,.453-1.359,3,3,0,0,1,1.281-.98,4.669,4.669,0,0,1,1.859-.355,3.689,3.689,0,0,1,2.48.785,2.747,2.747,0,0,1,.918,2.207v3.664a4.041,4.041,0,0,0,.336,1.82V39Zm-1.867-1.57a1.945,1.945,0,0,0,.922-.223,1.462,1.462,0,0,0,.625-.6V35.156h-.844q-1.7,0-1.8,1.172l-.008.133a.9.9,0,0,0,.3.7A1.153,1.153,0,0,0,60.016,37.43Zm9.063-.094a1.481,1.481,0,0,0,1.016-.344,1.2,1.2,0,0,0,.406-.914h2.117a2.9,2.9,0,0,1-.469,1.574,3.093,3.093,0,0,1-1.262,1.109,3.949,3.949,0,0,1-1.77.395A3.67,3.67,0,0,1,66.258,38a4.56,4.56,0,0,1-1.047-3.184v-.148a4.508,4.508,0,0,1,1.039-3.117A3.627,3.627,0,0,1,69.1,30.391a3.555,3.555,0,0,1,2.543.9,3.2,3.2,0,0,1,.973,2.4H70.5a1.551,1.551,0,0,0-.406-1.072,1.51,1.51,0,0,0-2.223.163,3.333,3.333,0,0,0-.4,1.866v.235a3.375,3.375,0,0,0,.4,1.878A1.377,1.377,0,0,0,69.078,37.336ZM76.289,39H74.023V30.547h2.266Zm-2.4-10.641a1.112,1.112,0,0,1,.34-.836,1.465,1.465,0,0,1,1.848,0,1.193,1.193,0,0,1,0,1.68,1.448,1.448,0,0,1-1.836,0A1.108,1.108,0,0,1,73.891,28.359ZM77.8,34.7a5.013,5.013,0,0,1,.484-2.242,3.546,3.546,0,0,1,1.395-1.523,4.069,4.069,0,0,1,2.113-.539,3.849,3.849,0,0,1,2.793,1.047,4.2,4.2,0,0,1,1.207,2.844l.016.578a4.418,4.418,0,0,1-1.086,3.121,4.209,4.209,0,0,1-5.832,0A4.5,4.5,0,0,1,77.8,34.8Zm2.258.16a3.16,3.16,0,0,0,.453,1.843,1.628,1.628,0,0,0,2.578.008,3.457,3.457,0,0,0,.461-2.015,3.128,3.128,0,0,0-.461-1.831,1.5,1.5,0,0,0-1.3-.649,1.474,1.474,0,0,0-1.281.646A3.516,3.516,0,0,0,80.055,34.856ZM82.234,27H84.7l-2.164,2.422H80.7Zm7.039,3.547.07.977a2.951,2.951,0,0,1,2.43-1.133,2.453,2.453,0,0,1,2,.789,3.682,3.682,0,0,1,.672,2.359V39H92.188V33.581a1.47,1.47,0,0,0-.312-1.045,1.4,1.4,0,0,0-1.039-.325,1.553,1.553,0,0,0-1.43.814V39H87.148V30.547ZM3.508,63H1.164V51.625H3.508Zm4.1-8.453.07.977a2.951,2.951,0,0,1,2.43-1.133,2.453,2.453,0,0,1,2,.789,3.682,3.682,0,0,1,.672,2.359V63H10.523V57.581a1.47,1.47,0,0,0-.312-1.045,1.4,1.4,0,0,0-1.039-.325,1.553,1.553,0,0,0-1.43.814V63H5.484V54.547ZM16.875,63H14.609V54.547h2.266Zm-2.4-10.641a1.112,1.112,0,0,1,.34-.836,1.465,1.465,0,0,1,1.848,0,1.193,1.193,0,0,1,0,1.68,1.448,1.448,0,0,1-1.836,0A1.108,1.108,0,0,1,14.477,52.359Zm6.336,2.188.07.977a2.951,2.951,0,0,1,2.43-1.133,2.453,2.453,0,0,1,2,.789,3.682,3.682,0,0,1,.672,2.359V63H23.727V57.581a1.47,1.47,0,0,0-.312-1.045,1.4,1.4,0,0,0-1.039-.325,1.553,1.553,0,0,0-1.43.814V63H18.688V54.547ZM30.4,52.469v2.078h1.445V56.2H30.4v4.219a1.007,1.007,0,0,0,.18.672.9.9,0,0,0,.688.2,3.6,3.6,0,0,0,.664-.055v1.711a4.648,4.648,0,0,1-1.367.2,2.156,2.156,0,0,1-2.422-2.4V56.2H26.906V54.547h1.234V52.469Zm6.594,10.688a4.15,4.15,0,0,1-3.027-1.141A4.054,4.054,0,0,1,32.8,58.977v-.219a5.106,5.106,0,0,1,.492-2.277,3.612,3.612,0,0,1,1.395-1.547,3.914,3.914,0,0,1,2.059-.543,3.508,3.508,0,0,1,2.73,1.094,4.444,4.444,0,0,1,1,3.1v.922H35.086a2.1,2.1,0,0,0,.66,1.328,2,2,0,0,0,1.395.5,2.437,2.437,0,0,0,2.039-.945l1.109,1.242a3.389,3.389,0,0,1-1.375,1.121A4.511,4.511,0,0,1,36.992,63.156Zm-.258-6.945a1.411,1.411,0,0,0-1.09.455,2.357,2.357,0,0,0-.535,1.3H38.25v-.181a1.681,1.681,0,0,0-.406-1.165A1.456,1.456,0,0,0,36.734,56.211Zm9.766.453a6.134,6.134,0,0,0-.812-.062,1.654,1.654,0,0,0-1.68.867V63H41.75V54.547h2.133l.063,1.008a2.092,2.092,0,0,1,1.883-1.164,2.366,2.366,0,0,1,.7.1Zm5.836,0a6.134,6.134,0,0,0-.812-.062,1.654,1.654,0,0,0-1.68.867V63H47.586V54.547h2.133l.063,1.008a2.092,2.092,0,0,1,1.883-1.164,2.366,2.366,0,0,1,.7.1Zm6.148,5.477a2.831,2.831,0,0,1-2.312,1.016,2.67,2.67,0,0,1-2.074-.781,3.335,3.335,0,0,1-.73-2.289V54.547h2.258v5.467q0,1.322,1.2,1.322a1.63,1.63,0,0,0,1.578-.8V54.547h2.266V63H58.547Zm6.008-7.594.07.945a2.971,2.971,0,0,1,2.43-1.1,2.255,2.255,0,0,1,2.242,1.289,2.9,2.9,0,0,1,2.539-1.289,2.521,2.521,0,0,1,2.047.8,3.681,3.681,0,0,1,.672,2.41V63H72.227V57.6a1.616,1.616,0,0,0-.281-1.053,1.245,1.245,0,0,0-.992-.333,1.409,1.409,0,0,0-1.406.971L69.555,63H67.3V57.6a1.6,1.6,0,0,0-.289-1.065,1.257,1.257,0,0,0-.984-.329,1.463,1.463,0,0,0-1.391.8V63H62.375V54.547Zm19.344,4.3a5.07,5.07,0,0,1-.887,3.129,2.843,2.843,0,0,1-2.395,1.176,2.633,2.633,0,0,1-2.07-.891V66.25H76.227v-11.7H78.32l.078.828a2.654,2.654,0,0,1,2.141-.984,2.862,2.862,0,0,1,2.43,1.156,5.207,5.207,0,0,1,.867,3.188Zm-2.258-.172a3.345,3.345,0,0,0-.418-1.826,1.36,1.36,0,0,0-1.215-.643,1.478,1.478,0,0,0-1.461.815V60.5a1.5,1.5,0,0,0,1.477.839Q81.578,61.336,81.578,58.679ZM87.617,63H85.352V54.547h2.266Zm-2.4-10.641a1.112,1.112,0,0,1,.34-.836,1.465,1.465,0,0,1,1.848,0,1.193,1.193,0,0,1,0,1.68,1.448,1.448,0,0,1-1.836,0A1.108,1.108,0,0,1,85.219,52.359Zm3.906,6.352a5.094,5.094,0,0,1,.887-3.148,2.877,2.877,0,0,1,2.426-1.172,2.589,2.589,0,0,1,2.039.922V51h2.266V63H94.7l-.109-.9a2.657,2.657,0,0,1-2.172,1.055,2.869,2.869,0,0,1-2.395-1.176A5.258,5.258,0,0,1,89.125,58.711Zm2.258.161A3.355,3.355,0,0,0,91.8,60.7a1.348,1.348,0,0,0,1.2.636,1.51,1.51,0,0,0,1.477-.887V57.1a1.489,1.489,0,0,0-1.461-.887Q91.383,56.211,91.383,58.872ZM103.391,63a2.507,2.507,0,0,1-.227-.758,2.732,2.732,0,0,1-2.133.914,3,3,0,0,1-2.059-.719,2.312,2.312,0,0,1-.816-1.812,2.389,2.389,0,0,1,1-2.062,4.915,4.915,0,0,1,2.879-.727h1.039v-.484a1.393,1.393,0,0,0-.3-.937,1.183,1.183,0,0,0-.949-.352,1.345,1.345,0,0,0-.895.273.929.929,0,0,0-.324.75H98.344a2.268,2.268,0,0,1,.453-1.359,3,3,0,0,1,1.281-.98,4.669,4.669,0,0,1,1.859-.355,3.689,3.689,0,0,1,2.48.785,2.747,2.747,0,0,1,.918,2.207v3.664a4.041,4.041,0,0,0,.336,1.82V63Zm-1.867-1.57a1.945,1.945,0,0,0,.922-.223,1.462,1.462,0,0,0,.625-.6V59.156h-.844q-1.7,0-1.8,1.172l-.008.133a.9.9,0,0,0,.3.7A1.153,1.153,0,0,0,101.523,61.43Zm9.438-2.875a11.377,11.377,0,0,1-.508,3.4,9.225,9.225,0,0,1-1.461,2.883,5.263,5.263,0,0,1-2.039,1.719l-.437-1.2a5.494,5.494,0,0,0,1.75-2.578,11.939,11.939,0,0,0,.664-4.008v-.414a12.209,12.209,0,0,0-.637-4.117,5.727,5.727,0,0,0-1.777-2.672l.438-1.2a5.265,5.265,0,0,1,2,1.672,9.106,9.106,0,0,1,1.461,2.82,11.3,11.3,0,0,1,.543,3.336Z" transform="translate(937.996 2906.078)" fill="#fff"/>
    <path id="Trazado_834160" data-name="Trazado 834160" d="M1567.848-8855.5h-141.23" transform="translate(-641.414 11797.432)" fill="none" stroke="#6e40fb" stroke-width="2"/>
    <path id="Trazado_834163" data-name="Trazado 834163" d="M1535.9-8855.5H1426.617" transform="translate(-750.697 11809.809)" fill="none" stroke="#6e40fb" stroke-width="2"/>
    <path id="Trazado_834161" data-name="Trazado 834161" d="M1564.76-8855.5H1426.617" transform="translate(-641.414 11869.629)" fill="none" stroke="#6e40fb" stroke-width="2"/>
    <path id="Trazado_834162" data-name="Trazado 834162" d="M1544.045-8930.5H1405.7v208.659h144.889" transform="translate(-620.495 11795.079)" fill="none" stroke="#6e40fb" stroke-width="2"/>
    <g id="Grupo_1093042" data-name="Grupo 1093042" transform="translate(471.996 2814.223)">
      <path id="Trazado_834101" data-name="Trazado 834101" d="M53.753,173.9h60.758a6.293,6.293,0,0,0,5.952-8.1L91.446,65.783a6.218,6.218,0,0,0-5.95-4.526H24.738a6.292,6.292,0,0,0-5.95,8.1L47.8,169.373a6.218,6.218,0,0,0,5.95,4.526" transform="translate(10.879 35.962)" fill="#1c2123"/>
      <path id="Trazado_834102" data-name="Trazado 834102" d="M59.02,173.9h52.922a6.292,6.292,0,0,0,5.95-8.1L88.878,65.783a6.218,6.218,0,0,0-5.95-4.526H30.005a6.293,6.293,0,0,0-5.95,8.1L53.07,169.373a6.218,6.218,0,0,0,5.95,4.526" transform="translate(13.971 35.962)" fill="#edbc9c"/>
      <path id="Trazado_834103" data-name="Trazado 834103" d="M54.418,136.25h64.308a5.431,5.431,0,1,0,0-10.862H54.418a5.431,5.431,0,1,0,0,10.862" transform="translate(28.759 73.611)" fill="#1c2123"/>
      <rect id="Rectángulo_387107" data-name="Rectángulo 387107" width="51.977" height="5.469" transform="translate(74.597 282.541)" fill="#1c2123"/>
      <path id="Trazado_834104" data-name="Trazado 834104" d="M76.538,182.394a5.212,5.212,0,1,0,5.994-4.29,5.212,5.212,0,0,0-5.994,4.29" transform="translate(44.892 104.518)" fill="#1c2123"/>
      <rect id="Rectángulo_387108" data-name="Rectángulo 387108" width="5.469" height="75.764" transform="translate(98.535 209.015)" fill="#1c2123"/>
      <path id="Trazado_834105" data-name="Trazado 834105" d="M43.789,182.394a5.212,5.212,0,1,0,5.993-4.29,5.209,5.209,0,0,0-5.993,4.29" transform="translate(25.665 104.518)" fill="#1c2123"/>
      <path id="Trazado_834106" data-name="Trazado 834106" d="M43.81,136.25h64.308a5.431,5.431,0,1,0,0-10.862H43.81a5.431,5.431,0,1,0,0,10.862" transform="translate(22.531 73.611)" fill="#1c2123"/>
      <path id="Trazado_834107" data-name="Trazado 834107" d="M145.731,188.581l-9.665-30.7-15.374-.816,9.641,32.941,14.828.094Z" transform="translate(70.855 92.21)" fill="#edbc9c"/>
      <path id="Trazado_834108" data-name="Trazado 834108" d="M126.872,174.927s12.714,5.229,18.686-3.012l26.174,15.9-48.8-.314Z" transform="translate(72.169 100.926)"/>
      <rect id="Rectángulo_387109" data-name="Rectángulo 387109" width="4.495" height="48.802" transform="matrix(0.006, -1, 1, 0.006, 195.069, 292.921)" fill="#fff"/>
      <path id="Trazado_834109" data-name="Trazado 834109" d="M137.431,178.4a.85.85,0,0,0,.357-.271,17.811,17.811,0,0,1,4.022-3.922.8.8,0,0,0,.238-1.138.9.9,0,0,0-1.193-.229,19.135,19.135,0,0,0-4.463,4.323.8.8,0,0,0,.19,1.147.9.9,0,0,0,.849.089" transform="translate(79.975 101.393)" fill="#fff"/>
      <path id="Trazado_834110" data-name="Trazado 834110" d="M140.078,179.727a.85.85,0,0,0,.357-.271,17.81,17.81,0,0,1,4.022-3.922.8.8,0,0,0,.238-1.138.9.9,0,0,0-1.193-.229,19.137,19.137,0,0,0-4.463,4.323.8.8,0,0,0,.19,1.147.9.9,0,0,0,.849.089" transform="translate(81.529 102.169)" fill="#fff"/>
      <path id="Trazado_834111" data-name="Trazado 834111" d="M142.725,181.05a.856.856,0,0,0,.355-.271,17.846,17.846,0,0,1,4.023-3.922.8.8,0,0,0,.238-1.136.893.893,0,0,0-1.193-.229,19.1,19.1,0,0,0-4.464,4.322.8.8,0,0,0,.19,1.147.9.9,0,0,0,.851.089" transform="translate(83.082 102.947)" fill="#fff"/>
      <path id="Trazado_834112" data-name="Trazado 834112" d="M102.343,101.551l13.362.849a22.174,22.174,0,0,1,19.954,16.171L156.6,199.227,130.025,200.5l-27.682-74.824Z" transform="translate(60.082 59.617)" fill="#6f82e8"/>
      <path id="Trazado_834113" data-name="Trazado 834113" d="M117.721,170.245h35.044l-2.431-12.92H115.291Z" transform="translate(67.684 92.36)" fill="#a0b0ff"/>
      <path id="Trazado_834114" data-name="Trazado 834114" d="M109.333,188.43l-.446-30.289-15.376-.816.424,32.533,14.828.094Z" transform="translate(54.898 92.361)" fill="#edbc9c"/>
      <path id="Trazado_834115" data-name="Trazado 834115" d="M93.884,174.927s12.714,5.229,18.686-3.012l26.174,15.9-48.8-.314Z" transform="translate(52.803 100.926)"/>
      <rect id="Rectángulo_387110" data-name="Rectángulo 387110" width="4.495" height="48.802" transform="matrix(0.006, -1, 1, 0.006, 142.715, 292.921)" fill="#fff"/>
      <path id="Trazado_834116" data-name="Trazado 834116" d="M104.443,178.4a.85.85,0,0,0,.357-.271,17.811,17.811,0,0,1,4.022-3.922.8.8,0,0,0,.238-1.138.9.9,0,0,0-1.193-.229,19.136,19.136,0,0,0-4.463,4.323.8.8,0,0,0,.19,1.147.9.9,0,0,0,.849.089" transform="translate(60.609 101.393)" fill="#fff"/>
      <path id="Trazado_834117" data-name="Trazado 834117" d="M107.09,179.727a.85.85,0,0,0,.357-.271,17.759,17.759,0,0,1,4.023-3.922.8.8,0,0,0,.236-1.138.9.9,0,0,0-1.193-.229,19.137,19.137,0,0,0-4.463,4.323.8.8,0,0,0,.19,1.147.9.9,0,0,0,.849.089" transform="translate(62.163 102.169)" fill="#fff"/>
      <path id="Trazado_834118" data-name="Trazado 834118" d="M109.737,181.05a.85.85,0,0,0,.357-.271,17.847,17.847,0,0,1,4.023-3.922.8.8,0,0,0,.238-1.136.893.893,0,0,0-1.193-.229,19.061,19.061,0,0,0-4.464,4.322.8.8,0,0,0,.19,1.147.9.9,0,0,0,.849.089" transform="translate(63.716 102.947)" fill="#fff"/>
      <path id="Trazado_834119" data-name="Trazado 834119" d="M49.407,97.23l49,5.921H129.66a16.661,16.661,0,0,1,16.671,16.412c.417,28.01-1.749,86.224-3.066,85.96-1.778-.355-27.366,0-27.366,0l-2.6-63.6-42.64.356c-4.4-1.238-33.344-5.529-21.251-45.047" transform="translate(27.284 57.081)" fill="#8292fd"/>
      <rect id="Rectángulo_387111" data-name="Rectángulo 387111" width="35.044" height="12.92" transform="translate(140.187 249.686)" fill="#a0b0ff"/>
      <path id="Trazado_834120" data-name="Trazado 834120" d="M118.275,84.027,90.157,79.972l5.028,14.185,25.445,1.192Z" transform="translate(52.929 46.949)" fill="#e3b99a"/>
      <path id="Trazado_834121" data-name="Trazado 834121" d="M109.5,82.426c-4.855,3.13-6.4,7.751-1.781,11.5s12.306,4.249,17.161,1.117,5.02-7.751.4-11.5A13.415,13.415,0,0,0,109.5,82.426" transform="translate(61.614 47.183)" fill="#e3b99a"/>
      <path id="Trazado_834122" data-name="Trazado 834122" d="M118.144,80.23l-27.71-2.549c-5.044-.849-11.03,3.122-12.212,8.1a9.715,9.715,0,0,0,8.391,11.9L115.3,96.268Z" transform="translate(45.765 45.537)" fill="#fff"/>
      <path id="Trazado_834123" data-name="Trazado 834123" d="M93.812,55.437s10.129,17.105,9.354,51.386L79,111.794,81.72,61.162Z" transform="translate(46.376 32.545)" fill="#fff"/>
      <path id="Trazado_834124" data-name="Trazado 834124" d="M87.908,46.172s-22.081-.7-29.377,15.236S45.6,130.67,45.6,130.67s20.486,12.141,58.207,2.471l9.6-72.25s-10.135-15.5-25.507-14.72" transform="translate(26.772 27.089)" fill="#fff"/>
      <path id="Trazado_834125" data-name="Trazado 834125" d="M87.756,62.13c-.336,23.655-5.6,37.312-5.6,37.312" transform="translate(48.23 36.475)" fill="none" stroke="#dddada" stroke-miterlimit="10" stroke-width="0.976"/>
      <path id="Trazado_834126" data-name="Trazado 834126" d="M45.508,94.7,59.742,58.115c.038-.073,1.758-2.262,1.8-2.335l.013-.022,0,0a10.867,10.867,0,0,1,20.381,5.252c0,1.812,2.2,2.417,1.412,3.92-.029.054-1.166,2.887-1.2,2.939l-14.12,36.6c-2.673,4.682-13.3,6.453-18.113,4.034A10.142,10.142,0,0,1,45.508,94.7" transform="translate(26.023 29.437)" fill="#fff"/>
      <line id="Línea_1772" data-name="Línea 1772" y1="22.341" x2="8.683" transform="translate(97.481 98.055)" fill="none" stroke="#dddada" stroke-miterlimit="10" stroke-width="0.976"/>
      <path id="Trazado_834127" data-name="Trazado 834127" d="M95.709,82.289,67.591,78.236l5.028,14.184,25.445,1.192Z" transform="translate(39.681 45.93)" fill="#e3b99a"/>
      <path id="Trazado_834128" data-name="Trazado 834128" d="M86.937,80.688c-4.855,3.13-6.4,7.751-1.781,11.5s12.306,4.249,17.161,1.117,5.02-7.751.4-11.5a13.415,13.415,0,0,0-15.777-1.117" transform="translate(48.366 46.163)" fill="#e3b99a"/>
      <path id="Trazado_834129" data-name="Trazado 834129" d="M102.073,78.978,56.8,75.116c-5.045-.849-11.032,3.12-12.213,8.1a9.715,9.715,0,0,0,8.391,11.9l46.249-.1Z" transform="translate(26.023 44.031)" fill="#fff"/>
      <path id="Trazado_834130" data-name="Trazado 834130" d="M94,82.784l.582-4.093L57.629,75.537" transform="translate(33.832 44.346)" fill="none" stroke="#dddada" stroke-miterlimit="10" stroke-width="0.976"/>
      <path id="Trazado_834131" data-name="Trazado 834131" d="M91.357,35.013s12.727-9.475,6.909-18.254-16.379-1.173-16.379-1.173Z" transform="translate(48.073 7.354)" fill="#1f2326"/>
      <path id="Trazado_834132" data-name="Trazado 834132" d="M90.329,13.121S54.472,8.045,70.257,35.814l4.08-11.265Z" transform="translate(38.889 7.489)" fill="#1f2326"/>
      <path id="Trazado_834133" data-name="Trazado 834133" d="M89.592,17.762S95.6,22.78,88.066,33.8L86.058,19.739Z" transform="translate(50.522 10.428)" fill="#1f2326"/>
      <path id="Trazado_834134" data-name="Trazado 834134" d="M84.051,31.72a5.453,5.453,0,0,0,4.668,6.107,5.4,5.4,0,0,0,5.929-4.837,5.454,5.454,0,0,0-4.668-6.107,5.4,5.4,0,0,0-5.929,4.837" transform="translate(49.321 15.76)" fill="#d39d7e"/>
      <path id="Trazado_834135" data-name="Trazado 834135" d="M88.395,39.5,83.8,56.815c-1.1,4.745-4.3,3.677-6.71,3.6-3.755-.221-7.973-1.909-7.612-5.971l5.463-22.008Z" transform="translate(40.779 19.04)" fill="#edbc9c"/>
      <path id="Trazado_834136" data-name="Trazado 834136" d="M84.389,55.378h0c7.505.381,13.995-5.428,14.522-11.747l1.028-13.225a14.566,14.566,0,0,0-12.528-15.85c-7.824-.938-16.294,4.688-17.226,12.771l-.678,10.316A16.533,16.533,0,0,0,84.389,55.378" transform="translate(40.782 8.485)" fill="#edbc9c"/>
      <path id="Trazado_834137" data-name="Trazado 834137" d="M83.638,30.969,83.86,34.7l-1.973,0" transform="translate(48.073 18.181)" fill="none" stroke="#000" stroke-linecap="round" stroke-linejoin="round" stroke-width="0.523"/>
      <path id="Trazado_834138" data-name="Trazado 834138" d="M78.9,25.258s3.274-.149,3.254,1.224c0,0-.038.93-2.893,1s-3.587-.171-3.814-1.054,1.922-1.222,3.453-1.171" transform="translate(44.283 14.825)" fill="#1f2326"/>
      <path id="Trazado_834139" data-name="Trazado 834139" d="M87.3,25.86s-2.684-.392-2.954.887c0,0-.162.868,2.189,1.157s3.131.01,3.382-.686c.283-.789-1.338-1.287-2.617-1.359" transform="translate(49.515 15.148)" fill="#1f2326"/>
      <path id="Trazado_834140" data-name="Trazado 834140" d="M84.823,30.4a1.372,1.372,0,1,0,1.468-1.313A1.4,1.4,0,0,0,84.823,30.4" transform="translate(49.795 17.077)" fill="#1f2326"/>
      <path id="Trazado_834141" data-name="Trazado 834141" d="M77.27,29.85a1.372,1.372,0,1,0,1.468-1.313A1.4,1.4,0,0,0,77.27,29.85" transform="translate(45.361 16.751)" fill="#1f2326"/>
      <path id="Trazado_834142" data-name="Trazado 834142" d="M100.894,28.122s.5-3.473-6.321-4.318-15.591-.275-20.449,5.8l-.108,9.559-6.086-6.007,3.2-14.234,18.207-5.936,10.9,7.581Z" transform="translate(39.879 7.624)" fill="#1f2326"/>
      <path id="Trazado_834143" data-name="Trazado 834143" d="M65.167,30.473a5.4,5.4,0,0,0,4.622,6.048,5.345,5.345,0,0,0,5.872-4.79,5.4,5.4,0,0,0-4.622-6.048,5.343,5.343,0,0,0-5.872,4.79" transform="translate(38.235 15.056)" fill="#edbc9c"/>
      <path id="Trazado_834144" data-name="Trazado 834144" d="M70.411,31.626s.452-3.928-3.255-3.747" transform="translate(39.425 16.363)" fill="none" stroke="#000" stroke-linecap="round" stroke-linejoin="round" stroke-width="0.523"/>
      <path id="Trazado_834145" data-name="Trazado 834145" d="M94.086,17.452S95.709,13.3,90,11C85.082,9.02,80,9.865,69.037,17.287Z" transform="translate(40.53 5.919)" fill="#1f2326"/>
      <path id="Trazado_834146" data-name="Trazado 834146" d="M97.447,45.422a2.164,2.164,0,0,0-1.309-1.955,22.026,22.026,0,0,0-5.54-1.528c-3.3-.516-8.054.53-10.618,1.206A2.42,2.42,0,0,1,77.2,41.9a30.174,30.174,0,0,1-2.452-20.608L70.96,24.038l.5,5.829s2.958,6.307-1.673,9.108c0,0-.221,13.055,11.874,15.41a18.111,18.111,0,0,0,10.706-1.42,8.818,8.818,0,0,0,5.082-7.543" transform="translate(40.968 12.5)" fill="#1f2326"/>
      <path id="Trazado_834147" data-name="Trazado 834147" d="M85.289,47.695s1.244.271,5.226,2.6c0,0,1.984,6.234-9.467,5.4-11.057-.8-15.2-8.319-15.2-8.319a26.374,26.374,0,0,1,9.632-1.213,68.842,68.842,0,0,1,9.808,1.528" transform="translate(38.658 27.068)" fill="#edbc9c"/>
      <path id="Trazado_834148" data-name="Trazado 834148" d="M72.739,29.911s7.953-1.855,4.887-9.618-6.8,2.109-6.8,2.109Z" transform="translate(41.577 10.166)" fill="#1f2326"/>
      <path id="Trazado_834149" data-name="Trazado 834149" d="M107.64,85.805h39.624a1.6,1.6,0,1,1,0,3.19H107.64a1.6,1.6,0,1,1,0-3.19" transform="translate(62.256 50.373)" fill="#121314"/>
      <path id="Trazado_834150" data-name="Trazado 834150" d="M94.815,85.805h28.507a1.6,1.6,0,1,1,0,3.19H94.815a1.6,1.6,0,0,1,0-3.19" transform="translate(54.727 50.373)" fill="#455157"/>
      <path id="Trazado_834151" data-name="Trazado 834151" d="M111.764,100.751h83.618a3.729,3.729,0,0,0,3.728-3.728V43.588a3.729,3.729,0,0,0-3.728-3.728H111.764a3.729,3.729,0,0,0-3.728,3.728V97.023a3.729,3.729,0,0,0,3.728,3.728" transform="translate(63.425 23.401)" fill="#455157"/>
      <path id="Trazado_834152" data-name="Trazado 834152" d="M113.023,100.751h83.618a3.729,3.729,0,0,0,3.728-3.728V43.588a3.729,3.729,0,0,0-3.728-3.728H113.023a3.729,3.729,0,0,0-3.728,3.728V97.023a3.729,3.729,0,0,0,3.728,3.728" transform="translate(64.164 23.401)" fill="#2e353a"/>
      <path id="Trazado_834153" data-name="Trazado 834153" d="M142.365,57.7,120.541,90.277h31.392Z" transform="translate(70.766 33.874)" fill="#121314"/>
      <path id="Trazado_834154" data-name="Trazado 834154" d="M150.081,57.175H136.042a1.991,1.991,0,0,0-1.951,2.387l9.065,44.646a1.991,1.991,0,0,0,1.951,1.6h14.738a1.991,1.991,0,0,0,1.944-2.417L152.025,58.74a1.989,1.989,0,0,0-1.944-1.565" transform="translate(78.697 33.566)" fill="#455157"/>
      <path id="Trazado_834155" data-name="Trazado 834155" d="M131.824,85.805h25.9V89h-25.9a1.6,1.6,0,0,1,0-3.19" transform="translate(76.453 50.373)" fill="#455157"/>
      <path id="Trazado_834164" data-name="Trazado 834164" d="M0,0V148.6" transform="translate(251.669 144.339)" fill="none" stroke="#fff" stroke-width="1.952"/>
      <line id="Línea_1774" data-name="Línea 1774" y2="148.599" transform="translate(113.389 144.339)" fill="none" stroke="#e8e2df" stroke-miterlimit="10" stroke-width="1.952"/>
      <rect id="Rectángulo_387112" data-name="Rectángulo 387112" width="149.316" height="9.941" transform="translate(137.375 139.368)" fill="#baaea7"/>
      <rect id="Rectángulo_387113" data-name="Rectángulo 387113" width="55.717" height="9.941" transform="translate(81.658 139.368)" fill="#e8e2df"/>
      <line id="Línea_1775" data-name="Línea 1775" x1="324.386" y2="1.549" transform="translate(0.004 292.101)" fill="none" stroke="#baaea7" stroke-miterlimit="10" stroke-width="0.976"/>
      <circle id="Elipse_11039" data-name="Elipse 11039" cx="24.069" cy="24.069" r="24.069" transform="translate(12.215 0.775)" fill="none" stroke="#baaea7" stroke-miterlimit="10" stroke-width="0.976"/>
      <path id="Trazado_834156" data-name="Trazado 834156" d="M22.862,9.171V19.461H39.114" transform="translate(13.422 5.384)" fill="none" stroke="#baaea7" stroke-miterlimit="10" stroke-width="0.976"/>
    </g>
    <path id="Trazado_835865" data-name="Trazado 835865" d="M28,0A28,28,0,1,1,0,28,28,28,0,0,1,28,0Z" transform="translate(829.996 2833.078)" fill="#fff"/>
    <g id="router-de-wifi" transform="translate(840.996 2840.079)">
      <g id="Grupo_1093044" data-name="Grupo 1093044" transform="translate(0.475 5.474)">
        <path id="Trazado_834165" data-name="Trazado 834165" d="M1.75,79.63H35.51v8.235H1.75Z" transform="translate(-1.75 -59.867)" fill="#0d70b2"/>
        <path id="Trazado_834166" data-name="Trazado 834166" d="M29.759,99.2H10.475a.475.475,0,0,1,0-.949H29.759a.475.475,0,0,1,0,.949Z" transform="translate(-7.763 -73.437)" fill="#e1e4fb"/>
        <path id="Trazado_834167" data-name="Trazado 834167" d="M29.759,88.829H10.475a.475.475,0,1,1,0-.949H29.759a.475.475,0,1,1,0,.949Z" transform="translate(-7.763 -65.88)" fill="#e1e4fb"/>
        <path id="Trazado_834168" data-name="Trazado 834168" d="M13.276,113.051a1.526,1.526,0,0,1-1.526-1.526V110H14.8v1.526A1.526,1.526,0,0,1,13.276,113.051Z" transform="translate(-9.038 -82.002)" fill="#1689fc"/>
        <path id="Trazado_834169" data-name="Trazado 834169" d="M106.525,113.051a1.526,1.526,0,0,0,1.526-1.526V110H105v1.526A1.526,1.526,0,0,0,106.525,113.051Z" transform="translate(-77.002 -82.002)" fill="#1689fc"/>
        <path id="Trazado_834170" data-name="Trazado 834170" d="M104.623,26.513h-2.831l3.89-18.66a1.385,1.385,0,1,1,2.712.565Z" transform="translate(-74.664 -6.75)" fill="#c5c9f7"/>
        <path id="Trazado_834171" data-name="Trazado 834171" d="M5.556,26.513H8.386L4.5,7.853a1.385,1.385,0,1,0-2.712.565Z" transform="translate(-1.754 -6.75)" fill="#c5c9f7"/>
        <path id="Trazado_834172" data-name="Trazado 834172" d="M97.808,92.443H94.281a1.406,1.406,0,1,1,0-2.811h3.527a1.406,1.406,0,1,1,0,2.811Z" transform="translate(-68.165 -67.157)" fill="#fedb41"/>
        <g id="Grupo_1093043" data-name="Grupo 1093043" transform="translate(9.603 4.068)">
          <circle id="Elipse_11040" data-name="Elipse 11040" cx="1.491" cy="1.491" r="1.491" transform="translate(5.787 8.609)" fill="#00ddc1"/>
          <path id="Trazado_834173" data-name="Trazado 834173" d="M51.772,43.931a.475.475,0,0,1-.335-.81,4.67,4.67,0,0,1,6.6-.007.475.475,0,1,1-.67.672,3.721,3.721,0,0,0-5.264.006A.473.473,0,0,1,51.772,43.931Z" transform="translate(-47.465 -36.327)" fill="#00ddc1"/>
          <path id="Trazado_834174" data-name="Trazado 834174" d="M44.7,34.727a.475.475,0,0,1-.335-.81,7.377,7.377,0,0,1,10.438-.007.475.475,0,1,1-.67.672,6.428,6.428,0,0,0-9.1.006.473.473,0,0,1-.336.139Z" transform="translate(-42.314 -29.039)" fill="#00ddc1"/>
          <path id="Trazado_834175" data-name="Trazado 834175" d="M37.637,25.522a.475.475,0,0,1-.336-.81,10.085,10.085,0,0,1,14.27-.007.475.475,0,1,1-.67.672,9.136,9.136,0,0,0-12.929.006A.473.473,0,0,1,37.637,25.522Z" transform="translate(-37.162 -21.751)" fill="#00ddc1"/>
        </g>
      </g>
      <g id="Grupo_1093045" data-name="Grupo 1093045" transform="translate(0 4.999)">
        <path id="Trazado_834176" data-name="Trazado 834176" d="M34.235,24.762H31.017L34.67,7.239a1.86,1.86,0,1,0-3.642-.759l-.855,4.1a.475.475,0,0,0,.929.193l.855-4.1a.911.911,0,1,1,1.783.372L30.047,24.762H28.186l.737-3.533a.475.475,0,1,0-.929-.194l-.777,3.727H7.493L3.682,6.48A1.86,1.86,0,1,0,.04,7.239L3.692,24.762H.475A.475.475,0,0,0,0,25.236v8.235a.475.475,0,0,0,.475.475H2.712V35a2,2,0,1,0,4,0V33.946h4.575a.475.475,0,0,0,0-.949H.949V25.711H33.76V33H14.385a.475.475,0,1,0,0,.949H28V35a2,2,0,0,0,4,0V33.946h2.237a.475.475,0,0,0,.475-.474V25.236a.475.475,0,0,0-.475-.475ZM5.762,33.946V35a1.051,1.051,0,0,1-2.1,0V33.946Zm-1.1-9.184L.969,7.045a.911.911,0,0,1,1.783-.372L6.523,24.762ZM31.049,35a1.051,1.051,0,0,1-2.1,0V33.946h2.1Z" transform="translate(0 -4.999)"/>
        <path id="Trazado_834177" data-name="Trazado 834177" d="M10.475,99.2H29.759a.475.475,0,0,0,0-.949H10.475a.475.475,0,0,0,0,.949Z" transform="translate(-7.288 -72.962)"/>
        <path id="Trazado_834178" data-name="Trazado 834178" d="M10.475,88.829H29.759a.475.475,0,1,0,0-.949H10.475a.475.475,0,1,0,0,.949Z" transform="translate(-7.288 -65.405)"/>
        <path id="Trazado_834179" data-name="Trazado 834179" d="M106.593,42.207a.5.5,0,0,0,.1.01.475.475,0,0,0,.464-.378l.542-2.6a.475.475,0,0,0-.929-.194l-.542,2.6A.475.475,0,0,0,106.593,42.207Z" transform="translate(-77.413 -29.535)"/>
        <path id="Trazado_834180" data-name="Trazado 834180" d="M96.532,91.641a1.88,1.88,0,1,0,0-3.761H93.005a1.88,1.88,0,1,0,0,3.761Zm-4.458-1.88a.932.932,0,0,1,.931-.931h3.527a.931.931,0,1,1,0,1.862H93.005A.932.932,0,0,1,92.074,89.76Z" transform="translate(-66.415 -65.405)"/>
        <path id="Trazado_834181" data-name="Trazado 834181" d="M56.753,53.716a1.965,1.965,0,1,0,1.965-1.966A1.965,1.965,0,0,0,56.753,53.716Zm2.981,0A1.016,1.016,0,1,1,58.718,52.7,1.016,1.016,0,0,1,59.734,53.716Z" transform="translate(-41.363 -39.073)"/>
        <path id="Trazado_834182" data-name="Trazado 834182" d="M58.045,43.785a.474.474,0,0,0,0-.671,4.67,4.67,0,0,0-6.6.007.475.475,0,1,0,.671.671,3.721,3.721,0,0,1,5.264-.006A.474.474,0,0,0,58.045,43.785Z" transform="translate(-37.391 -31.784)"/>
        <path id="Trazado_834183" data-name="Trazado 834183" d="M54.809,34.581a.475.475,0,0,0,0-.671,7.377,7.377,0,0,0-10.438.007.475.475,0,1,0,.671.671,6.428,6.428,0,0,1,9.1-.006A.474.474,0,0,0,54.809,34.581Z" transform="translate(-32.238 -24.496)"/>
        <path id="Trazado_834184" data-name="Trazado 834184" d="M37.635,25.522a.473.473,0,0,0,.335-.139,9.136,9.136,0,0,1,12.93-.006.475.475,0,1,0,.67-.672,10.085,10.085,0,0,0-14.271.007.475.475,0,0,0,.336.81Z" transform="translate(-27.084 -17.208)"/>
      </g>
    </g>
    <path id="Trazado_835866" data-name="Trazado 835866" d="M28,0A28,28,0,1,1,0,28,28,28,0,0,1,28,0Z" transform="translate(829.996 2907.078)" fill="#fff"/>
    <g id="g1707" transform="translate(838.996 3598.743)">
      <path id="path1709" d="M124.259-637.629H96.666v-35.036h27.592Z" transform="translate(-91.216 -9.436)" fill="#4380a0"/>
      <path id="path1711" d="M546-637.629h2.255v-35.036H546Z" transform="translate(-515.211 -9.436)" fill="#3b7191"/>
      <path id="path1713" d="M124.259-107.95H96.666v-3.383h27.592Z" transform="translate(-91.216 -539.116)" fill="#cfe0e9"/>
      <path id="path1715" d="M546-107.95h2.255v-3.383H546Z" transform="translate(-515.211 -539.116)" fill="#abbfcf"/>
      <path id="path1717" d="M142.769-49h-4.436v-2.331h4.436Z" transform="translate(-130.533 -595.732)" fill="#3b7191"/>
      <path id="path1719" d="M177-49h2.256v-2.331H177Z" transform="translate(-167.019 -595.732)" fill="#2b6182"/>
      <path id="path1721" d="M470.1-49h-4.436v-2.331H470.1Z" transform="translate(-439.408 -595.732)" fill="#3b7191"/>
      <path id="path1723" d="M504.332-49h2.255v-2.331h-2.255Z" transform="translate(-475.894 -595.732)" fill="#2b6182"/>
      <g id="g1725" transform="translate(0 -682.665)">
        <g id="g1727" clip-path="url(#clip-path)">
          <g id="g1733" transform="translate(11.804 3.872)">
            <path id="path1735" d="M-239.048-148.461h-13.683a.6.6,0,0,1-.6-.6v-7.669a.6.6,0,0,1,.6-.6h13.683a.6.6,0,0,1,.6.6v7.669a.6.6,0,0,1-.6.6" transform="translate(253.333 157.333)" fill="#bdf9ff"/>
          </g>
          <g id="g1737" transform="translate(23.833 3.872)">
            <path id="path1739" d="M-37.744,0H-40a.6.6,0,0,1,.6.6V8.27a.6.6,0,0,1-.6.6h2.256a.6.6,0,0,0,.6-.6V.6a.6.6,0,0,0-.6-.6" transform="translate(40)" fill="#8cf2ff"/>
          </g>
          <g id="g1741" transform="translate(11.804 15.262)">
            <path id="path1743" d="M-88.07-51.584h-4.661a.6.6,0,0,1-.6-.6v-1.88a.6.6,0,0,1,.6-.6h4.661a.6.6,0,0,1,.6.6v1.88a.6.6,0,0,1-.6.6" transform="translate(93.333 54.667)" fill="#ff5622"/>
          </g>
          <g id="g1745" transform="translate(14.811 15.262)">
            <path id="path1747" d="M-37.744,0H-40a.6.6,0,0,1,.6.6v1.88a.6.6,0,0,1-.6.6h2.256a.6.6,0,0,0,.6-.6V.6a.6.6,0,0,0-.6-.6" transform="translate(40)" fill="#e8491d"/>
          </g>
          <g id="g1749" transform="translate(20.826 15.262)">
            <path id="path1751" d="M-88.07-51.584h-4.661a.6.6,0,0,1-.6-.6v-1.88a.6.6,0,0,1,.6-.6h4.661a.6.6,0,0,1,.6.6v1.88a.6.6,0,0,1-.6.6" transform="translate(93.333 54.667)" fill="#ff5622"/>
          </g>
          <g id="g1753" transform="translate(23.833 15.262)">
            <path id="path1755" d="M-37.744,0H-40a.6.6,0,0,1,.6.6v1.88a.6.6,0,0,1-.6.6h2.256a.6.6,0,0,0,.6-.6V.6a.6.6,0,0,0-.6-.6" transform="translate(40)" fill="#e8491d"/>
          </g>
          <g id="g1757" transform="translate(16.465 20.922)">
            <path id="path1759" d="M-54.08-54.819l2.271,1.355a.126.126,0,0,1,.024.2L-55.6-49.453a.126.126,0,0,1-.21-.125l.89-2.969a.126.126,0,0,0-.056-.144l-2.271-1.355a.126.126,0,0,1-.024-.2l3.818-3.813a.126.126,0,0,1,.21.125l-.89,2.969a.126.126,0,0,0,.056.144" transform="translate(57.311 58.095)" fill="#ffd54f"/>
          </g>
          <g id="g1761" transform="translate(15.901 20.358)">
            <path id="path1763" d="M-62.806-68.095a.7.7,0,0,1,.556.28.682.682,0,0,1,.106.609l-.792,2.642,1.978,1.18a.686.686,0,0,1,.331.508.685.685,0,0,1-.2.573l-3.818,3.813a.684.684,0,0,1-.486.2.7.7,0,0,1-.556-.28.682.682,0,0,1-.106-.609L-65-61.818-66.977-63a.686.686,0,0,1-.331-.508.685.685,0,0,1,.2-.573l3.818-3.813A.684.684,0,0,1-62.806-68.095Zm.787,5.391-1.787-1.067a.689.689,0,0,1-.307-.79l.392-1.309-2.194,2.191,1.787,1.067a.689.689,0,0,1,.307.791l-.392,1.308Z" transform="translate(67.313 68.095)"/>
          </g>
          <g id="g1765" transform="translate(4.887 4.21)">
            <path id="path1767" d="M-9.436-34.454A.564.564,0,0,1-10-35.018v-1.529a.564.564,0,0,1,.564-.564.564.564,0,0,1,.564.564v1.529A.564.564,0,0,1-9.436-34.454Z" transform="translate(10 37.111)"/>
          </g>
          <g id="g1769" transform="translate(4.887 0)">
            <path id="path1771" d="M18.156-5.17H-9.436A.564.564,0,0,1-10-5.734V-32.624a.564.564,0,0,1,.564-.564.564.564,0,0,1,.564.564V-6.3H17.592V-40.205H-8.872V-39a.564.564,0,0,1-.564.564A.564.564,0,0,1-10-39v-1.767a.564.564,0,0,1,.564-.564H18.156a.564.564,0,0,1,.564.564V-5.734A.564.564,0,0,1,18.156-5.17Z" transform="translate(10 41.333)"/>
          </g>
          <g id="g1773" transform="translate(4.887 31.652)">
            <path id="path1775" d="M-396.509-5.489H-424.1a.564.564,0,0,1-.564-.564V-9.436A.564.564,0,0,1-424.1-10h21a.564.564,0,0,1,.564.564.564.564,0,0,1-.564.564h-20.431v2.256h26.465V-8.872h-3.646a.564.564,0,0,1-.564-.564A.564.564,0,0,1-400.72-10h4.21a.564.564,0,0,1,.564.564v3.383A.564.564,0,0,1-396.509-5.489Z" transform="translate(424.666 10)"/>
          </g>
          <path id="path1777" d="M133.333-57.875H128.9a.564.564,0,0,1-.564-.564v-2.331a.564.564,0,0,1,.564-.564h4.436a.564.564,0,0,1,.564.564v2.331A.564.564,0,0,1,133.333-57.875ZM129.461-59h3.308v-1.2h-3.308Z" transform="translate(-121.097 96.369)"/>
          <path id="path1779" d="M460.665-57.875h-4.436a.564.564,0,0,1-.564-.564v-2.331a.564.564,0,0,1,.564-.564h4.436a.564.564,0,0,1,.564.564v2.331A.564.564,0,0,1,460.665-57.875ZM456.793-59H460.1v-1.2h-3.308Z" transform="translate(-429.972 96.369)"/>
          <g id="g1781" transform="translate(11.24 3.308)">
            <path id="path1783" d="M-248.484-157.333h-13.683a1.167,1.167,0,0,1-1.165-1.165v-7.669a1.167,1.167,0,0,1,1.165-1.165h13.683a1.167,1.167,0,0,1,1.165,1.165v7.669A1.167,1.167,0,0,1-248.484-157.333Zm-13.683-8.872-.038,7.706,13.721.038a.038.038,0,0,0,.038-.038v-7.669Z" transform="translate(263.333 167.333)"/>
          </g>
          <g id="g1785" transform="translate(11.24 14.698)">
            <path id="path1787" d="M-97.506-60.456h-4.661a1.167,1.167,0,0,1-1.165-1.165V-63.5a1.167,1.167,0,0,1,1.165-1.165h4.661A1.167,1.167,0,0,1-96.341-63.5v1.88A1.167,1.167,0,0,1-97.506-60.456Zm-4.661-3.083-.038,1.917,4.7.038a.038.038,0,0,0,.038-.038V-63.5Z" transform="translate(103.333 64.666)"/>
          </g>
          <g id="g1789" transform="translate(20.262 14.698)">
            <path id="path1791" d="M-97.506-60.456h-4.661a1.167,1.167,0,0,1-1.165-1.165V-63.5a1.167,1.167,0,0,1,1.165-1.165h4.661A1.167,1.167,0,0,1-96.341-63.5v1.88A1.167,1.167,0,0,1-97.506-60.456Zm-4.661-3.083-.038,1.917,4.7.038a.038.038,0,0,0,.038-.038V-63.5Z" transform="translate(103.333 64.666)"/>
          </g>
          <g id="g1793" transform="translate(4.887 20.863)">
            <path id="path1795" d="M-6.053-8.872H-9.436A.564.564,0,0,1-10-9.436.564.564,0,0,1-9.436-10h3.383a.564.564,0,0,1,.564.564A.564.564,0,0,1-6.053-8.872Z" transform="translate(10 10)"/>
          </g>
          <g id="g1797" transform="translate(4.887 23.006)">
            <path id="path1799" d="M-6.053-8.872H-9.436A.564.564,0,0,1-10-9.436.564.564,0,0,1-9.436-10h3.383a.564.564,0,0,1,.564.564A.564.564,0,0,1-6.053-8.872Z" transform="translate(10 10)"/>
          </g>
          <g id="g1801" transform="translate(4.887 25.149)">
            <path id="path1803" d="M-6.053-8.872H-9.436A.564.564,0,0,1-10-9.436.564.564,0,0,1-9.436-10h3.383a.564.564,0,0,1,.564.564A.564.564,0,0,1-6.053-8.872Z" transform="translate(10 10)"/>
          </g>
          <g id="g1805" transform="translate(4.887 27.292)">
            <path id="path1807" d="M-6.053-8.872H-9.436A.564.564,0,0,1-10-9.436.564.564,0,0,1-9.436-10h3.383a.564.564,0,0,1,.564.564A.564.564,0,0,1-6.053-8.872Z" transform="translate(10 10)"/>
          </g>
          <g id="g1809" transform="translate(29.096 20.863)">
            <path id="path1811" d="M-6.053-8.872H-9.436A.564.564,0,0,1-10-9.436.564.564,0,0,1-9.436-10h3.383a.564.564,0,0,1,.564.564A.564.564,0,0,1-6.053-8.872Z" transform="translate(10 10)"/>
          </g>
          <g id="g1813" transform="translate(29.096 23.006)">
            <path id="path1815" d="M-6.053-8.872H-9.436A.564.564,0,0,1-10-9.436.564.564,0,0,1-9.436-10h3.383a.564.564,0,0,1,.564.564A.564.564,0,0,1-6.053-8.872Z" transform="translate(10 10)"/>
          </g>
          <g id="g1817" transform="translate(29.096 25.149)">
            <path id="path1819" d="M-6.053-8.872H-9.436A.564.564,0,0,1-10-9.436.564.564,0,0,1-9.436-10h3.383a.564.564,0,0,1,.564.564A.564.564,0,0,1-6.053-8.872Z" transform="translate(10 10)"/>
          </g>
          <g id="g1821" transform="translate(29.096 27.292)">
            <path id="path1823" d="M-6.053-8.872H-9.436A.564.564,0,0,1-10-9.436.564.564,0,0,1-9.436-10h3.383a.564.564,0,0,1,.564.564A.564.564,0,0,1-6.053-8.872Z" transform="translate(10 10)"/>
          </g>
        </g>
      </g>
    </g>
    <path id="Trazado_835867" data-name="Trazado 835867" d="M28,0A28,28,0,1,1,0,28,28,28,0,0,1,28,0Z" transform="translate(829.996 2981.078)" fill="#fff"/>
    <g id="impresora" transform="translate(839.996 2990.396)">
      <g id="Grupo_1093048" data-name="Grupo 1093048" transform="translate(0.53 1.213)">
        <path id="Trazado_834185" data-name="Trazado 834185" d="M121.5,21.874V8.183h18.525V21.874" transform="translate(-113.437 -8.183)" fill="#efefef"/>
        <path id="Trazado_834186" data-name="Trazado 834186" d="M121.5,154.423v-3.606h18.525v3.606" transform="translate(-113.437 -140.732)" fill="#e0e0e0"/>
        <path id="Trazado_834187" data-name="Trazado 834187" d="M34.19,194.486H39.22a2.925,2.925,0,0,0,2.925-2.924v-11.82a2.925,2.925,0,0,0-2.925-2.924h-28.8A2.925,2.925,0,0,0,7.5,179.741v11.82a2.925,2.925,0,0,0,2.924,2.924h5.031" transform="translate(-7.5 -164.894)" fill="#494f56"/>
        <path id="Trazado_834188" data-name="Trazado 834188" d="M10.187,191.562v-11.82a2.925,2.925,0,0,1,2.924-2.924H10.424A2.925,2.925,0,0,0,7.5,179.741v11.82a2.925,2.925,0,0,0,2.924,2.924h2.687A2.925,2.925,0,0,1,10.187,191.562Z" transform="translate(-7.5 -164.894)" fill="#36393d"/>
        <path id="Trazado_834189" data-name="Trazado 834189" d="M109.055,298.473h2.637v-5.656H88.5v5.656h2.637" transform="translate(-82.773 -272.692)" fill="#36393d"/>
        <path id="Trazado_834190" data-name="Trazado 834190" d="M132.292,340.106h-19.8l1.279-11.923h17.24Z" transform="translate(-105.07 -305.558)" fill="#efefef"/>
        <circle id="Elipse_11042" data-name="Elipse 11042" cx="1.838" cy="1.838" r="1.838" transform="translate(2.192 14.115)" fill="#40d39b"/>
        <circle id="Elipse_11043" data-name="Elipse 11043" cx="1.838" cy="1.838" r="1.838" transform="translate(7.707 14.115)" fill="#fc6947"/>
      </g>
      <g id="Grupo_1093049" data-name="Grupo 1093049" transform="translate(0 0.683)">
        <path id="Trazado_834191" data-name="Trazado 834191" d="M114.527,12.009a.53.53,0,0,0,.53-.53V1.744h17.464v9.735a.53.53,0,0,0,1.061,0V1.213a.53.53,0,0,0-.53-.53H114.527a.53.53,0,0,0-.53.53V11.478A.53.53,0,0,0,114.527,12.009Z" transform="translate(-105.937 -0.683)"/>
        <path id="Trazado_834192" data-name="Trazado 834192" d="M124.207,321.744h.721a.53.53,0,0,0,0-1.061H105.065a.53.53,0,0,0,0,1.061h.721l-.891,8.308a.53.53,0,0,0,1.054.113l.9-8.421H123.14l1.165,10.863H105.688l.072-.671a.53.53,0,0,0-1.054-.113l-.135,1.258a.53.53,0,0,0,.527.587h19.8a.53.53,0,0,0,.527-.587Z" transform="translate(-97.144 -298.058)"/>
        <path id="Trazado_834193" data-name="Trazado 834193" d="M6.718,186.986H3.455a2.4,2.4,0,0,1-2.394-2.394v-11.82a2.4,2.4,0,0,1,2.394-2.394H29.378a.53.53,0,1,0,0-1.061H3.455A3.459,3.459,0,0,0,0,172.772v11.82a3.459,3.459,0,0,0,3.455,3.455H6.717a.53.53,0,0,0,0-1.061Z" transform="translate(0 -157.394)"/>
        <path id="Trazado_834194" data-name="Trazado 834194" d="M406.275,169.317H405.17a.53.53,0,0,0,0,1.061h1.105a2.4,2.4,0,0,1,2.395,2.394v11.82a2.4,2.4,0,0,1-2.395,2.394h-3.263a.53.53,0,0,0,0,1.061h3.263a3.459,3.459,0,0,0,3.455-3.455v-11.82A3.459,3.459,0,0,0,406.275,169.317Z" transform="translate(-374.025 -157.394)"/>
        <path id="Trazado_834195" data-name="Trazado 834195" d="M103.853,290.973a.53.53,0,0,0,0,1.061h.869a.53.53,0,0,0,.53-.53v-5.656a.53.53,0,0,0-.53-.53H81.53a.53.53,0,0,0-.53.53V291.5a.53.53,0,0,0,.53.53H82.4a.53.53,0,0,0,0-1.061h-.339v-4.6h22.131v4.6Z" transform="translate(-75.273 -265.192)"/>
        <path id="Trazado_834196" data-name="Trazado 834196" d="M35.737,202.687a2.369,2.369,0,1,0-2.369,2.369A2.371,2.371,0,0,0,35.737,202.687Zm-2.369,1.308a1.308,1.308,0,1,1,1.308-1.308A1.31,1.31,0,0,1,33.369,203.995Z" transform="translate(-28.808 -186.203)"/>
        <path id="Trazado_834197" data-name="Trazado 834197" d="M113.737,202.687a2.369,2.369,0,1,0-2.369,2.369A2.371,2.371,0,0,0,113.737,202.687Zm-3.677,0a1.308,1.308,0,1,1,1.308,1.308A1.31,1.31,0,0,1,110.061,202.687Z" transform="translate(-101.293 -186.203)"/>
        <path id="Trazado_834198" data-name="Trazado 834198" d="M147.5,445.847a.53.53,0,0,0,.53.53h13.787a.53.53,0,1,0,0-1.061H148.027A.53.53,0,0,0,147.5,445.847Z" transform="translate(-137.068 -413.879)"/>
        <path id="Trazado_834199" data-name="Trazado 834199" d="M152.245,411.847a.53.53,0,0,0,.53.53h13.116a.53.53,0,1,0,0-1.061H152.775A.53.53,0,0,0,152.245,411.847Z" transform="translate(-141.481 -382.283)"/>
        <path id="Trazado_834200" data-name="Trazado 834200" d="M169.326,378.378a.53.53,0,0,0,0-1.061h-12.55a.53.53,0,1,0,0,1.061Z" transform="translate(-145.198 -350.687)"/>
      </g>
    </g>
    <path id="Trazado_835868" data-name="Trazado 835868" d="M28,0A28,28,0,1,1,0,28,28,28,0,0,1,28,0Z" transform="translate(829.996 3042.078)" fill="#fff"/>
    <g id="servidor_2_" data-name="servidor (2)" transform="translate(842.996 3055.078)">
      <path id="Trazado_834201" data-name="Trazado 834201" d="M4,15H30.176v4.53H4Z" transform="translate(-1.986 -7.449)" fill="#1b3863"/>
      <path id="Trazado_834202" data-name="Trazado 834202" d="M4,36H30.176v4.53H4Z" transform="translate(-1.986 -17.878)" fill="#1b3863"/>
      <rect id="Rectángulo_387114" data-name="Rectángulo 387114" width="29" height="8" rx="3" transform="translate(1 1)" fill="#1f45b2"/>
      <path id="Trazado_834203" data-name="Trazado 834203" d="M12.551,9.014a1.007,1.007,0,0,0,0-2.014H6.007a1.007,1.007,0,0,0,0,2.014Z" transform="translate(-2.483 -3.476)" fill="#30c191"/>
      <rect id="Rectángulo_387115" data-name="Rectángulo 387115" width="29" height="8" rx="3" transform="translate(1 11)" fill="#1f45b2"/>
      <path id="Trazado_834204" data-name="Trazado 834204" d="M12.551,30.014a1.007,1.007,0,0,0,0-2.014H6.007a1.007,1.007,0,0,0,0,2.014Z" transform="translate(-2.483 -13.905)" fill="#f4c811"/>
      <rect id="Rectángulo_387116" data-name="Rectángulo 387116" width="29" height="8" rx="3" transform="translate(1 22)" fill="#1f45b2"/>
      <path id="Trazado_834205" data-name="Trazado 834205" d="M12.551,51.014a1.007,1.007,0,0,0,0-2.014H6.007a1.007,1.007,0,0,0,0,2.014Z" transform="translate(-2.483 -24.334)" fill="#de024b"/>
      <g id="Grupo_1093051" data-name="Grupo 1093051">
        <path id="Trazado_834206" data-name="Trazado 834206" d="M28.19,0H7.047a.5.5,0,0,0,0,1.007H28.19A1.008,1.008,0,0,1,29.2,2.014V7.047A1.008,1.008,0,0,1,28.19,8.054H2.014A1.008,1.008,0,0,1,1.007,7.047V2.014A1.008,1.008,0,0,1,2.014,1.007h3.02A.5.5,0,0,0,5.034,0H2.014A2.016,2.016,0,0,0,0,2.014V7.047A2.011,2.011,0,0,0,1.51,8.989v1.653A2.011,2.011,0,0,0,0,12.585v5.034a2.011,2.011,0,0,0,1.51,1.942v1.653A2.011,2.011,0,0,0,0,23.156V28.19A2.016,2.016,0,0,0,2.014,30.2H28.19A2.016,2.016,0,0,0,30.2,28.19V23.156a2.011,2.011,0,0,0-1.51-1.942V19.561a2.011,2.011,0,0,0,1.51-1.942V12.585a2.011,2.011,0,0,0-1.51-1.942V8.989A2.011,2.011,0,0,0,30.2,7.047V2.014A2.016,2.016,0,0,0,28.19,0ZM2.517,10.571V9.061H27.686v1.51Zm0,10.571v-1.51H27.686v1.51ZM29.2,23.156V28.19A1.008,1.008,0,0,1,28.19,29.2H2.014A1.008,1.008,0,0,1,1.007,28.19V23.156a1.008,1.008,0,0,1,1.007-1.007H28.19A1.008,1.008,0,0,1,29.2,23.156Zm0-10.571v5.034a1.008,1.008,0,0,1-1.007,1.007H2.014a1.008,1.008,0,0,1-1.007-1.007V12.585a1.008,1.008,0,0,1,1.007-1.007H28.19A1.008,1.008,0,0,1,29.2,12.585Z" fill="#161616"/>
        <path id="Trazado_834207" data-name="Trazado 834207" d="M4,7.51A1.512,1.512,0,0,0,5.51,9.02h6.544a1.51,1.51,0,1,0,0-3.02H5.51A1.512,1.512,0,0,0,4,7.51Zm8.558,0a.5.5,0,0,1-.5.5H5.51a.5.5,0,0,1,0-1.007h6.544A.5.5,0,0,1,12.558,7.51Z" transform="translate(-1.986 -2.98)" fill="#161616"/>
        <path id="Trazado_834208" data-name="Trazado 834208" d="M12.054,27H5.51a1.51,1.51,0,0,0,0,3.02h6.544a1.51,1.51,0,1,0,0-3.02Zm0,2.014H5.51a.5.5,0,0,1,0-1.007h6.544a.5.5,0,0,1,0,1.007Z" transform="translate(-1.986 -13.409)" fill="#161616"/>
        <path id="Trazado_834209" data-name="Trazado 834209" d="M12.054,48H5.51a1.51,1.51,0,0,0,0,3.02h6.544a1.51,1.51,0,1,0,0-3.02Zm0,2.014H5.51a.5.5,0,0,1,0-1.007h6.544a.5.5,0,1,1,0,1.007Z" transform="translate(-1.986 -23.837)" fill="#161616"/>
        <path id="Trazado_834210" data-name="Trazado 834210" d="M37.5,7.007h.5a.5.5,0,0,0,0-1.007h-.5a.5.5,0,1,0,0,1.007Z" transform="translate(-18.375 -2.98)" fill="#161616"/>
        <path id="Trazado_834211" data-name="Trazado 834211" d="M37.5,11.007h.5a.5.5,0,0,0,0-1.007h-.5a.5.5,0,1,0,0,1.007Z" transform="translate(-18.375 -4.966)" fill="#161616"/>
        <path id="Trazado_834212" data-name="Trazado 834212" d="M42.5,7.007h.5a.5.5,0,0,0,0-1.007h-.5a.5.5,0,1,0,0,1.007Z" transform="translate(-20.858 -2.98)" fill="#161616"/>
        <path id="Trazado_834213" data-name="Trazado 834213" d="M42.5,11.007h.5a.5.5,0,0,0,0-1.007h-.5a.5.5,0,1,0,0,1.007Z" transform="translate(-20.858 -4.966)" fill="#161616"/>
        <path id="Trazado_834214" data-name="Trazado 834214" d="M47.5,7.007h.5a.5.5,0,0,0,0-1.007h-.5a.5.5,0,1,0,0,1.007Z" transform="translate(-23.341 -2.98)" fill="#161616"/>
        <path id="Trazado_834215" data-name="Trazado 834215" d="M47.5,11.007h.5a.5.5,0,0,0,0-1.007h-.5a.5.5,0,1,0,0,1.007Z" transform="translate(-23.341 -4.966)" fill="#161616"/>
        <path id="Trazado_834216" data-name="Trazado 834216" d="M52.5,7.007h.5a.5.5,0,0,0,0-1.007h-.5a.5.5,0,1,0,0,1.007Z" transform="translate(-25.824 -2.98)" fill="#161616"/>
        <path id="Trazado_834217" data-name="Trazado 834217" d="M52.5,11.007h.5a.5.5,0,0,0,0-1.007h-.5a.5.5,0,1,0,0,1.007Z" transform="translate(-25.824 -4.966)" fill="#161616"/>
        <path id="Trazado_834218" data-name="Trazado 834218" d="M38.007,27h-.5a.5.5,0,1,0,0,1.007h.5a.5.5,0,0,0,0-1.007Z" transform="translate(-18.375 -13.409)" fill="#161616"/>
        <path id="Trazado_834219" data-name="Trazado 834219" d="M38.007,31h-.5a.5.5,0,1,0,0,1.007h.5a.5.5,0,0,0,0-1.007Z" transform="translate(-18.375 -15.395)" fill="#161616"/>
        <path id="Trazado_834220" data-name="Trazado 834220" d="M43.007,27h-.5a.5.5,0,1,0,0,1.007h.5a.5.5,0,0,0,0-1.007Z" transform="translate(-20.858 -13.409)" fill="#161616"/>
        <path id="Trazado_834221" data-name="Trazado 834221" d="M43.007,31h-.5a.5.5,0,1,0,0,1.007h.5a.5.5,0,0,0,0-1.007Z" transform="translate(-20.858 -15.395)" fill="#161616"/>
        <path id="Trazado_834222" data-name="Trazado 834222" d="M48.007,27h-.5a.5.5,0,1,0,0,1.007h.5a.5.5,0,0,0,0-1.007Z" transform="translate(-23.341 -13.409)" fill="#161616"/>
        <path id="Trazado_834223" data-name="Trazado 834223" d="M48.007,31h-.5a.5.5,0,1,0,0,1.007h.5a.5.5,0,0,0,0-1.007Z" transform="translate(-23.341 -15.395)" fill="#161616"/>
        <path id="Trazado_834224" data-name="Trazado 834224" d="M53.007,27h-.5a.5.5,0,1,0,0,1.007h.5a.5.5,0,0,0,0-1.007Z" transform="translate(-25.824 -13.409)" fill="#161616"/>
        <path id="Trazado_834225" data-name="Trazado 834225" d="M53.007,31h-.5a.5.5,0,1,0,0,1.007h.5a.5.5,0,0,0,0-1.007Z" transform="translate(-25.824 -15.395)" fill="#161616"/>
        <path id="Trazado_834226" data-name="Trazado 834226" d="M38.007,48h-.5a.5.5,0,1,0,0,1.007h.5a.5.5,0,0,0,0-1.007Z" transform="translate(-18.375 -23.837)" fill="#161616"/>
        <path id="Trazado_834227" data-name="Trazado 834227" d="M38.007,52h-.5a.5.5,0,1,0,0,1.007h.5a.5.5,0,0,0,0-1.007Z" transform="translate(-18.375 -25.824)" fill="#161616"/>
        <path id="Trazado_834228" data-name="Trazado 834228" d="M43.007,48h-.5a.5.5,0,1,0,0,1.007h.5a.5.5,0,0,0,0-1.007Z" transform="translate(-20.858 -23.837)" fill="#161616"/>
        <path id="Trazado_834229" data-name="Trazado 834229" d="M43.007,52h-.5a.5.5,0,1,0,0,1.007h.5a.5.5,0,0,0,0-1.007Z" transform="translate(-20.858 -25.824)" fill="#161616"/>
        <path id="Trazado_834230" data-name="Trazado 834230" d="M48.007,48h-.5a.5.5,0,1,0,0,1.007h.5a.5.5,0,0,0,0-1.007Z" transform="translate(-23.341 -23.837)" fill="#161616"/>
        <path id="Trazado_834231" data-name="Trazado 834231" d="M48.007,52h-.5a.5.5,0,1,0,0,1.007h.5a.5.5,0,0,0,0-1.007Z" transform="translate(-23.341 -25.824)" fill="#161616"/>
        <path id="Trazado_834232" data-name="Trazado 834232" d="M53.007,48h-.5a.5.5,0,1,0,0,1.007h.5a.5.5,0,0,0,0-1.007Z" transform="translate(-25.824 -23.837)" fill="#161616"/>
        <path id="Trazado_834233" data-name="Trazado 834233" d="M53.007,52h-.5a.5.5,0,1,0,0,1.007h.5a.5.5,0,0,0,0-1.007Z" transform="translate(-25.824 -25.824)" fill="#161616"/>
      </g>
    </g>
  </g>
</svg>
