<svg xmlns="http://www.w3.org/2000/svg" width="582" height="422.581" viewBox="0 0 582 422.581">
  <g id="Grupo_1093252" data-name="Grupo 1093252" transform="translate(-509 -5482.251)">
    <path id="Trazado_835872" data-name="Trazado 835872" d="M6,0H163a6,6,0,0,1,6,6V33a6,6,0,0,1-6,6H6a6,6,0,0,1-6-6V6A6,6,0,0,1,6,0Z" transform="translate(749 5573.332)" fill="#6e40fb"/>
    <path id="Trazado_835873" data-name="Trazado 835873" d="M62.691,15H60.348L55.785,7.516V15H53.441V3.625h2.344l4.57,7.5v-7.5h2.336ZM67.8,3.625l2.922,8.25,2.906-8.25h3.078V15H74.355V11.891l.234-5.367L71.52,15H69.91L66.848,6.531l.234,5.359V15H64.738V3.625Zm16.852,8.391A1.2,1.2,0,0,0,84.184,11a6.148,6.148,0,0,0-1.687-.75,11.963,11.963,0,0,1-1.93-.777,3.153,3.153,0,0,1-1.937-2.82A2.747,2.747,0,0,1,79.148,5a3.389,3.389,0,0,1,1.492-1.129,5.616,5.616,0,0,1,2.184-.406A5.112,5.112,0,0,1,85,3.91a3.458,3.458,0,0,1,1.48,1.246A3.261,3.261,0,0,1,87,6.984H84.66a1.534,1.534,0,0,0-.492-1.215,2.023,2.023,0,0,0-1.383-.434,2.162,2.162,0,0,0-1.336.363,1.146,1.146,0,0,0-.477.957,1.1,1.1,0,0,0,.559.93,6.311,6.311,0,0,0,1.645.7A7.106,7.106,0,0,1,86.09,9.781,2.972,2.972,0,0,1,87,12a2.737,2.737,0,0,1-1.117,2.316,4.891,4.891,0,0,1-3.008.84,5.808,5.808,0,0,1-2.391-.48,3.783,3.783,0,0,1-1.645-1.316,3.371,3.371,0,0,1-.566-1.937h2.352q0,1.883,2.25,1.883a2.189,2.189,0,0,0,1.3-.34A1.106,1.106,0,0,0,84.652,12.016Z" transform="translate(764 5583.332)" fill="#fff"/>
    <path id="Trazado_835883" data-name="Trazado 835883" d="M6,0H163a6,6,0,0,1,6,6V33a6,6,0,0,1-6,6H6a6,6,0,0,1-6-6V6A6,6,0,0,1,6,0Z" transform="translate(518 5857.332)" fill="#6e40fb"/>
    <path id="Trazado_835884" data-name="Trazado 835884" d="M33.656,12.656H29.547L28.766,15H26.273L30.508,3.625H32.68L36.938,15H34.445Zm-3.477-1.9h2.844L31.594,6.5Zm7.344-.047a4.954,4.954,0,0,1,.926-3.133,3,3,0,0,1,2.5-1.187,2.631,2.631,0,0,1,2.164.953l.094-.8H45.25v8.172a3.613,3.613,0,0,1-.5,1.93,3.236,3.236,0,0,1-1.418,1.25,4.985,4.985,0,0,1-2.141.43,4.635,4.635,0,0,1-1.812-.371A3.217,3.217,0,0,1,38.039,17l1-1.375a2.645,2.645,0,0,0,2.047.945,1.936,1.936,0,0,0,1.4-.48,1.8,1.8,0,0,0,.5-1.363v-.453a2.612,2.612,0,0,1-2.055.883,2.992,2.992,0,0,1-2.465-1.191,4.953,4.953,0,0,1-.941-3.16Zm2.258.161a3.1,3.1,0,0,0,.461,1.809,1.465,1.465,0,0,0,1.266.655,1.567,1.567,0,0,0,1.477-.777V8.988a1.563,1.563,0,0,0-1.461-.777,1.474,1.474,0,0,0-1.277.667A3.5,3.5,0,0,0,39.781,10.872Zm11.094,4.285a4.15,4.15,0,0,1-3.027-1.141,4.054,4.054,0,0,1-1.168-3.039v-.219a5.106,5.106,0,0,1,.492-2.277,3.612,3.612,0,0,1,1.395-1.547,3.914,3.914,0,0,1,2.059-.543,3.508,3.508,0,0,1,2.73,1.094,4.444,4.444,0,0,1,1,3.1v.922H48.969a2.1,2.1,0,0,0,.66,1.328,2,2,0,0,0,1.395.5,2.437,2.437,0,0,0,2.039-.945l1.109,1.242A3.389,3.389,0,0,1,52.8,14.754,4.511,4.511,0,0,1,50.875,15.156Zm-.258-6.945a1.411,1.411,0,0,0-1.09.455,2.357,2.357,0,0,0-.535,1.3h3.141V9.788a1.681,1.681,0,0,0-.406-1.165A1.456,1.456,0,0,0,50.617,8.211Zm7.094-1.664.07.977a2.951,2.951,0,0,1,2.43-1.133,2.453,2.453,0,0,1,2,.789,3.682,3.682,0,0,1,.672,2.359V15H60.625V9.581a1.47,1.47,0,0,0-.312-1.045,1.4,1.4,0,0,0-1.039-.325,1.553,1.553,0,0,0-1.43.814V15H55.586V6.547ZM67.3,4.469V6.547h1.445V8.2H67.3v4.219a1.007,1.007,0,0,0,.18.672.9.9,0,0,0,.688.2,3.6,3.6,0,0,0,.664-.055v1.711a4.648,4.648,0,0,1-1.367.2,2.156,2.156,0,0,1-2.422-2.4V8.2H63.8V6.547h1.234V4.469Zm6.594,10.688a4.15,4.15,0,0,1-3.027-1.141A4.054,4.054,0,0,1,69.7,10.977v-.219a5.106,5.106,0,0,1,.492-2.277,3.612,3.612,0,0,1,1.395-1.547,3.914,3.914,0,0,1,2.059-.543,3.508,3.508,0,0,1,2.73,1.094,4.444,4.444,0,0,1,1,3.1v.922H71.984a2.1,2.1,0,0,0,.66,1.328,2,2,0,0,0,1.395.5,2.437,2.437,0,0,0,2.039-.945l1.109,1.242a3.389,3.389,0,0,1-1.375,1.121A4.511,4.511,0,0,1,73.891,15.156Zm-.258-6.945a1.411,1.411,0,0,0-1.09.455,2.357,2.357,0,0,0-.535,1.3h3.141V9.788a1.681,1.681,0,0,0-.406-1.165A1.456,1.456,0,0,0,73.633,8.211Z" transform="translate(569 5867.332)" fill="#fff"/>
    <path id="Trazado_835885" data-name="Trazado 835885" d="M6,0H163a6,6,0,0,1,6,6V33a6,6,0,0,1-6,6H6a6,6,0,0,1-6-6V6A6,6,0,0,1,6,0Z" transform="translate(720 5857.332)" fill="#6e40fb"/>
    <path id="Trazado_835886" data-name="Trazado 835886" d="M33.656,12.656H29.547L28.766,15H26.273L30.508,3.625H32.68L36.938,15H34.445Zm-3.477-1.9h2.844L31.594,6.5Zm7.344-.047a4.954,4.954,0,0,1,.926-3.133,3,3,0,0,1,2.5-1.187,2.631,2.631,0,0,1,2.164.953l.094-.8H45.25v8.172a3.613,3.613,0,0,1-.5,1.93,3.236,3.236,0,0,1-1.418,1.25,4.985,4.985,0,0,1-2.141.43,4.635,4.635,0,0,1-1.812-.371A3.217,3.217,0,0,1,38.039,17l1-1.375a2.645,2.645,0,0,0,2.047.945,1.936,1.936,0,0,0,1.4-.48,1.8,1.8,0,0,0,.5-1.363v-.453a2.612,2.612,0,0,1-2.055.883,2.992,2.992,0,0,1-2.465-1.191,4.953,4.953,0,0,1-.941-3.16Zm2.258.161a3.1,3.1,0,0,0,.461,1.809,1.465,1.465,0,0,0,1.266.655,1.567,1.567,0,0,0,1.477-.777V8.988a1.563,1.563,0,0,0-1.461-.777,1.474,1.474,0,0,0-1.277.667A3.5,3.5,0,0,0,39.781,10.872Zm11.094,4.285a4.15,4.15,0,0,1-3.027-1.141,4.054,4.054,0,0,1-1.168-3.039v-.219a5.106,5.106,0,0,1,.492-2.277,3.612,3.612,0,0,1,1.395-1.547,3.914,3.914,0,0,1,2.059-.543,3.508,3.508,0,0,1,2.73,1.094,4.444,4.444,0,0,1,1,3.1v.922H48.969a2.1,2.1,0,0,0,.66,1.328,2,2,0,0,0,1.395.5,2.437,2.437,0,0,0,2.039-.945l1.109,1.242A3.389,3.389,0,0,1,52.8,14.754,4.511,4.511,0,0,1,50.875,15.156Zm-.258-6.945a1.411,1.411,0,0,0-1.09.455,2.357,2.357,0,0,0-.535,1.3h3.141V9.788a1.681,1.681,0,0,0-.406-1.165A1.456,1.456,0,0,0,50.617,8.211Zm7.094-1.664.07.977a2.951,2.951,0,0,1,2.43-1.133,2.453,2.453,0,0,1,2,.789,3.682,3.682,0,0,1,.672,2.359V15H60.625V9.581a1.47,1.47,0,0,0-.312-1.045,1.4,1.4,0,0,0-1.039-.325,1.553,1.553,0,0,0-1.43.814V15H55.586V6.547ZM67.3,4.469V6.547h1.445V8.2H67.3v4.219a1.007,1.007,0,0,0,.18.672.9.9,0,0,0,.688.2,3.6,3.6,0,0,0,.664-.055v1.711a4.648,4.648,0,0,1-1.367.2,2.156,2.156,0,0,1-2.422-2.4V8.2H63.8V6.547h1.234V4.469Zm6.594,10.688a4.15,4.15,0,0,1-3.027-1.141A4.054,4.054,0,0,1,69.7,10.977v-.219a5.106,5.106,0,0,1,.492-2.277,3.612,3.612,0,0,1,1.395-1.547,3.914,3.914,0,0,1,2.059-.543,3.508,3.508,0,0,1,2.73,1.094,4.444,4.444,0,0,1,1,3.1v.922H71.984a2.1,2.1,0,0,0,.66,1.328,2,2,0,0,0,1.395.5,2.437,2.437,0,0,0,2.039-.945l1.109,1.242a3.389,3.389,0,0,1-1.375,1.121A4.511,4.511,0,0,1,73.891,15.156Zm-.258-6.945a1.411,1.411,0,0,0-1.09.455,2.357,2.357,0,0,0-.535,1.3h3.141V9.788a1.681,1.681,0,0,0-.406-1.165A1.456,1.456,0,0,0,73.633,8.211Z" transform="translate(771 5867.332)" fill="#fff"/>
    <path id="Trazado_835887" data-name="Trazado 835887" d="M6,0H163a6,6,0,0,1,6,6V33a6,6,0,0,1-6,6H6a6,6,0,0,1-6-6V6A6,6,0,0,1,6,0Z" transform="translate(922 5857.332)" fill="#6e40fb"/>
    <path id="Trazado_835888" data-name="Trazado 835888" d="M33.656,12.656H29.547L28.766,15H26.273L30.508,3.625H32.68L36.938,15H34.445Zm-3.477-1.9h2.844L31.594,6.5Zm7.344-.047a4.954,4.954,0,0,1,.926-3.133,3,3,0,0,1,2.5-1.187,2.631,2.631,0,0,1,2.164.953l.094-.8H45.25v8.172a3.613,3.613,0,0,1-.5,1.93,3.236,3.236,0,0,1-1.418,1.25,4.985,4.985,0,0,1-2.141.43,4.635,4.635,0,0,1-1.812-.371A3.217,3.217,0,0,1,38.039,17l1-1.375a2.645,2.645,0,0,0,2.047.945,1.936,1.936,0,0,0,1.4-.48,1.8,1.8,0,0,0,.5-1.363v-.453a2.612,2.612,0,0,1-2.055.883,2.992,2.992,0,0,1-2.465-1.191,4.953,4.953,0,0,1-.941-3.16Zm2.258.161a3.1,3.1,0,0,0,.461,1.809,1.465,1.465,0,0,0,1.266.655,1.567,1.567,0,0,0,1.477-.777V8.988a1.563,1.563,0,0,0-1.461-.777,1.474,1.474,0,0,0-1.277.667A3.5,3.5,0,0,0,39.781,10.872Zm11.094,4.285a4.15,4.15,0,0,1-3.027-1.141,4.054,4.054,0,0,1-1.168-3.039v-.219a5.106,5.106,0,0,1,.492-2.277,3.612,3.612,0,0,1,1.395-1.547,3.914,3.914,0,0,1,2.059-.543,3.508,3.508,0,0,1,2.73,1.094,4.444,4.444,0,0,1,1,3.1v.922H48.969a2.1,2.1,0,0,0,.66,1.328,2,2,0,0,0,1.395.5,2.437,2.437,0,0,0,2.039-.945l1.109,1.242A3.389,3.389,0,0,1,52.8,14.754,4.511,4.511,0,0,1,50.875,15.156Zm-.258-6.945a1.411,1.411,0,0,0-1.09.455,2.357,2.357,0,0,0-.535,1.3h3.141V9.788a1.681,1.681,0,0,0-.406-1.165A1.456,1.456,0,0,0,50.617,8.211Zm7.094-1.664.07.977a2.951,2.951,0,0,1,2.43-1.133,2.453,2.453,0,0,1,2,.789,3.682,3.682,0,0,1,.672,2.359V15H60.625V9.581a1.47,1.47,0,0,0-.312-1.045,1.4,1.4,0,0,0-1.039-.325,1.553,1.553,0,0,0-1.43.814V15H55.586V6.547ZM67.3,4.469V6.547h1.445V8.2H67.3v4.219a1.007,1.007,0,0,0,.18.672.9.9,0,0,0,.688.2,3.6,3.6,0,0,0,.664-.055v1.711a4.648,4.648,0,0,1-1.367.2,2.156,2.156,0,0,1-2.422-2.4V8.2H63.8V6.547h1.234V4.469Zm6.594,10.688a4.15,4.15,0,0,1-3.027-1.141A4.054,4.054,0,0,1,69.7,10.977v-.219a5.106,5.106,0,0,1,.492-2.277,3.612,3.612,0,0,1,1.395-1.547,3.914,3.914,0,0,1,2.059-.543,3.508,3.508,0,0,1,2.73,1.094,4.444,4.444,0,0,1,1,3.1v.922H71.984a2.1,2.1,0,0,0,.66,1.328,2,2,0,0,0,1.395.5,2.437,2.437,0,0,0,2.039-.945l1.109,1.242a3.389,3.389,0,0,1-1.375,1.121A4.511,4.511,0,0,1,73.891,15.156Zm-.258-6.945a1.411,1.411,0,0,0-1.09.455,2.357,2.357,0,0,0-.535,1.3h3.141V9.788a1.681,1.681,0,0,0-.406-1.165A1.456,1.456,0,0,0,73.633,8.211Z" transform="translate(973 5867.332)" fill="#fff"/>
    <path id="Trazado_834266" data-name="Trazado 834266" d="M1503.488-8855.5h-76.871" transform="translate(-8024.5 4175.82) rotate(90)" fill="none" stroke="#6e40fb" stroke-width="2"/>
    <path id="Trazado_834274" data-name="Trazado 834274" d="M1503.488-8855.5h-76.871" transform="translate(-8024.629 4359.789) rotate(90)" fill="none" stroke="#6e40fb" stroke-width="2"/>
    <path id="Trazado_835880" data-name="Trazado 835880" d="M28,0A28,28,0,1,1,0,28,28,28,0,0,1,28,0Z" transform="translate(509 5848.832)" fill="#ccbcfd"/>
    <g id="router-de-wifi" transform="translate(520 5855.833)">
      <g id="Grupo_1093044" data-name="Grupo 1093044" transform="translate(0.475 5.474)">
        <path id="Trazado_834165" data-name="Trazado 834165" d="M1.75,79.63H35.51v8.235H1.75Z" transform="translate(-1.75 -59.867)" fill="#0d70b2"/>
        <path id="Trazado_834166" data-name="Trazado 834166" d="M29.759,99.2H10.475a.475.475,0,0,1,0-.949H29.759a.475.475,0,0,1,0,.949Z" transform="translate(-7.763 -73.437)" fill="#e1e4fb"/>
        <path id="Trazado_834167" data-name="Trazado 834167" d="M29.759,88.829H10.475a.475.475,0,1,1,0-.949H29.759a.475.475,0,1,1,0,.949Z" transform="translate(-7.763 -65.88)" fill="#e1e4fb"/>
        <path id="Trazado_834168" data-name="Trazado 834168" d="M13.276,113.051a1.526,1.526,0,0,1-1.526-1.526V110H14.8v1.526A1.526,1.526,0,0,1,13.276,113.051Z" transform="translate(-9.038 -82.002)" fill="#1689fc"/>
        <path id="Trazado_834169" data-name="Trazado 834169" d="M106.525,113.051a1.526,1.526,0,0,0,1.526-1.526V110H105v1.526A1.526,1.526,0,0,0,106.525,113.051Z" transform="translate(-77.002 -82.002)" fill="#1689fc"/>
        <path id="Trazado_834170" data-name="Trazado 834170" d="M104.623,26.513h-2.831l3.89-18.66a1.385,1.385,0,1,1,2.712.565Z" transform="translate(-74.664 -6.75)" fill="#c5c9f7"/>
        <path id="Trazado_834171" data-name="Trazado 834171" d="M5.556,26.513H8.386L4.5,7.853a1.385,1.385,0,1,0-2.712.565Z" transform="translate(-1.754 -6.75)" fill="#c5c9f7"/>
        <path id="Trazado_834172" data-name="Trazado 834172" d="M97.808,92.443H94.281a1.406,1.406,0,1,1,0-2.811h3.527a1.406,1.406,0,1,1,0,2.811Z" transform="translate(-68.165 -67.157)" fill="#fedb41"/>
        <g id="Grupo_1093043" data-name="Grupo 1093043" transform="translate(9.603 4.068)">
          <circle id="Elipse_11040" data-name="Elipse 11040" cx="1.491" cy="1.491" r="1.491" transform="translate(5.787 8.609)" fill="#00ddc1"/>
          <path id="Trazado_834173" data-name="Trazado 834173" d="M51.772,43.931a.475.475,0,0,1-.335-.81,4.67,4.67,0,0,1,6.6-.007.475.475,0,1,1-.67.672,3.721,3.721,0,0,0-5.264.006A.473.473,0,0,1,51.772,43.931Z" transform="translate(-47.465 -36.327)" fill="#00ddc1"/>
          <path id="Trazado_834174" data-name="Trazado 834174" d="M44.7,34.727a.475.475,0,0,1-.335-.81,7.377,7.377,0,0,1,10.438-.007.475.475,0,1,1-.67.672,6.428,6.428,0,0,0-9.1.006.473.473,0,0,1-.336.139Z" transform="translate(-42.314 -29.039)" fill="#00ddc1"/>
          <path id="Trazado_834175" data-name="Trazado 834175" d="M37.637,25.522a.475.475,0,0,1-.336-.81,10.085,10.085,0,0,1,14.27-.007.475.475,0,1,1-.67.672,9.136,9.136,0,0,0-12.929.006A.473.473,0,0,1,37.637,25.522Z" transform="translate(-37.162 -21.751)" fill="#00ddc1"/>
        </g>
      </g>
      <g id="Grupo_1093045" data-name="Grupo 1093045" transform="translate(0 4.999)">
        <path id="Trazado_834176" data-name="Trazado 834176" d="M34.235,24.762H31.017L34.67,7.239a1.86,1.86,0,1,0-3.642-.759l-.855,4.1a.475.475,0,0,0,.929.193l.855-4.1a.911.911,0,1,1,1.783.372L30.047,24.762H28.186l.737-3.533a.475.475,0,1,0-.929-.194l-.777,3.727H7.493L3.682,6.48A1.86,1.86,0,1,0,.04,7.239L3.692,24.762H.475A.475.475,0,0,0,0,25.236v8.235a.475.475,0,0,0,.475.475H2.712V35a2,2,0,1,0,4,0V33.946h4.575a.475.475,0,0,0,0-.949H.949V25.711H33.76V33H14.385a.475.475,0,1,0,0,.949H28V35a2,2,0,0,0,4,0V33.946h2.237a.475.475,0,0,0,.475-.474V25.236a.475.475,0,0,0-.475-.475ZM5.762,33.946V35a1.051,1.051,0,0,1-2.1,0V33.946Zm-1.1-9.184L.969,7.045a.911.911,0,0,1,1.783-.372L6.523,24.762ZM31.049,35a1.051,1.051,0,0,1-2.1,0V33.946h2.1Z" transform="translate(0 -4.999)"/>
        <path id="Trazado_834177" data-name="Trazado 834177" d="M10.475,99.2H29.759a.475.475,0,0,0,0-.949H10.475a.475.475,0,0,0,0,.949Z" transform="translate(-7.288 -72.962)"/>
        <path id="Trazado_834178" data-name="Trazado 834178" d="M10.475,88.829H29.759a.475.475,0,1,0,0-.949H10.475a.475.475,0,1,0,0,.949Z" transform="translate(-7.288 -65.405)"/>
        <path id="Trazado_834179" data-name="Trazado 834179" d="M106.593,42.207a.5.5,0,0,0,.1.01.475.475,0,0,0,.464-.378l.542-2.6a.475.475,0,0,0-.929-.194l-.542,2.6A.475.475,0,0,0,106.593,42.207Z" transform="translate(-77.413 -29.535)"/>
        <path id="Trazado_834180" data-name="Trazado 834180" d="M96.532,91.641a1.88,1.88,0,1,0,0-3.761H93.005a1.88,1.88,0,1,0,0,3.761Zm-4.458-1.88a.932.932,0,0,1,.931-.931h3.527a.931.931,0,1,1,0,1.862H93.005A.932.932,0,0,1,92.074,89.76Z" transform="translate(-66.415 -65.405)"/>
        <path id="Trazado_834181" data-name="Trazado 834181" d="M56.753,53.716a1.965,1.965,0,1,0,1.965-1.966A1.965,1.965,0,0,0,56.753,53.716Zm2.981,0A1.016,1.016,0,1,1,58.718,52.7,1.016,1.016,0,0,1,59.734,53.716Z" transform="translate(-41.363 -39.073)"/>
        <path id="Trazado_834182" data-name="Trazado 834182" d="M58.045,43.785a.474.474,0,0,0,0-.671,4.67,4.67,0,0,0-6.6.007.475.475,0,1,0,.671.671,3.721,3.721,0,0,1,5.264-.006A.474.474,0,0,0,58.045,43.785Z" transform="translate(-37.391 -31.784)"/>
        <path id="Trazado_834183" data-name="Trazado 834183" d="M54.809,34.581a.475.475,0,0,0,0-.671,7.377,7.377,0,0,0-10.438.007.475.475,0,1,0,.671.671,6.428,6.428,0,0,1,9.1-.006A.474.474,0,0,0,54.809,34.581Z" transform="translate(-32.238 -24.496)"/>
        <path id="Trazado_834184" data-name="Trazado 834184" d="M37.635,25.522a.473.473,0,0,0,.335-.139,9.136,9.136,0,0,1,12.93-.006.475.475,0,1,0,.67-.672,10.085,10.085,0,0,0-14.271.007.475.475,0,0,0,.336.81Z" transform="translate(-27.084 -17.208)"/>
      </g>
    </g>
    <path id="Trazado_835881" data-name="Trazado 835881" d="M28,0A28,28,0,1,1,0,28,28,28,0,0,1,28,0Z" transform="translate(711 5848.832)" fill="#ccbcfd"/>
    <g id="router-de-wifi-2" data-name="router-de-wifi" transform="translate(722 5855.833)">
      <g id="Grupo_1093044-2" data-name="Grupo 1093044" transform="translate(0.475 5.474)">
        <path id="Trazado_834165-2" data-name="Trazado 834165" d="M1.75,79.63H35.51v8.235H1.75Z" transform="translate(-1.75 -59.867)" fill="#0d70b2"/>
        <path id="Trazado_834166-2" data-name="Trazado 834166" d="M29.759,99.2H10.475a.475.475,0,0,1,0-.949H29.759a.475.475,0,0,1,0,.949Z" transform="translate(-7.763 -73.437)" fill="#e1e4fb"/>
        <path id="Trazado_834167-2" data-name="Trazado 834167" d="M29.759,88.829H10.475a.475.475,0,1,1,0-.949H29.759a.475.475,0,1,1,0,.949Z" transform="translate(-7.763 -65.88)" fill="#e1e4fb"/>
        <path id="Trazado_834168-2" data-name="Trazado 834168" d="M13.276,113.051a1.526,1.526,0,0,1-1.526-1.526V110H14.8v1.526A1.526,1.526,0,0,1,13.276,113.051Z" transform="translate(-9.038 -82.002)" fill="#1689fc"/>
        <path id="Trazado_834169-2" data-name="Trazado 834169" d="M106.525,113.051a1.526,1.526,0,0,0,1.526-1.526V110H105v1.526A1.526,1.526,0,0,0,106.525,113.051Z" transform="translate(-77.002 -82.002)" fill="#1689fc"/>
        <path id="Trazado_834170-2" data-name="Trazado 834170" d="M104.623,26.513h-2.831l3.89-18.66a1.385,1.385,0,1,1,2.712.565Z" transform="translate(-74.664 -6.75)" fill="#c5c9f7"/>
        <path id="Trazado_834171-2" data-name="Trazado 834171" d="M5.556,26.513H8.386L4.5,7.853a1.385,1.385,0,1,0-2.712.565Z" transform="translate(-1.754 -6.75)" fill="#c5c9f7"/>
        <path id="Trazado_834172-2" data-name="Trazado 834172" d="M97.808,92.443H94.281a1.406,1.406,0,1,1,0-2.811h3.527a1.406,1.406,0,1,1,0,2.811Z" transform="translate(-68.165 -67.157)" fill="#fedb41"/>
        <g id="Grupo_1093043-2" data-name="Grupo 1093043" transform="translate(9.603 4.068)">
          <circle id="Elipse_11040-2" data-name="Elipse 11040" cx="1.491" cy="1.491" r="1.491" transform="translate(5.787 8.609)" fill="#00ddc1"/>
          <path id="Trazado_834173-2" data-name="Trazado 834173" d="M51.772,43.931a.475.475,0,0,1-.335-.81,4.67,4.67,0,0,1,6.6-.007.475.475,0,1,1-.67.672,3.721,3.721,0,0,0-5.264.006A.473.473,0,0,1,51.772,43.931Z" transform="translate(-47.465 -36.327)" fill="#00ddc1"/>
          <path id="Trazado_834174-2" data-name="Trazado 834174" d="M44.7,34.727a.475.475,0,0,1-.335-.81,7.377,7.377,0,0,1,10.438-.007.475.475,0,1,1-.67.672,6.428,6.428,0,0,0-9.1.006.473.473,0,0,1-.336.139Z" transform="translate(-42.314 -29.039)" fill="#00ddc1"/>
          <path id="Trazado_834175-2" data-name="Trazado 834175" d="M37.637,25.522a.475.475,0,0,1-.336-.81,10.085,10.085,0,0,1,14.27-.007.475.475,0,1,1-.67.672,9.136,9.136,0,0,0-12.929.006A.473.473,0,0,1,37.637,25.522Z" transform="translate(-37.162 -21.751)" fill="#00ddc1"/>
        </g>
      </g>
      <g id="Grupo_1093045-2" data-name="Grupo 1093045" transform="translate(0 4.999)">
        <path id="Trazado_834176-2" data-name="Trazado 834176" d="M34.235,24.762H31.017L34.67,7.239a1.86,1.86,0,1,0-3.642-.759l-.855,4.1a.475.475,0,0,0,.929.193l.855-4.1a.911.911,0,1,1,1.783.372L30.047,24.762H28.186l.737-3.533a.475.475,0,1,0-.929-.194l-.777,3.727H7.493L3.682,6.48A1.86,1.86,0,1,0,.04,7.239L3.692,24.762H.475A.475.475,0,0,0,0,25.236v8.235a.475.475,0,0,0,.475.475H2.712V35a2,2,0,1,0,4,0V33.946h4.575a.475.475,0,0,0,0-.949H.949V25.711H33.76V33H14.385a.475.475,0,1,0,0,.949H28V35a2,2,0,0,0,4,0V33.946h2.237a.475.475,0,0,0,.475-.474V25.236a.475.475,0,0,0-.475-.475ZM5.762,33.946V35a1.051,1.051,0,0,1-2.1,0V33.946Zm-1.1-9.184L.969,7.045a.911.911,0,0,1,1.783-.372L6.523,24.762ZM31.049,35a1.051,1.051,0,0,1-2.1,0V33.946h2.1Z" transform="translate(0 -4.999)"/>
        <path id="Trazado_834177-2" data-name="Trazado 834177" d="M10.475,99.2H29.759a.475.475,0,0,0,0-.949H10.475a.475.475,0,0,0,0,.949Z" transform="translate(-7.288 -72.962)"/>
        <path id="Trazado_834178-2" data-name="Trazado 834178" d="M10.475,88.829H29.759a.475.475,0,1,0,0-.949H10.475a.475.475,0,1,0,0,.949Z" transform="translate(-7.288 -65.405)"/>
        <path id="Trazado_834179-2" data-name="Trazado 834179" d="M106.593,42.207a.5.5,0,0,0,.1.01.475.475,0,0,0,.464-.378l.542-2.6a.475.475,0,0,0-.929-.194l-.542,2.6A.475.475,0,0,0,106.593,42.207Z" transform="translate(-77.413 -29.535)"/>
        <path id="Trazado_834180-2" data-name="Trazado 834180" d="M96.532,91.641a1.88,1.88,0,1,0,0-3.761H93.005a1.88,1.88,0,1,0,0,3.761Zm-4.458-1.88a.932.932,0,0,1,.931-.931h3.527a.931.931,0,1,1,0,1.862H93.005A.932.932,0,0,1,92.074,89.76Z" transform="translate(-66.415 -65.405)"/>
        <path id="Trazado_834181-2" data-name="Trazado 834181" d="M56.753,53.716a1.965,1.965,0,1,0,1.965-1.966A1.965,1.965,0,0,0,56.753,53.716Zm2.981,0A1.016,1.016,0,1,1,58.718,52.7,1.016,1.016,0,0,1,59.734,53.716Z" transform="translate(-41.363 -39.073)"/>
        <path id="Trazado_834182-2" data-name="Trazado 834182" d="M58.045,43.785a.474.474,0,0,0,0-.671,4.67,4.67,0,0,0-6.6.007.475.475,0,1,0,.671.671,3.721,3.721,0,0,1,5.264-.006A.474.474,0,0,0,58.045,43.785Z" transform="translate(-37.391 -31.784)"/>
        <path id="Trazado_834183-2" data-name="Trazado 834183" d="M54.809,34.581a.475.475,0,0,0,0-.671,7.377,7.377,0,0,0-10.438.007.475.475,0,1,0,.671.671,6.428,6.428,0,0,1,9.1-.006A.474.474,0,0,0,54.809,34.581Z" transform="translate(-32.238 -24.496)"/>
        <path id="Trazado_834184-2" data-name="Trazado 834184" d="M37.635,25.522a.473.473,0,0,0,.335-.139,9.136,9.136,0,0,1,12.93-.006.475.475,0,1,0,.67-.672,10.085,10.085,0,0,0-14.271.007.475.475,0,0,0,.336.81Z" transform="translate(-27.084 -17.208)"/>
      </g>
    </g>
    <path id="Trazado_835882" data-name="Trazado 835882" d="M28,0A28,28,0,1,1,0,28,28,28,0,0,1,28,0Z" transform="translate(913 5848.832)" fill="#ccbcfd"/>
    <g id="router-de-wifi-3" data-name="router-de-wifi" transform="translate(924 5855.833)">
      <g id="Grupo_1093044-3" data-name="Grupo 1093044" transform="translate(0.475 5.474)">
        <path id="Trazado_834165-3" data-name="Trazado 834165" d="M1.75,79.63H35.51v8.235H1.75Z" transform="translate(-1.75 -59.867)" fill="#0d70b2"/>
        <path id="Trazado_834166-3" data-name="Trazado 834166" d="M29.759,99.2H10.475a.475.475,0,0,1,0-.949H29.759a.475.475,0,0,1,0,.949Z" transform="translate(-7.763 -73.437)" fill="#e1e4fb"/>
        <path id="Trazado_834167-3" data-name="Trazado 834167" d="M29.759,88.829H10.475a.475.475,0,1,1,0-.949H29.759a.475.475,0,1,1,0,.949Z" transform="translate(-7.763 -65.88)" fill="#e1e4fb"/>
        <path id="Trazado_834168-3" data-name="Trazado 834168" d="M13.276,113.051a1.526,1.526,0,0,1-1.526-1.526V110H14.8v1.526A1.526,1.526,0,0,1,13.276,113.051Z" transform="translate(-9.038 -82.002)" fill="#1689fc"/>
        <path id="Trazado_834169-3" data-name="Trazado 834169" d="M106.525,113.051a1.526,1.526,0,0,0,1.526-1.526V110H105v1.526A1.526,1.526,0,0,0,106.525,113.051Z" transform="translate(-77.002 -82.002)" fill="#1689fc"/>
        <path id="Trazado_834170-3" data-name="Trazado 834170" d="M104.623,26.513h-2.831l3.89-18.66a1.385,1.385,0,1,1,2.712.565Z" transform="translate(-74.664 -6.75)" fill="#c5c9f7"/>
        <path id="Trazado_834171-3" data-name="Trazado 834171" d="M5.556,26.513H8.386L4.5,7.853a1.385,1.385,0,1,0-2.712.565Z" transform="translate(-1.754 -6.75)" fill="#c5c9f7"/>
        <path id="Trazado_834172-3" data-name="Trazado 834172" d="M97.808,92.443H94.281a1.406,1.406,0,1,1,0-2.811h3.527a1.406,1.406,0,1,1,0,2.811Z" transform="translate(-68.165 -67.157)" fill="#fedb41"/>
        <g id="Grupo_1093043-3" data-name="Grupo 1093043" transform="translate(9.603 4.068)">
          <circle id="Elipse_11040-3" data-name="Elipse 11040" cx="1.491" cy="1.491" r="1.491" transform="translate(5.787 8.609)" fill="#00ddc1"/>
          <path id="Trazado_834173-3" data-name="Trazado 834173" d="M51.772,43.931a.475.475,0,0,1-.335-.81,4.67,4.67,0,0,1,6.6-.007.475.475,0,1,1-.67.672,3.721,3.721,0,0,0-5.264.006A.473.473,0,0,1,51.772,43.931Z" transform="translate(-47.465 -36.327)" fill="#00ddc1"/>
          <path id="Trazado_834174-3" data-name="Trazado 834174" d="M44.7,34.727a.475.475,0,0,1-.335-.81,7.377,7.377,0,0,1,10.438-.007.475.475,0,1,1-.67.672,6.428,6.428,0,0,0-9.1.006.473.473,0,0,1-.336.139Z" transform="translate(-42.314 -29.039)" fill="#00ddc1"/>
          <path id="Trazado_834175-3" data-name="Trazado 834175" d="M37.637,25.522a.475.475,0,0,1-.336-.81,10.085,10.085,0,0,1,14.27-.007.475.475,0,1,1-.67.672,9.136,9.136,0,0,0-12.929.006A.473.473,0,0,1,37.637,25.522Z" transform="translate(-37.162 -21.751)" fill="#00ddc1"/>
        </g>
      </g>
      <g id="Grupo_1093045-3" data-name="Grupo 1093045" transform="translate(0 4.999)">
        <path id="Trazado_834176-3" data-name="Trazado 834176" d="M34.235,24.762H31.017L34.67,7.239a1.86,1.86,0,1,0-3.642-.759l-.855,4.1a.475.475,0,0,0,.929.193l.855-4.1a.911.911,0,1,1,1.783.372L30.047,24.762H28.186l.737-3.533a.475.475,0,1,0-.929-.194l-.777,3.727H7.493L3.682,6.48A1.86,1.86,0,1,0,.04,7.239L3.692,24.762H.475A.475.475,0,0,0,0,25.236v8.235a.475.475,0,0,0,.475.475H2.712V35a2,2,0,1,0,4,0V33.946h4.575a.475.475,0,0,0,0-.949H.949V25.711H33.76V33H14.385a.475.475,0,1,0,0,.949H28V35a2,2,0,0,0,4,0V33.946h2.237a.475.475,0,0,0,.475-.474V25.236a.475.475,0,0,0-.475-.475ZM5.762,33.946V35a1.051,1.051,0,0,1-2.1,0V33.946Zm-1.1-9.184L.969,7.045a.911.911,0,0,1,1.783-.372L6.523,24.762ZM31.049,35a1.051,1.051,0,0,1-2.1,0V33.946h2.1Z" transform="translate(0 -4.999)"/>
        <path id="Trazado_834177-3" data-name="Trazado 834177" d="M10.475,99.2H29.759a.475.475,0,0,0,0-.949H10.475a.475.475,0,0,0,0,.949Z" transform="translate(-7.288 -72.962)"/>
        <path id="Trazado_834178-3" data-name="Trazado 834178" d="M10.475,88.829H29.759a.475.475,0,1,0,0-.949H10.475a.475.475,0,1,0,0,.949Z" transform="translate(-7.288 -65.405)"/>
        <path id="Trazado_834179-3" data-name="Trazado 834179" d="M106.593,42.207a.5.5,0,0,0,.1.01.475.475,0,0,0,.464-.378l.542-2.6a.475.475,0,0,0-.929-.194l-.542,2.6A.475.475,0,0,0,106.593,42.207Z" transform="translate(-77.413 -29.535)"/>
        <path id="Trazado_834180-3" data-name="Trazado 834180" d="M96.532,91.641a1.88,1.88,0,1,0,0-3.761H93.005a1.88,1.88,0,1,0,0,3.761Zm-4.458-1.88a.932.932,0,0,1,.931-.931h3.527a.931.931,0,1,1,0,1.862H93.005A.932.932,0,0,1,92.074,89.76Z" transform="translate(-66.415 -65.405)"/>
        <path id="Trazado_834181-3" data-name="Trazado 834181" d="M56.753,53.716a1.965,1.965,0,1,0,1.965-1.966A1.965,1.965,0,0,0,56.753,53.716Zm2.981,0A1.016,1.016,0,1,1,58.718,52.7,1.016,1.016,0,0,1,59.734,53.716Z" transform="translate(-41.363 -39.073)"/>
        <path id="Trazado_834182-3" data-name="Trazado 834182" d="M58.045,43.785a.474.474,0,0,0,0-.671,4.67,4.67,0,0,0-6.6.007.475.475,0,1,0,.671.671,3.721,3.721,0,0,1,5.264-.006A.474.474,0,0,0,58.045,43.785Z" transform="translate(-37.391 -31.784)"/>
        <path id="Trazado_834183-3" data-name="Trazado 834183" d="M54.809,34.581a.475.475,0,0,0,0-.671,7.377,7.377,0,0,0-10.438.007.475.475,0,1,0,.671.671,6.428,6.428,0,0,1,9.1-.006A.474.474,0,0,0,54.809,34.581Z" transform="translate(-32.238 -24.496)"/>
        <path id="Trazado_834184-3" data-name="Trazado 834184" d="M37.635,25.522a.473.473,0,0,0,.335-.139,9.136,9.136,0,0,1,12.93-.006.475.475,0,1,0,.67-.672,10.085,10.085,0,0,0-14.271.007.475.475,0,0,0,.336.81Z" transform="translate(-27.084 -17.208)"/>
      </g>
    </g>
    <path id="Trazado_835874" data-name="Trazado 835874" d="M7.691,9.93A7.053,7.053,0,0,1,4.883,8.566,2.6,2.6,0,0,1,4,6.57,2.751,2.751,0,0,1,5.078,4.348a4.269,4.269,0,0,1,2.793-.879,4.66,4.66,0,0,1,2.09.453,3.436,3.436,0,0,1,1.422,1.25,3.2,3.2,0,0,1,.5,1.742H10.379a2.08,2.08,0,0,0-.656-1.627A2.669,2.669,0,0,0,7.871,4.7a2.732,2.732,0,0,0-1.73.489A1.632,1.632,0,0,0,5.52,6.542a1.468,1.468,0,0,0,.59,1.178,5.785,5.785,0,0,0,2.008.88,9.316,9.316,0,0,1,2.219.88A3.367,3.367,0,0,1,11.523,10.6a2.861,2.861,0,0,1,.387,1.508,2.658,2.658,0,0,1-1.078,2.215,4.6,4.6,0,0,1-2.883.832,5.347,5.347,0,0,1-2.187-.449A3.681,3.681,0,0,1,4.2,13.477,3,3,0,0,1,3.645,11.7H5.152a1.959,1.959,0,0,0,.762,1.629,3.207,3.207,0,0,0,2.035.6,2.948,2.948,0,0,0,1.82-.484,1.573,1.573,0,0,0,.633-1.32,1.545,1.545,0,0,0-.586-1.293A6.755,6.755,0,0,0,7.691,9.93ZM22.574,15H21.066L15.34,6.234V15H13.832V3.625H15.34l5.742,8.8v-8.8h1.492Zm4.6-11.375,3.719,9.281,3.719-9.281h1.945V15h-1.5V10.57L35.2,5.789,31.465,15H30.316L26.59,5.813l.148,4.758V15h-1.5V3.625Zm13.531,6.922V15h-1.5V3.625h4.2a4.215,4.215,0,0,1,2.926.953A3.231,3.231,0,0,1,47.387,7.1a3.189,3.189,0,0,1-1.035,2.551,4.4,4.4,0,0,1-2.965.895Zm0-1.227h2.7a2.7,2.7,0,0,0,1.844-.567,2.075,2.075,0,0,0,.641-1.64,2.143,2.143,0,0,0-.641-1.628,2.525,2.525,0,0,0-1.758-.634H40.707Z" transform="translate(838 5641.254)" fill="#12263f"/>
    <path id="Trazado_835889" data-name="Trazado 835889" d="M7.691,9.93A7.053,7.053,0,0,1,4.883,8.566,2.6,2.6,0,0,1,4,6.57,2.751,2.751,0,0,1,5.078,4.348a4.269,4.269,0,0,1,2.793-.879,4.66,4.66,0,0,1,2.09.453,3.436,3.436,0,0,1,1.422,1.25,3.2,3.2,0,0,1,.5,1.742H10.379a2.08,2.08,0,0,0-.656-1.627A2.669,2.669,0,0,0,7.871,4.7a2.732,2.732,0,0,0-1.73.489A1.632,1.632,0,0,0,5.52,6.542a1.468,1.468,0,0,0,.59,1.178,5.785,5.785,0,0,0,2.008.88,9.316,9.316,0,0,1,2.219.88A3.367,3.367,0,0,1,11.523,10.6a2.861,2.861,0,0,1,.387,1.508,2.658,2.658,0,0,1-1.078,2.215,4.6,4.6,0,0,1-2.883.832,5.347,5.347,0,0,1-2.187-.449A3.681,3.681,0,0,1,4.2,13.477,3,3,0,0,1,3.645,11.7H5.152a1.959,1.959,0,0,0,.762,1.629,3.207,3.207,0,0,0,2.035.6,2.948,2.948,0,0,0,1.82-.484,1.573,1.573,0,0,0,.633-1.32,1.545,1.545,0,0,0-.586-1.293A6.755,6.755,0,0,0,7.691,9.93ZM22.574,15H21.066L15.34,6.234V15H13.832V3.625H15.34l5.742,8.8v-8.8h1.492Zm4.6-11.375,3.719,9.281,3.719-9.281h1.945V15h-1.5V10.57L35.2,5.789,31.465,15H30.316L26.59,5.813l.148,4.758V15h-1.5V3.625Zm13.531,6.922V15h-1.5V3.625h4.2a4.215,4.215,0,0,1,2.926.953A3.231,3.231,0,0,1,47.387,7.1a3.189,3.189,0,0,1-1.035,2.551,4.4,4.4,0,0,1-2.965.895Zm0-1.227h2.7a2.7,2.7,0,0,0,1.844-.567,2.075,2.075,0,0,0,.641-1.64,2.143,2.143,0,0,0-.641-1.628,2.525,2.525,0,0,0-1.758-.634H40.707Z" transform="translate(944 5791.254)" fill="#12263f"/>
    <path id="Trazado_835879" data-name="Trazado 835879" d="M7.691,9.93A7.053,7.053,0,0,1,4.883,8.566,2.6,2.6,0,0,1,4,6.57,2.751,2.751,0,0,1,5.078,4.348a4.269,4.269,0,0,1,2.793-.879,4.66,4.66,0,0,1,2.09.453,3.436,3.436,0,0,1,1.422,1.25,3.2,3.2,0,0,1,.5,1.742H10.379a2.08,2.08,0,0,0-.656-1.627A2.669,2.669,0,0,0,7.871,4.7a2.732,2.732,0,0,0-1.73.489A1.632,1.632,0,0,0,5.52,6.542a1.468,1.468,0,0,0,.59,1.178,5.785,5.785,0,0,0,2.008.88,9.316,9.316,0,0,1,2.219.88A3.367,3.367,0,0,1,11.523,10.6a2.861,2.861,0,0,1,.387,1.508,2.658,2.658,0,0,1-1.078,2.215,4.6,4.6,0,0,1-2.883.832,5.347,5.347,0,0,1-2.187-.449A3.681,3.681,0,0,1,4.2,13.477,3,3,0,0,1,3.645,11.7H5.152a1.959,1.959,0,0,0,.762,1.629,3.207,3.207,0,0,0,2.035.6,2.948,2.948,0,0,0,1.82-.484,1.573,1.573,0,0,0,.633-1.32,1.545,1.545,0,0,0-.586-1.293A6.755,6.755,0,0,0,7.691,9.93ZM22.574,15H21.066L15.34,6.234V15H13.832V3.625H15.34l5.742,8.8v-8.8h1.492Zm4.6-11.375,3.719,9.281,3.719-9.281h1.945V15h-1.5V10.57L35.2,5.789,31.465,15H30.316L26.59,5.813l.148,4.758V15h-1.5V3.625Zm13.531,6.922V15h-1.5V3.625h4.2a4.215,4.215,0,0,1,2.926.953A3.231,3.231,0,0,1,47.387,7.1a3.189,3.189,0,0,1-1.035,2.551,4.4,4.4,0,0,1-2.965.895Zm0-1.227h2.7a2.7,2.7,0,0,0,1.844-.567,2.075,2.075,0,0,0,.641-1.64,2.143,2.143,0,0,0-.641-1.628,2.525,2.525,0,0,0-1.758-.634H40.707Z" transform="translate(843 5815.254)" fill="#12263f"/>
    <path id="Trazado_835878" data-name="Trazado 835878" d="M7.691,9.93A7.053,7.053,0,0,1,4.883,8.566,2.6,2.6,0,0,1,4,6.57,2.751,2.751,0,0,1,5.078,4.348a4.269,4.269,0,0,1,2.793-.879,4.66,4.66,0,0,1,2.09.453,3.436,3.436,0,0,1,1.422,1.25,3.2,3.2,0,0,1,.5,1.742H10.379a2.08,2.08,0,0,0-.656-1.627A2.669,2.669,0,0,0,7.871,4.7a2.732,2.732,0,0,0-1.73.489A1.632,1.632,0,0,0,5.52,6.542a1.468,1.468,0,0,0,.59,1.178,5.785,5.785,0,0,0,2.008.88,9.316,9.316,0,0,1,2.219.88A3.367,3.367,0,0,1,11.523,10.6a2.861,2.861,0,0,1,.387,1.508,2.658,2.658,0,0,1-1.078,2.215,4.6,4.6,0,0,1-2.883.832,5.347,5.347,0,0,1-2.187-.449A3.681,3.681,0,0,1,4.2,13.477,3,3,0,0,1,3.645,11.7H5.152a1.959,1.959,0,0,0,.762,1.629,3.207,3.207,0,0,0,2.035.6,2.948,2.948,0,0,0,1.82-.484,1.573,1.573,0,0,0,.633-1.32,1.545,1.545,0,0,0-.586-1.293A6.755,6.755,0,0,0,7.691,9.93ZM22.574,15H21.066L15.34,6.234V15H13.832V3.625H15.34l5.742,8.8v-8.8h1.492Zm4.6-11.375,3.719,9.281,3.719-9.281h1.945V15h-1.5V10.57L35.2,5.789,31.465,15H30.316L26.59,5.813l.148,4.758V15h-1.5V3.625Zm13.531,6.922V15h-1.5V3.625h4.2a4.215,4.215,0,0,1,2.926.953A3.231,3.231,0,0,1,47.387,7.1a3.189,3.189,0,0,1-1.035,2.551,4.4,4.4,0,0,1-2.965.895Zm0-1.227h2.7a2.7,2.7,0,0,0,1.844-.567,2.075,2.075,0,0,0,.641-1.64,2.143,2.143,0,0,0-.641-1.628,2.525,2.525,0,0,0-1.758-.634H40.707Z" transform="translate(678 5791.254)" fill="#12263f"/>
    <path id="Trazado_834268" data-name="Trazado 834268" d="M165.268,117.128a30.149,30.149,0,0,0-27.93-40.785,29.828,29.828,0,0,0-26.164,15.566,23.034,23.034,0,0,0-9.513-2.043A23.354,23.354,0,0,0,78.4,113.308a23.786,23.786,0,0,0,.3,3.749A13.317,13.317,0,0,0,69,129.9h0A13.277,13.277,0,0,0,82.23,143.228h79.257A13.277,13.277,0,0,0,174.714,129.9h0A13.32,13.32,0,0,0,165.268,117.128Z" transform="translate(709.013 5605.94)" fill="#6e40fb"/>
    <path id="Trazado_835876" data-name="Trazado 835876" d="M0,0V15.45" transform="translate(830.871 5758.202)" fill="none" stroke="#6e40fb" stroke-linecap="round" stroke-width="2"/>
    <path id="Trazado_835877" data-name="Trazado 835877" d="M6.19,0A6.237,6.237,0,1,1,0,6.237,6.214,6.214,0,0,1,6.19,0Z" transform="translate(824.681 5773.932)" fill="none" stroke="#6e40fb" stroke-linecap="round" stroke-width="2"/>
    <g id="Grupo_1093071" data-name="Grupo 1093071" transform="translate(850.198 5758.202)">
      <ellipse id="Elipse_11045" data-name="Elipse 11045" cx="6.19" cy="6.237" rx="6.19" ry="6.237" transform="translate(9.462 10.135)" fill="none" stroke="#6e40fb" stroke-linecap="round" stroke-linejoin="round" stroke-miterlimit="10" stroke-width="2"/>
      <path id="Trazado_834269" data-name="Trazado 834269" d="M338.154,375.219V386L347,391.591" transform="translate(-338.154 -375.219)" fill="none" stroke="#6e40fb" stroke-linecap="round" stroke-linejoin="round" stroke-miterlimit="10" stroke-width="2"/>
    </g>
    <g id="Grupo_1093072" data-name="Grupo 1093072" transform="translate(789.702 5758.202)">
      <ellipse id="Elipse_11046" data-name="Elipse 11046" cx="6.19" cy="6.237" rx="6.19" ry="6.237" transform="translate(0 10.135)" fill="none" stroke="#6e40fb" stroke-linecap="round" stroke-linejoin="round" stroke-miterlimit="10" stroke-width="2"/>
      <path id="Trazado_834270" data-name="Trazado 834270" d="M145.082,375.219V386l-8.848,5.594" transform="translate(-123.24 -375.219)" fill="none" stroke="#6e40fb" stroke-linecap="round" stroke-linejoin="round" stroke-miterlimit="10" stroke-width="2"/>
    </g>
    <path id="Trazado_835875" data-name="Trazado 835875" d="M2.93,17H1.43V5.625h1.5Zm4.242-4.453V17h-1.5V5.625h4.2a4.215,4.215,0,0,1,2.926.953A3.231,3.231,0,0,1,13.852,9.1a3.189,3.189,0,0,1-1.035,2.551,4.4,4.4,0,0,1-2.965.895Zm0-1.227h2.7a2.7,2.7,0,0,0,1.844-.567,2.075,2.075,0,0,0,.641-1.64,2.143,2.143,0,0,0-.641-1.628,2.525,2.525,0,0,0-1.758-.634H7.172ZM27.359,17H25.938L21.875,8.172,20.344,17H18.867L20.844,5.625h1.422l4.07,8.867,1.539-8.867h1.461Zm6.086.156a3.048,3.048,0,0,1-2.469-1.164,4.006,4.006,0,0,1-.75-2.9l.039-.336a5.624,5.624,0,0,1,.746-2.3,4.339,4.339,0,0,1,1.5-1.566,3.491,3.491,0,0,1,1.906-.5,2.688,2.688,0,0,1,2.047.867,3.566,3.566,0,0,1,.813,2.266,6.621,6.621,0,0,1-.031,1.016l-.086.648H31.633a2.856,2.856,0,0,0,.379,1.953,1.8,1.8,0,0,0,1.551.836,3.007,3.007,0,0,0,2.313-1.125l.813.688a3.718,3.718,0,0,1-1.371,1.2A3.886,3.886,0,0,1,33.445,17.156Zm.9-7.586a2.066,2.066,0,0,0-1.527.594A4.22,4.22,0,0,0,31.781,12l4.109.008.031-.125a2.313,2.313,0,0,0-.316-1.637A1.488,1.488,0,0,0,34.344,9.57ZM41.82,6.5l-.359,2.047H43l-.2,1.117H41.273l-.883,5.258a1.833,1.833,0,0,0-.008.375.6.6,0,0,0,.664.609,4.05,4.05,0,0,0,.688-.078l-.109,1.18a3.847,3.847,0,0,1-1.031.141,1.476,1.476,0,0,1-1.266-.621A2.4,2.4,0,0,1,39,14.9l.859-5.234H38.367l.2-1.117h1.492L40.414,6.5Zm9,8.5,2.7-6.453h1.461L51.125,17H49.977L49.1,10.609,46.055,17H44.906l-.914-8.453h1.352l.516,6.3,3-6.3H50Zm8.852-6.609a3.047,3.047,0,0,1,1.82.578,3.285,3.285,0,0,1,1.121,1.551,4.8,4.8,0,0,1,.246,2.16l-.016.172a5.685,5.685,0,0,1-.734,2.23,4.309,4.309,0,0,1-1.516,1.551,3.7,3.7,0,0,1-2.039.523,3.052,3.052,0,0,1-1.816-.578,3.21,3.21,0,0,1-1.113-1.531,4.931,4.931,0,0,1-.25-2.133,5.76,5.76,0,0,1,.711-2.359,4.409,4.409,0,0,1,1.527-1.621A3.652,3.652,0,0,1,59.672,8.391ZM56.8,12.922a4.8,4.8,0,0,0,0,1.023,2.507,2.507,0,0,0,.551,1.469,1.653,1.653,0,0,0,1.262.57,2.253,2.253,0,0,0,1.3-.348,2.919,2.919,0,0,0,1-1.121,4.721,4.721,0,0,0,.523-1.664,7.494,7.494,0,0,0,.023-1.211,2.6,2.6,0,0,0-.57-1.492,1.69,1.69,0,0,0-1.266-.578,2.3,2.3,0,0,0-1.859.859,4.245,4.245,0,0,0-.945,2.313ZM69.164,9.836l-.664-.07a2.42,2.42,0,0,0-2.141,1.227L65.32,17H63.906l1.469-8.453,1.367-.008-.211.984a2.527,2.527,0,0,1,2.117-1.148,2.594,2.594,0,0,1,.672.117Zm3.1,3.266-1.109.992L70.656,17H69.242L71.328,5h1.414l-1.25,7.172.867-.875,3-2.75H77.2l-3.883,3.6L75.984,17H74.438Z" transform="translate(790 5722.254)" fill="#fff"/>
    <path id="Trazado_834271" data-name="Trazado 834271" d="M191.271,128.145a38.293,38.293,0,0,0-35.474-51.8,37.885,37.885,0,0,0-33.231,19.771,29.256,29.256,0,0,0-12.082-2.595,29.663,29.663,0,0,0-29.55,29.774,30.212,30.212,0,0,0,.376,4.762A16.914,16.914,0,0,0,69,144.37h0A16.863,16.863,0,0,0,85.8,161.3H186.47a16.863,16.863,0,0,0,16.8-16.926h0A16.918,16.918,0,0,0,191.271,128.145Z" transform="translate(694.735 5596.906)" fill="none" stroke="#6e40fb" stroke-width="2"/>
    <path id="Trazado_834272" data-name="Trazado 834272" d="M1421.006-5990.561l-174.018,79.924" transform="translate(-630 11768.563)" fill="none" stroke="#6e40fb" stroke-linecap="round" stroke-width="2"/>
    <path id="Trazado_834273" data-name="Trazado 834273" d="M1246.988-5990.561l174.018,79.924" transform="translate(-374.988 11770.729)" fill="none" stroke="#6e40fb" stroke-linecap="round" stroke-width="2"/>
    <g id="Grupo_1093079" data-name="Grupo 1093079" transform="translate(780 5482.251)">
      <path id="Trazado_834234" data-name="Trazado 834234" d="M18.032,8.724s.543,8.507-1.994,13.023-4.467,6.376-5.144,11.281c0,0,21.279,6.348,42.588-.715L45.111,8.724Z" transform="translate(3.091 2.474)" fill="#412424"/>
      <path id="Trazado_834235" data-name="Trazado 834235" d="M43.494,1.457s-19.937-5.4-25.574,4.6C13.829,13.305,18.662,26.438,28,30.139c8.9,3.525,6.373-25.47,6.373-25.47Z" transform="translate(4.668 0)" fill="#412424"/>
      <path id="Trazado_834236" data-name="Trazado 834236" d="M36.042,16.062a4.35,4.35,0,1,0,4.7-3.969,4.349,4.349,0,0,0-4.7,3.969" transform="translate(10.22 3.425)" fill="#dea888"/>
      <path id="Trazado_834237" data-name="Trazado 834237" d="M37.133,25.843l-.739,9.452c-.253,3.32-2.434,4.938-5.7,4.664-2.788-.235-5.285-1.893-5.4-4.689L27.177,20.45Z" transform="translate(7.176 5.801)" fill="#edbc9c"/>
      <path id="Trazado_834238" data-name="Trazado 834238" d="M36.523,32.165,25.612,22.231l11.526,2.139Z" transform="translate(7.265 6.306)" fill="#dea888"/>
      <path id="Trazado_834239" data-name="Trazado 834239" d="M34.8,32.6h0c5.589.1,10.269-4.236,10.5-8.8l.487-10.766A10.611,10.611,0,0,0,36.083,1.918c-5.841-.493-12,3.756-12.489,9.6l-.3,8.662c-.23,6.7,4.823,11.858,11.5,12.421" transform="translate(6.607 0.533)" fill="#edbc9c"/>
      <path id="Trazado_834240" data-name="Trazado 834240" d="M30.876,5.73c2.022,4.875-4.121,12.349-4.121,12.349l-7.4-8.889S29.445,2.28,30.876,5.73" transform="translate(5.492 1.351)" fill="#412424"/>
      <path id="Trazado_834241" data-name="Trazado 834241" d="M19.248,15.994a4.35,4.35,0,1,0,4.7-3.969,4.349,4.349,0,0,0-4.7,3.969" transform="translate(5.456 3.406)" fill="#edbc9c"/>
      <path id="Trazado_834242" data-name="Trazado 834242" d="M24.332,17.145S24.6,14,21.55,14.244" transform="translate(6.113 4.036)" fill="none" stroke="#1f2326" stroke-linecap="round" stroke-linejoin="round" stroke-width="0.539"/>
      <path id="Trazado_834243" data-name="Trazado 834243" d="M36.259,16.709l.2,1.94L35,18.706" transform="translate(9.928 4.739)" fill="none" stroke="#1f2326" stroke-linecap="round" stroke-linejoin="round" stroke-width="0.539"/>
      <path id="Trazado_834244" data-name="Trazado 834244" d="M31.352,11.067s2.415-.211,2.442.8c0,0,0,.687-2.108.828s-2.655-.017-2.848-.661,1.382-.963,2.515-.972" transform="translate(8.176 3.134)" fill="#1f2326"/>
      <path id="Trazado_834245" data-name="Trazado 834245" d="M39.135,11.274s-1.994-.208-2.154.746c0,0-.094.646,1.652.788s2.313-.09,2.476-.611c.186-.59-1.027-.91-1.974-.923" transform="translate(10.49 3.192)" fill="#1f2326"/>
      <path id="Trazado_834246" data-name="Trazado 834246" d="M37.55,15.272a1.014,1.014,0,1,0,1.044-1.014,1.034,1.034,0,0,0-1.044,1.014" transform="translate(10.652 4.044)" fill="#1f2326"/>
      <path id="Trazado_834247" data-name="Trazado 834247" d="M30.631,15.051a1.014,1.014,0,1,0,1.044-1.014,1.034,1.034,0,0,0-1.044,1.014" transform="translate(8.689 3.981)" fill="#1f2326"/>
      <path id="Trazado_834248" data-name="Trazado 834248" d="M38.6,19.829h-7.35a4.676,4.676,0,0,0,4.189,2.284A2.991,2.991,0,0,0,38.6,19.829" transform="translate(8.866 5.624)" fill="#fff"/>
      <path id="Trazado_834249" data-name="Trazado 834249" d="M28.717,6.956s4.4,7.511,18.495,4.875c0,0,3.429-7.693-5.467-10.5S22.621,3.267,22.621,3.267V9.592Z" transform="translate(6.417 0.125)" fill="#412424"/>
      <path id="Trazado_834250" data-name="Trazado 834250" d="M36.619,33.113s12.607,2.99,14.83,19.662L43.362,59.7Z" transform="translate(10.388 9.392)" fill="#808dff"/>
      <path id="Trazado_834251" data-name="Trazado 834251" d="M54.38,76.89c-.227-.374-.082,2.7-.221,2.285a177.307,177.307,0,0,1-9.307-19.749c-1.421-3.42.494-13.881,4.185-14.173,2.71-.214,5.928,4.839,6.574,7.48l6.73,16.926Z" transform="translate(12.59 12.834)" fill="#edbc9c"/>
      <path id="Trazado_834252" data-name="Trazado 834252" d="M54.442,68.543,80.676,54.4l2.416,2.669L61.9,78.089a6.1,6.1,0,1,1-7.454-9.547" transform="translate(14.6 15.43)" fill="#edbc9c"/>
      <path id="Trazado_834253" data-name="Trazado 834253" d="M84.384,53.952c1.764,2.33.851,5.992-2.038,8.178s-6.66,2.069-8.423-.261-.851-5.992,2.037-8.178,6.661-2.069,8.425.261" transform="translate(20.714 14.785)" fill="#edbc9c"/>
      <path id="Trazado_834254" data-name="Trazado 834254" d="M16.425,83.081c1.064.021,32.143-.359,32.143-.359l-2.313-45.9L23.276,40.731Z" transform="translate(4.659 10.443)" fill="#fff"/>
      <path id="Trazado_834255" data-name="Trazado 834255" d="M22.108,33.1l9.221-1.616,6.809,1.228L43.4,43.407s1.575,4.9-6.816,5.672-14.22-5.128-15.618-8.78,1.14-7.2,1.14-7.2" transform="translate(5.829 8.93)" fill="#edbc9c"/>
      <path id="Trazado_834256" data-name="Trazado 834256" d="M34.25,32.441s6.9,14.536,5.19,29.546,5.454,21.449,5.454,21.449l1.364-31.995s-.091-17.286-12.007-19" transform="translate(9.716 9.202)" fill="#808dff"/>
      <path id="Trazado_834257" data-name="Trazado 834257" d="M42.931,42.2s2.814,6.91.864,18.524" transform="translate(12.178 11.97)" fill="none" stroke="#5f73e8" stroke-miterlimit="10" stroke-width="0.764"/>
      <path id="Trazado_834258" data-name="Trazado 834258" d="M25.928,32.743s24.467,14.049-8.156,50.122V34.9Z" transform="translate(2.008 9.288)" fill="#808dff"/>
      <path id="Trazado_834259" data-name="Trazado 834259" d="M19.046,34.409S3.538,37.686,2.776,68.952L21.334,67.2l2.543-25.425Z" transform="translate(0.788 9.76)" fill="#808dff"/>
      <path id="Trazado_834260" data-name="Trazado 834260" d="M21.622,67.68s4.044-3.961.5-7.63c0,0-13.218-2.055-20.921,2.782,0,0-3.225,5.5.9,8.482,0,0,5.553-3.634,19.526-3.634" transform="translate(0 16.91)" fill="#9cabff"/>
      <line id="Línea_1778" data-name="Línea 1778" y1="18.944" x2="3.071" transform="translate(22.122 58.016)" fill="none" stroke="#5f73e8" stroke-miterlimit="10" stroke-width="0.764"/>
      <path id="Trazado_834261" data-name="Trazado 834261" d="M21.159,66.036,50.005,69.67l-1.6,5.673-38.992.963A7.654,7.654,0,0,1,1.633,69.67s8.636-6.208,19.526-3.634" transform="translate(0.463 18.554)" fill="#edbc9c"/>
      <path id="Trazado_834262" data-name="Trazado 834262" d="M51.742,72.538c-.15,3.6-3.891,6.368-8.354,6.182s-7.961-3.255-7.811-6.856,3.891-6.368,8.354-6.182,7.961,3.255,7.811,6.856" transform="translate(10.091 18.629)" fill="#edbc9c"/>
      <path id="Trazado_834263" data-name="Trazado 834263" d="M17.834,69.175h30.8V65.7h-30.8a1.737,1.737,0,0,0,0,3.475" transform="translate(4.566 18.636)" fill="#1c2123"/>
      <path id="Trazado_834264" data-name="Trazado 834264" d="M38.282,76.682H82.494a5.234,5.234,0,0,0,5.042-3.83l7.957-28.587a3.966,3.966,0,0,0-3.82-5.029H50.789A3.452,3.452,0,0,0,47.45,41.81Z" transform="translate(10.859 11.129)" fill="#2e353a"/>
      <path id="Trazado_834265" data-name="Trazado 834265" d="M58.963,55.921a3.861,3.861,0,1,0,3.861-3.861,3.861,3.861,0,0,0-3.861,3.861" transform="translate(16.726 14.767)" fill="#fff"/>
    </g>
  </g>
</svg>
