<svg xmlns="http://www.w3.org/2000/svg" xmlns:xlink="http://www.w3.org/1999/xlink" width="394.044" height="442" viewBox="0 0 394.044 442">
  <defs>
    <clipPath id="clip-path">
      <rect id="Rectángulo_381571" data-name="Rectángulo 381571" width="372.584" height="441.611" fill="none"/>
    </clipPath>
    <clipPath id="clip-path-3">
      <rect id="Rectángulo_381568" data-name="Rectángulo 381568" width="34.933" height="14.007" fill="none"/>
    </clipPath>
    <clipPath id="clip-path-4">
      <rect id="Rectángulo_381924" data-name="Rectángulo 381924" width="181" height="188" transform="translate(1037 416.49)" fill="#fff" stroke="#707070" stroke-width="1"/>
    </clipPath>
    <clipPath id="clip-path-5">
      <rect id="Rectángulo_381925" data-name="Rectángulo 381925" width="145.535" height="145.534" transform="translate(102.908 205.817) rotate(-135)" fill="#fff" stroke="#707070" stroke-width="2"/>
    </clipPath>
  </defs>
  <g id="Grupo_1093252" data-name="Grupo 1093252" transform="translate(-180 -6059)">
    <g id="Grupo_1071960" data-name="Grupo 1071960" transform="translate(0 3736)">
      <g id="Grupo_1071550" data-name="Grupo 1071550" transform="translate(180 2323)">
        <path id="web-AdobeStock_200818697" d="M170,0h39.925a170,170,0,0,1,170,170V415.416H0V170A170,170,0,0,1,170,0Z" transform="translate(14.119 24.043)" fill="#6e40fb"/>
        <g id="Elipse_4715" data-name="Elipse 4715" fill="none" stroke="#21c3fc" stroke-width="3">
          <circle cx="77.697" cy="77.697" r="77.697" stroke="none"/>
          <circle cx="77.697" cy="77.697" r="76.197" fill="none"/>
        </g>
        <path id="Trazado_834275" data-name="Trazado 834275" d="M32.95,0A32.95,32.95,0,1,1,0,32.95,32.95,32.95,0,0,1,32.95,0Z" transform="translate(328.145 24.043)" fill="#21c3fc"/>
      </g>
      <g id="Grupo_1071958" data-name="Grupo 1071958" transform="translate(190.686 2323)" clip-path="url(#clip-path)">
        <g id="Grupo_1071957" data-name="Grupo 1071957">
          <g id="Grupo_1071956" data-name="Grupo 1071956" clip-path="url(#clip-path)">
            <path id="Trazado_818314" data-name="Trazado 818314" d="M220.306,51.952c2.222,15.363-8.248,29.762-20.17,39.7-4.532,3.779-9.456,7.316-12.636,12.287a25.78,25.78,0,0,0-3.723,10.355c-1.739,12.581,6.35,26.208,18.63,29.452" transform="translate(-182.631 42.76)" fill="none" stroke="#000" stroke-miterlimit="10" stroke-width="1"/>
            <path id="Trazado_818315" data-name="Trazado 818315" d="M252.2,173.111l9.735,126.019H84.038s-7.81-91.474,29.43-126.019Z" transform="translate(-41.315 142.481)" fill="#4542a9"/>
            <path id="Trazado_818316" data-name="Trazado 818316" d="M105.987,197.021q5.469,40.912,9.489,82.04" transform="translate(63.888 162.161)" fill="none" stroke="#0a0a0a" stroke-miterlimit="10" stroke-width="1"/>
            <path id="Trazado_818317" data-name="Trazado 818317" d="M117.358,196.9a56.437,56.437,0,0,1-17.232,22.092" transform="translate(72.691 162.058)" fill="none" stroke="#0a0a0a" stroke-miterlimit="10" stroke-width="1"/>
            <path id="Trazado_818318" data-name="Trazado 818318" d="M149.729,189.921q2.092,47.273,7.595,94.313" transform="translate(-57.705 156.317)" fill="none" stroke="#0a0a0a" stroke-miterlimit="10" stroke-width="1"/>
            <path id="Trazado_818319" data-name="Trazado 818319" d="M168.9,187.609c-.2,4.388-.423,8.882-2.129,12.931-2.487,5.907-7.91,10.184-13.815,12.676s-12.333,3.42-18.677,4.326" transform="translate(-41.124 154.414)" fill="none" stroke="#0a0a0a" stroke-miterlimit="10" stroke-width="1"/>
            <path id="Trazado_818320" data-name="Trazado 818320" d="M46.151,64.641A4.641,4.641,0,0,1,49.377,68a11.582,11.582,0,0,1,.042,4.873,50.632,50.632,0,0,1-4.64,14.7,39.79,39.79,0,0,0,4.472-7.569,6.365,6.365,0,0,1,1.635-2.56c1.818-1.44,4.756-.124,5.713,2s.479,4.59-.222,6.805c-2.428,7.713-7.3,14.492-13.008,20.21S31.058,116.965,24.489,121.7c-.005-.009-.031-.027-.046-.047-.038-.06-18.088-15.489-19.1-15.709l-.018,0a16.823,16.823,0,0,1-2.651-4.415C.011,95.575-.281,88.118.179,82a7.722,7.722,0,0,1,1-3.786,4.474,4.474,0,0,1,4.246-2.08A4.943,4.943,0,0,1,9.15,78.865a11.632,11.632,0,0,1,1,4.259c.27,2.319.649,4.66,1.139,6.975,1.787-2.133,3.725-4.122,5.5-6.235a100.321,100.321,0,0,0,4.961-18.4,15.54,15.54,0,0,1,1.411-5.03,4.756,4.756,0,0,1,4.191-2.68A4.619,4.619,0,0,1,31.037,60.6,11.579,11.579,0,0,1,31.8,65.4a47.607,47.607,0,0,1-.29,5.245c1.017-2.414,1.927-4.869,2.744-7.347a15.224,15.224,0,0,1,2.137-4.767,4.776,4.776,0,0,1,4.532-2.027,4.636,4.636,0,0,1,3.225,3.364,11.553,11.553,0,0,1,.044,4.873l-.009.038a3.663,3.663,0,0,1,1.971-.142" transform="translate(315.45 46.449)" fill="#fca689"/>
            <rect id="Rectángulo_381566" data-name="Rectángulo 381566" width="26.342" height="14.005" transform="matrix(-0.922, -0.387, 0.387, -0.922, 339.032, 173.143)" fill="#fca689"/>
            <path id="Trazado_818321" data-name="Trazado 818321" d="M16.921,61.049c-2.312.531-3.466,3.083-4.178,5.345-1.6,5.083-2.736,10.428-5.642,14.894" transform="translate(342.72 50.247)" fill="none" stroke="#b56a51" stroke-miterlimit="10" stroke-width="1"/>
            <path id="Trazado_818322" data-name="Trazado 818322" d="M17.26,71.007c.458,1.615.055,3.4.636,4.975a6.362,6.362,0,0,0,3.486,3.3c1.489.687,3.1,1.079,4.59,1.774a12.6,12.6,0,0,1,6.973,9.11" transform="translate(308.173 58.443)" fill="none" stroke="#b56a51" stroke-miterlimit="10" stroke-width="1"/>
            <path id="Trazado_818323" data-name="Trazado 818323" d="M84.813,96.935,132.729,173.6l42.144-85.808,41.2,18.788L170.894,225.493c-8.876,22.588-37.674,28.644-56.251,11.83L24.319,143.747c-14.481-15-15.54-38.21-2.436-53.361,16.96-19.613,48.641-16.315,62.93,6.548" transform="translate(133.332 63.803)" fill="#d9ddfe"/>
            <path id="Trazado_818324" data-name="Trazado 818324" d="M52.142,168.7c-.4-8.846-2.837-17.994-.211-26.349A51.96,51.96,0,0,1,56.442,133c3.2-5.794,6.009-11.793,8.814-17.788" transform="translate(214.846 94.827)" fill="none" stroke="#0a0a0a" stroke-miterlimit="10" stroke-width="1"/>
            <path id="Trazado_818325" data-name="Trazado 818325" d="M88.112,25.441c9.117-11.2,23.842-20.249,38.206-16.7,11.854,2.928,20.035,13.788,23.237,25.1,2.538,8.96,2.7,18.765,7.726,26.706,2.838,4.488,7.033,8.031,10.355,12.205a38.54,38.54,0,0,1,8.167,28.015c-.778,6.962-3.5,13.76-3.05,20.75.711,11.09,9.221,20.55,10.563,31.585,1.28,10.53-4.507,21.2-13.376,27.548-28.772,20.6-81.607,7.475-93.1-24.848-4-11.246-3.9-23.406-.922-34.941s7.515-22.8,8.5-34.645c1.654-19.9-10.57-43.245,3.7-60.772" transform="translate(54.638 6.55)" fill="#35319e"/>
            <path id="Trazado_818326" data-name="Trazado 818326" d="M75.238,35.563c3.7,6.893,10.322,11.624,16.125,16.874s11.257,11.981,11.246,19.808c-.009,6.594-3.878,12.448-6.727,18.395s-4.618,13.445-.786,18.81" transform="translate(132.811 29.271)" fill="none" stroke="#35319e" stroke-miterlimit="10" stroke-width="1"/>
            <rect id="Rectángulo_381567" data-name="Rectángulo 381567" width="34.933" height="41.936" transform="translate(128.58 112.889)" fill="#fca689"/>
            <g id="Grupo_1071955" data-name="Grupo 1071955" transform="translate(128.58 112.889)" opacity="0.478" style="mix-blend-mode: multiply;isolation: isolate">
              <g id="Grupo_1071954" data-name="Grupo 1071954" transform="translate(0)">
                <g id="Grupo_1071953" data-name="Grupo 1071953" clip-path="url(#clip-path-3)">
                  <path id="Trazado_818327" data-name="Trazado 818327" d="M149.614,61.923V75.687c-1.624.16-3.291.241-4.957.241a49.725,49.725,0,0,1-29.977-10.012V61.923Z" transform="translate(-114.681 -61.923)" fill="#fca689"/>
                </g>
              </g>
            </g>
            <path id="Trazado_818328" data-name="Trazado 818328" d="M96.663,62.015A49.837,49.837,0,1,1,146.5,111.852,49.837,49.837,0,0,1,96.663,62.015" transform="translate(0.025 10.023)" fill="#fca689"/>
            <path id="Trazado_818329" data-name="Trazado 818329" d="M253.875,148.618c-1.18,8.767-2.886,21.552-4.764,35.885-3.752,28.54-8.226,63.213-10.656,84.366-42.455,26.365-141.2,0-141.2,0L94.2,245.036,78.5,122.023c-1.852-14.459,11.354-27.809,31.727-32.139l14.721-3.119,56.24-11.9a65.54,65.54,0,0,1,30.091.691c13.157,3.515,23.789,11.11,27.541,21.195l11.739,28.019a45.725,45.725,0,0,1,3.32,23.853" transform="translate(-24.465 60.444)" fill="#e3e6ff"/>
            <path id="Trazado_818330" data-name="Trazado 818330" d="M131.108,165.1a4.634,4.634,0,0,1,.893,4.576,11.561,11.561,0,0,1-2.6,4.12,50.672,50.672,0,0,1-11.859,9.857A39.787,39.787,0,0,0,125.4,179.7a6.352,6.352,0,0,1,2.76-1.267c2.308-.226,4.069,2.468,3.721,4.775s-2.08,4.122-3.867,5.6c-6.217,5.176-13.979,8.244-21.875,9.963s-16.032,2.162-24.114,2.589a.578.578,0,0,1-.015-.067c0-.069-6.835-22.81-7.562-23.541l-.013-.013a16.9,16.9,0,0,1,.157-5.148c.975-6.443,4.764-12.871,8.457-17.766a7.755,7.755,0,0,1,2.9-2.642,4.477,4.477,0,0,1,4.7.547,4.948,4.948,0,0,1,1.652,4.308,11.6,11.6,0,0,1-1.466,4.122c-1.026,2.093-1.974,4.268-2.815,6.481,2.654-.826,5.363-1.453,8-2.266a100.246,100.246,0,0,0,14.127-12.792,15.6,15.6,0,0,1,3.909-3.467,4.768,4.768,0,0,1,4.975.015,4.626,4.626,0,0,1,1.561,4.388,11.608,11.608,0,0,1-1.962,4.454,47.692,47.692,0,0,1-3.081,4.255c2.16-1.48,4.255-3.054,6.282-4.694a15.188,15.188,0,0,1,4.375-2.855,4.778,4.778,0,0,1,4.908.747A4.63,4.63,0,0,1,132,160a11.552,11.552,0,0,1-2.6,4.122l-.027.027a3.634,3.634,0,0,1,1.734.946" transform="translate(104.885 122.161)" fill="#fca689"/>
            <rect id="Rectángulo_381569" data-name="Rectángulo 381569" width="26.343" height="14.005" transform="translate(176.199 325.062) rotate(-97.864)" fill="#fca689"/>
            <path id="Trazado_818331" data-name="Trazado 818331" d="M218.771,144.873l-46.105,77.77,95.579-1.963,2.228,45.225L144.1,280.374c-24.141,2.488-42.745-20.313-36.339-44.536l41.651-123.21c6.678-19.753,26.806-31.349,46.284-26.666,25.211,6.06,36.829,35.719,23.08,58.91" transform="translate(-92.01 69.9)" fill="#d9ddfe"/>
            <path id="Trazado_818332" data-name="Trazado 818332" d="M126.314,196.441q43.729-4.351,87.319-10.072" transform="translate(-71.327 153.393)" fill="none" stroke="#0a0a0a" stroke-miterlimit="10" stroke-width="1"/>
            <path id="Trazado_818333" data-name="Trazado 818333" d="M143.259,173.328c7.673-4.417,14.681-10.783,23.31-12.287a52.06,52.06,0,0,1,10.379-.286c6.616.182,13.235-.078,19.849-.337" transform="translate(-85.382 132.033)" fill="none" stroke="#0a0a0a" stroke-miterlimit="10" stroke-width="1"/>
            <path id="Trazado_818334" data-name="Trazado 818334" d="M164.48,151.332l-9.925,17.089" transform="translate(-73.658 124.556)" fill="none" stroke="#0a0a0a" stroke-miterlimit="10" stroke-width="1"/>
            <path id="Trazado_818335" data-name="Trazado 818335" d="M117.965,186.34l10.525-.813" transform="translate(29.037 152.7)" fill="none" stroke="#0a0a0a" stroke-miterlimit="10" stroke-width="1"/>
            <path id="Trazado_818337" data-name="Trazado 818337" d="M188.232,75.55c-.649,9.877-9.622,18.373-20.278,21.951-10.776,3.619-22.9,2.928-34.157.625A119.879,119.879,0,0,1,101.9,86.767l56.238-11.908a65.565,65.565,0,0,1,30.091.691" transform="translate(-1.423 60.443)" fill="#fca689"/>
            <path id="Trazado_818338" data-name="Trazado 818338" d="M266.517,25.939c0-24.775-46.362-44.014-71.167,1.931-7.97,14.767-30.214,12.668-44.836,21.078-17.6,10.122-22.868,27.35-20.4,40.844.837,4.592,3.187,8.929,3.874,13.54,1.334,8.917-3.67,17.638-9.639,25.1s-13.122,14.411-17.033,22.777c-6.014,12.867-4.129,31.444,5.152,43.128,24.343,30.633,84,21.158,95.942-17.917,4.115-13.467-1.936-28.874,6.042-40.058,5.914-8.295,14.914-15.46,18.962-24.673,3.672-8.362,1.951-17.729-1.307-26.21C229.5,78.689,225.91,71.5,228.411,64.69a21.638,21.638,0,0,1,13.3-12.444c22.207-7.515,24.81-19.64,24.81-26.307" transform="translate(-83.257 0)" fill="#4542a9"/>
            <path id="Trazado_818339" data-name="Trazado 818339" d="M122,40.072a3.315,3.315,0,1,0-3.314,3.433A3.375,3.375,0,0,0,122,40.072" transform="translate(40.25 30.156)"/>
            <path id="Trazado_818340" data-name="Trazado 818340" d="M127.747,31.772a4.826,4.826,0,0,1,.215,3.836c-1.054,2.472-3.994,2.334-10.43,3.531-2.911.541-4.257-4.4-1.063-6.419,2.388-1.511,9.748-3.694,11.277-.948" transform="translate(35.348 25.071)" fill="#4542a9"/>
            <path id="Trazado_818341" data-name="Trazado 818341" d="M99.657,37.4a3.315,3.315,0,1,1,3.314,3.433A3.375,3.375,0,0,1,99.657,37.4" transform="translate(84.62 27.956)"/>
            <path id="Trazado_818342" data-name="Trazado 818342" d="M97.812,28.82a4.826,4.826,0,0,0-.215,3.836c1.054,2.474,3.994,2.334,10.43,3.531,2.911.541,4.257-4.4,1.063-6.419-2.388-1.511-9.748-3.694-11.277-.948" transform="translate(84.285 22.641)" fill="#4542a9"/>
            <path id="Trazado_818343" data-name="Trazado 818343" d="M102.619,33.966q.768,4.189,1.539,8.377a2.364,2.364,0,0,0,.5,1.262,3.078,3.078,0,0,0,1.741.587,5.007,5.007,0,1,1-2.091,9.79" transform="translate(75.027 27.956)" fill="none" stroke="#b56a51" stroke-miterlimit="10" stroke-width="1"/>
            <path id="Trazado_818344" data-name="Trazado 818344" d="M103.477,45.948a16.315,16.315,0,0,0,10.7,7.25,20.881,20.881,0,0,0,12.949-1.808" transform="translate(56.81 37.818)" fill="none" stroke="#b56a51" stroke-miterlimit="10" stroke-width="1"/>
            <path id="Trazado_818345" data-name="Trazado 818345" d="M212.038,52.74c2.222,15.363-8.248,29.762-20.17,39.7-4.532,3.779-9.456,7.316-12.636,12.287a25.78,25.78,0,0,0-3.723,10.355c-1.739,12.579,6.35,26.208,18.63,29.45" transform="translate(-159.29 43.408)" fill="none" stroke="#4542a9" stroke-miterlimit="10" stroke-width="1"/>
          </g>
        </g>
      </g>
    </g>
    <g id="Enmascarar_grupo_1059124" data-name="Enmascarar grupo 1059124" transform="translate(-844 5896.51)" clip-path="url(#clip-path-4)">
      <path id="Elipse_9678" data-name="Elipse 9678" d="M112.383,61.943a50.44,50.44,0,1,0,50.44,50.44,50.5,50.5,0,0,0-50.44-50.44m0-61.943A112.383,112.383,0,1,1,0,112.383,112.383,112.383,0,0,1,112.383,0Z" transform="translate(947.625 462.02)" fill="#e9e2fe" opacity="0.856"/>
    </g>
    <g id="Grupo_1072746" data-name="Grupo 1072746" transform="translate(344.022 6280.092)" clip-path="url(#clip-path-5)">
      <path id="Elipse_9678-2" data-name="Elipse 9678" d="M94.883-1A96.588,96.588,0,0,0,75.561.948,95.364,95.364,0,0,0,41.273,15.376,96.16,96.16,0,0,0,6.535,57.561a95.4,95.4,0,0,0-5.587,18,96.808,96.808,0,0,0,0,38.646,95.364,95.364,0,0,0,14.428,34.287,96.16,96.16,0,0,0,42.185,34.738,95.4,95.4,0,0,0,18,5.587,96.808,96.808,0,0,0,38.646,0,95.365,95.365,0,0,0,34.287-14.428,96.161,96.161,0,0,0,34.738-42.185,95.407,95.407,0,0,0,5.587-18,96.809,96.809,0,0,0,0-38.646,95.363,95.363,0,0,0-14.428-34.287A96.16,96.16,0,0,0,132.206,6.535a95.405,95.405,0,0,0-18-5.587A96.587,96.587,0,0,0,94.883-1Zm0,189.816a94.63,94.63,0,0,1-18.932-1.908,93.413,93.413,0,0,1-33.586-14.133A94.21,94.21,0,0,1,8.332,131.446a93.452,93.452,0,0,1-5.473-17.631,94.86,94.86,0,0,1,0-37.863A93.413,93.413,0,0,1,16.993,42.366,94.21,94.21,0,0,1,58.321,8.332,93.453,93.453,0,0,1,75.952,2.859a94.858,94.858,0,0,1,37.863,0A93.413,93.413,0,0,1,147.4,16.993a94.21,94.21,0,0,1,34.033,41.328,93.452,93.452,0,0,1,5.473,17.631,94.858,94.858,0,0,1,0,37.863A93.412,93.412,0,0,1,172.774,147.4a94.209,94.209,0,0,1-41.328,34.033,93.449,93.449,0,0,1-17.631,5.473A94.629,94.629,0,0,1,94.883,188.816Z" transform="translate(8.025 8.025)" fill="#fff"/>
      <path id="Elipse_9679" data-name="Elipse 9679" d="M75.568-1A77.127,77.127,0,0,0,60.138.556a76.153,76.153,0,0,0-27.38,11.522A76.788,76.788,0,0,0,5.017,45.764,76.191,76.191,0,0,0,.556,60.138,77.3,77.3,0,0,0,.556,91a76.154,76.154,0,0,0,11.522,27.38,76.788,76.788,0,0,0,33.687,27.74,76.19,76.19,0,0,0,14.374,4.462,77.3,77.3,0,0,0,30.86,0,76.154,76.154,0,0,0,27.38-11.522,76.789,76.789,0,0,0,27.74-33.687A76.19,76.19,0,0,0,150.58,91a77.3,77.3,0,0,0,0-30.86,76.153,76.153,0,0,0-11.522-27.38,76.789,76.789,0,0,0-33.687-27.74A76.19,76.19,0,0,0,91,.556,77.127,77.127,0,0,0,75.568-1Zm0,151.184a74.264,74.264,0,0,1-41.718-12.743,74.837,74.837,0,0,1-27.035-32.83,74.517,74.517,0,0,1,6.879-70.762A74.837,74.837,0,0,1,46.524,6.814a74.517,74.517,0,0,1,70.762,6.879,74.837,74.837,0,0,1,27.035,32.83,74.517,74.517,0,0,1-6.879,70.762,74.837,74.837,0,0,1-32.83,27.035A74.149,74.149,0,0,1,75.568,150.184Z" transform="translate(27.341 27.341)" fill="#fff"/>
      <path id="Elipse_9680" data-name="Elipse 9680" d="M56.253-1A56.989,56.989,0,0,0,24.242,8.778,57.416,57.416,0,0,0,3.5,33.967a57.179,57.179,0,0,0,5.279,54.3,57.417,57.417,0,0,0,25.189,20.742,57.179,57.179,0,0,0,54.3-5.279,57.418,57.418,0,0,0,20.742-25.189,57.179,57.179,0,0,0-5.279-54.3A57.417,57.417,0,0,0,78.538,3.5,56.9,56.9,0,0,0,56.253-1Zm0,112.554a55.039,55.039,0,0,1-30.919-9.444A55.466,55.466,0,0,1,5.3,77.778a55.228,55.228,0,0,1,5.1-52.445A55.466,55.466,0,0,1,34.727,5.3a55.228,55.228,0,0,1,52.445,5.1,55.466,55.466,0,0,1,20.037,24.332,55.228,55.228,0,0,1-5.1,52.445,55.466,55.466,0,0,1-24.332,20.037A54.955,54.955,0,0,1,56.253,111.554Z" transform="translate(46.656 46.656)" fill="#fff"/>
      <path id="Elipse_9681" data-name="Elipse 9681" d="M36.938-1A37.948,37.948,0,0,0,22.17,71.894,37.947,37.947,0,0,0,51.705,1.982,37.7,37.7,0,0,0,36.938-1Zm0,73.925A36,36,0,0,1,22.93,3.779,36,36,0,0,1,50.945,70.1,35.761,35.761,0,0,1,36.938,72.925Z" transform="translate(65.971 65.97)" fill="#fff"/>
      <path id="Elipse_9682" data-name="Elipse 9682" d="M17.622-1A18.616,18.616,0,0,0,4.454,30.79,18.622,18.622,0,1,0,24.871.464,18.506,18.506,0,0,0,17.622-1Zm0,35.293A16.671,16.671,0,0,1,5.834,5.834,16.671,16.671,0,0,1,29.41,29.41,16.562,16.562,0,0,1,17.622,34.293Z" transform="translate(85.286 85.287)" fill="#fff"/>
    </g>
  </g>
</svg>
