<svg xmlns="http://www.w3.org/2000/svg" width="76" height="76" viewBox="0 0 76 76">
  <g id="Grupo_1093198" data-name="Grupo 1093198" transform="translate(-1057 -6697)">
    <rect id="Rectángulo_387372" data-name="Rectángulo 387372" width="76" height="76" rx="8" transform="translate(1057 6697)" fill="#1e5af9"/>
    <g id="Layer_1" transform="translate(1053 6690)">
      <g id="Grupo_1093197" data-name="Grupo 1093197" transform="translate(16 23)">
        <path id="Trazado_835709" data-name="Trazado 835709" d="M82.044,87.244a1.659,1.659,0,0,1-1.573-1.131l-2.459-7.3a1.662,1.662,0,0,1,1.9-2.16h0l7.547,1.518a1.662,1.662,0,0,1,.919,2.728l-5.089,5.777A1.668,1.668,0,0,1,82.044,87.244ZM80.351,78.96l1.9,5.625,3.924-4.454ZM79.488,79h0Z" transform="translate(-44.32 -47.524)" fill="#fff"/>
        <path id="Trazado_835710" data-name="Trazado 835710" d="M94.571,92.63a1.082,1.082,0,0,1-.717-.271L89.371,88.41a1.085,1.085,0,1,1,1.435-1.629l4.483,3.949a1.085,1.085,0,0,1-.718,1.9Z" transform="translate(-49.386 -52.044)" fill="#fff"/>
        <path id="Trazado_835711" data-name="Trazado 835711" d="M50.451,58.537H32.884A2.887,2.887,0,0,1,30,55.653V41.884A2.887,2.887,0,0,1,32.884,39H50.451a2.887,2.887,0,0,1,2.884,2.884V55.653A2.887,2.887,0,0,1,50.451,58.537ZM32.884,41.171a.714.714,0,0,0-.713.713V55.653a.714.714,0,0,0,.713.713H50.451a.714.714,0,0,0,.713-.713V41.884a.714.714,0,0,0-.713-.713Z" transform="translate(-22.402 -30.317)" fill="#fff"/>
        <g id="Grupo_1093196" data-name="Grupo 1093196">
          <path id="Trazado_835712" data-name="Trazado 835712" d="M64.247,23h-44.4A4.068,4.068,0,0,0,16,27.247V63.253A4.068,4.068,0,0,0,19.851,67.5h44.4A4.068,4.068,0,0,0,68.1,63.253V27.247A4.068,4.068,0,0,0,64.247,23Zm1.68,28.762V63.253a1.912,1.912,0,0,1-1.68,2.076h-44.4a1.912,1.912,0,0,1-1.68-2.076V27.247a1.912,1.912,0,0,1,1.68-2.076h44.4a1.912,1.912,0,0,1,1.68,2.076Z" transform="translate(-16 -23)" fill="#fff"/>
          <path id="Trazado_835713" data-name="Trazado 835713" d="M88.683,43h-7.6a1.085,1.085,0,0,0,0,2.171h7.6a1.085,1.085,0,0,0,0-2.171Z" transform="translate(-45.268 -32.146)" fill="#fff"/>
          <path id="Trazado_835714" data-name="Trazado 835714" d="M52.25,87H31.085a1.085,1.085,0,1,0,0,2.171H52.25a1.085,1.085,0,1,0,0-2.171Z" transform="translate(-22.402 -52.268)" fill="#fff"/>
          <path id="Trazado_835715" data-name="Trazado 835715" d="M88.683,55h-7.6a1.085,1.085,0,0,0,0,2.171h7.6a1.085,1.085,0,0,0,0-2.171Z" transform="translate(-45.268 -37.634)" fill="#fff"/>
          <path id="Trazado_835716" data-name="Trazado 835716" d="M88.683,67h-7.6a1.085,1.085,0,0,0,0,2.171h7.6a1.085,1.085,0,0,0,0-2.171Z" transform="translate(-45.268 -43.122)" fill="#fff"/>
          <path id="Trazado_835717" data-name="Trazado 835717" d="M37.364,56.232H51.7a1.1,1.1,0,0,0,.939-1.677l-5.033-8.2a1.1,1.1,0,0,0-1.878,0L43.14,50.564l-1.2-1.948A1.1,1.1,0,0,0,41,48.092h0a1.1,1.1,0,0,0-.939.526l-3.64,5.936a1.1,1.1,0,0,0,.939,1.678Zm9.268-7.091,3.019,4.92H45.258l-.823-1.341Zm-5.573,2.232,1.653,2.688h-3.3Z" transform="translate(-25.266 -33.439)" fill="#fff"/>
        </g>
      </g>
    </g>
  </g>
</svg>
