<svg xmlns="http://www.w3.org/2000/svg" width="76" height="76" viewBox="0 0 76 76">
  <g id="Grupo_1093199" data-name="Grupo 1093199" transform="translate(-952 -8259)">
    <rect id="Rectángulo_387373" data-name="Rectángulo 387373" width="76" height="76" rx="8" transform="translate(952 8259)" fill="#6e40fb"/>
    <g id="programacion-web" transform="translate(964 8274)">
      <path id="Trazado_835718" data-name="Trazado 835718" d="M121.43,192.2a.857.857,0,0,1-.557-.206l-5.57-4.743a.861.861,0,0,1,0-1.311l5.57-4.743a.861.861,0,1,1,1.116,1.31l-4.8,4.088,4.8,4.088a.861.861,0,0,1-.559,1.516Zm0,0" transform="translate(-100.859 -158.733)" fill="#fff"/>
      <path id="Trazado_835719" data-name="Trazado 835719" d="M250.569,192.2a.861.861,0,0,1-.559-1.516l4.8-4.088-4.8-4.088a.861.861,0,0,1,1.116-1.31l5.57,4.743a.861.861,0,0,1,0,1.311l-5.57,4.743A.857.857,0,0,1,250.569,192.2Zm0,0" transform="translate(-219.002 -158.733)" fill="#fff"/>
      <path id="Trazado_835720" data-name="Trazado 835720" d="M189.816,171.228a.875.875,0,0,1-.179-.019.861.861,0,0,1-.665-1.02l3.471-16.482a.861.861,0,0,1,1.685.355l-3.471,16.482A.861.861,0,0,1,189.816,171.228Zm0,0" transform="translate(-165.719 -134.207)" fill="#fff"/>
      <path id="Trazado_835721" data-name="Trazado 835721" d="M46.358,46H5.779A5.786,5.786,0,0,1,0,40.221V5.779A5.786,5.786,0,0,1,5.779,0H46.358a5.786,5.786,0,0,1,5.779,5.779V40.221A5.786,5.786,0,0,1,46.358,46ZM5.779,1.722A4.063,4.063,0,0,0,1.722,5.779V40.221a4.063,4.063,0,0,0,4.058,4.058H46.358a4.063,4.063,0,0,0,4.058-4.058V5.779a4.063,4.063,0,0,0-4.058-4.058Zm0,0" fill="#fff"/>
      <path id="Trazado_835722" data-name="Trazado 835722" d="M51.277,99.811H.861a.861.861,0,0,1,0-1.722H51.277a.861.861,0,1,1,0,1.722Zm0,0" transform="translate(0 -86.028)" fill="#fff"/>
      <path id="Trazado_835723" data-name="Trazado 835723" d="M100.173,39.737a2.724,2.724,0,1,1,2.724-2.724A2.728,2.728,0,0,1,100.173,39.737Zm0-3.726a1,1,0,1,0,1,1A1,1,0,0,0,100.173,36.011Zm0,0" transform="translate(-85.466 -30.073)" fill="#fff"/>
      <path id="Trazado_835724" data-name="Trazado 835724" d="M32.111,39.522A2.724,2.724,0,1,1,34.835,36.8,2.727,2.727,0,0,1,32.111,39.522Zm0-3.726a1,1,0,1,0,1,1A1,1,0,0,0,32.111,35.8Zm0,0" transform="translate(-25.773 -29.884)" fill="#fff"/>
      <path id="Trazado_835725" data-name="Trazado 835725" d="M168.239,39.951a2.724,2.724,0,1,1,2.724-2.724A2.727,2.727,0,0,1,168.239,39.951Zm0-3.726a1,1,0,1,0,1,1A1,1,0,0,0,168.239,36.225Zm0,0" transform="translate(-145.163 -30.261)" fill="#fff"/>
    </g>
  </g>
</svg>
