<svg xmlns="http://www.w3.org/2000/svg" width="190" height="91.26" viewBox="0 0 190 91.26">
  <g id="Grupo_1093194" data-name="Grupo 1093194" transform="translate(-1230 -2609.717)">
    <g id="Grupo_1093136" data-name="Grupo 1093136" transform="translate(1050 1703.977)">
      <g id="Grupo_1073375" data-name="Grupo 1073375" transform="translate(-210 -2222)">
        <rect id="Rect치ngulo_381829" data-name="Rect치ngulo 381829" width="190" height="60" rx="7" transform="translate(390 3141)" fill="#1e5af9"/>
      </g>
      <g id="Grupo_1067370" data-name="Grupo 1067370" transform="translate(31 483)">
        <g id="Grupo_1063897" data-name="Grupo 1063897" transform="translate(0 -17)">
          <rect id="Rect치ngulo_373435" data-name="Rect치ngulo 373435" width="85" height="85" rx="5" transform="translate(180 446)" fill="#e9e2fe"/>
        </g>
      </g>
    </g>
    <g id="red-global" transform="translate(1285.998 2599.486)">
      <g id="Grupo_1093193" data-name="Grupo 1093193" transform="translate(1.263 11.497)">
        <g id="Grupo_1093191" data-name="Grupo 1093191" transform="translate(3.635)">
          <g id="Grupo_1093190" data-name="Grupo 1093190">
            <g id="Grupo_1093188" data-name="Grupo 1093188" transform="translate(0.272 0)">
              <ellipse id="Elipse_11069" data-name="Elipse 11069" cx="40.624" cy="40.823" rx="40.624" ry="40.823" fill="#c9f0ff"/>
            </g>
            <path id="Trazado_835696" data-name="Trazado 835696" d="M254.83,17.626q-1.295,0-2.57.081a40.837,40.837,0,0,1,0,81.484q1.275.08,2.57.081a40.823,40.823,0,0,0,0-81.645Z" transform="translate(-213.934 -17.626)" fill="#b5eaff"/>
            <g id="Grupo_1093189" data-name="Grupo 1093189" transform="translate(0 5.494)">
              <path id="Trazado_835697" data-name="Trazado 835697" d="M131.534,49.719a1.285,1.285,0,0,0-1.375,1.894q1.228-.868,2.521-1.646Q132.109,49.838,131.534,49.719Z" transform="translate(-112.614 -49.693)" fill="#3498ac"/>
              <path id="Trazado_835698" data-name="Trazado 835698" d="M28.616,217.394a1.281,1.281,0,0,0,.486.712q.127-1.132.315-2.245A1.285,1.285,0,0,0,28.616,217.394Z" transform="translate(-28.573 -187.39)" fill="#3498ac"/>
              <path id="Trazado_835699" data-name="Trazado 835699" d="M125.957,447.854a1.286,1.286,0,0,0,.051.356q.016.055.036.107v0a1.285,1.285,0,0,0,2.266.555l.032-.01q-1.292-.823-2.517-1.739Q125.889,447.491,125.957,447.854Z" transform="translate(-109.163 -379.032)" fill="#3498ac"/>
              <path id="Trazado_835700" data-name="Trazado 835700" d="M394.877,449.333a1.283,1.283,0,0,0,1.507-1.016q.116-.6.22-1.194-1.217.91-2.5,1.729A1.281,1.281,0,0,0,394.877,449.333Z" transform="translate(-331.474 -379.029)" fill="#3498ac"/>
              <path id="Trazado_835701" data-name="Trazado 835701" d="M391.495,50.72a1.285,1.285,0,0,0-1.517-1q-.575.118-1.146.248,1.292.777,2.521,1.646A1.279,1.279,0,0,0,391.495,50.72Z" transform="translate(-327.107 -49.693)" fill="#3498ac"/>
              <path id="Trazado_835702" data-name="Trazado 835702" d="M452.98,105.893a1.285,1.285,0,0,0-1.91-1.393q.891,1.1,1.706,2.255Q452.88,106.326,452.98,105.893Z" transform="translate(-378.681 -94.959)" fill="#3498ac"/>
            </g>
          </g>
        </g>
        <g id="Grupo_1093192" data-name="Grupo 1093192" transform="translate(0 2.854)">
          <ellipse id="Elipse_11070" data-name="Elipse 11070" cx="3.907" cy="3.926" rx="3.907" ry="3.926" transform="translate(40.624 9.418)" fill="#ff815c"/>
          <ellipse id="Elipse_11071" data-name="Elipse 11071" cx="3.907" cy="3.926" rx="3.907" ry="3.926" transform="translate(25.421 26.667)" fill="#ff815c"/>
          <ellipse id="Elipse_11072" data-name="Elipse 11072" cx="3.907" cy="3.926" rx="3.907" ry="3.926" transform="translate(60.951 36.688)" fill="#ff815c"/>
          <path id="Trazado_835703" data-name="Trazado 835703" d="M115.193,436.3a3.926,3.926,0,1,1,3.907-3.926A3.921,3.921,0,0,1,115.193,436.3Z" transform="translate(-93.48 -360.91)" fill="#ff815c"/>
          <path id="Trazado_835704" data-name="Trazado 835704" d="M382.856,437.6a3.926,3.926,0,1,1,3.907-3.926A3.921,3.921,0,0,1,382.856,437.6Z" transform="translate(-315.282 -361.989)" fill="#ff815c"/>
          <path id="Trazado_835705" data-name="Trazado 835705" d="M436.017,95.939a3.926,3.926,0,1,1,3.907-3.926A3.921,3.921,0,0,1,436.017,95.939Z" transform="translate(-359.335 -78.868)" fill="#ff815c"/>
          <path id="Trazado_835706" data-name="Trazado 835706" d="M378.133,42.133a3.926,3.926,0,1,1,3.907-3.926A3.921,3.921,0,0,1,378.133,42.133Z" transform="translate(-311.368 -34.281)" fill="#ff815c"/>
          <path id="Trazado_835707" data-name="Trazado 835707" d="M115.193,42.133a3.926,3.926,0,1,1,3.907-3.926A3.921,3.921,0,0,1,115.193,42.133Z" transform="translate(-93.48 -34.281)" fill="#ff815c"/>
          <ellipse id="Elipse_11073" data-name="Elipse 11073" cx="3.907" cy="3.926" rx="3.907" ry="3.926" transform="translate(0 28.689)" fill="#ff815c"/>
        </g>
      </g>
      <path id="Trazado_835708" data-name="Trazado 835708" d="M84.29,68.979a1.269,1.269,0,0,0,.067-.161,42.481,42.481,0,0,0-2.481-37.925,5.208,5.208,0,0,0-6.194-8.087c-.9-.919-1.843-1.8-2.822-2.632,1.92-5.22-4.489-9.5-8.48-5.6a41.954,41.954,0,0,0-37.568.2A5.2,5.2,0,0,0,18.3,20.541a42.391,42.391,0,0,0-4.012,4.01c-1.072,1.227.87,2.91,1.935,1.691a39.819,39.819,0,0,1,3.73-3.733A5.236,5.236,0,0,0,27.621,20.6a55.941,55.941,0,0,1,13.171,5.7,5.29,5.29,0,0,0,.388,3.781,59.123,59.123,0,0,0-9.1,9.873,5.248,5.248,0,0,0-6.211,2.817A80.153,80.153,0,0,0,9.743,44.5,5.239,5.239,0,0,0,7.7,42.418a39.344,39.344,0,0,1,4.712-11.027,1.286,1.286,0,0,0-2.182-1.357A41.906,41.906,0,0,0,5.216,41.756,5.216,5.216,0,0,0,3.887,52.016,42.449,42.449,0,0,0,18.129,83.948a5.2,5.2,0,0,0,8.32,5.733,41.943,41.943,0,0,0,38.686,0,5.2,5.2,0,0,0,8.42-5.819A42.081,42.081,0,0,0,84.29,68.979Zm-1.619-2.874a80.618,80.618,0,0,0-11.606-9.554,5.267,5.267,0,0,0-1.3-5.294,80.3,80.3,0,0,0,8.17-18.551,5.139,5.139,0,0,0,1.832-.331A39.9,39.9,0,0,1,82.671,66.105ZM23.538,80.632a56.369,56.369,0,0,1,5.513-30.711,5.249,5.249,0,0,0,6.638-4,76.937,76.937,0,0,1,25.4,7.745,5.28,5.28,0,0,0,.851,4.393A77.573,77.573,0,0,1,27.363,83.03a5.194,5.194,0,0,0-3.825-2.4ZM63.5,54.964a2.641,2.641,0,1,1,2.622,2.641A2.634,2.634,0,0,1,63.5,54.964ZM80.566,27.5a2.641,2.641,0,1,1-2.622-2.641A2.634,2.634,0,0,1,80.566,27.5Zm-6.848-3.021a5.274,5.274,0,0,0,1.726,7.586,77.746,77.746,0,0,1-7.9,17.895,5.274,5.274,0,0,0-2.214-.142A59.6,59.6,0,0,0,50.406,30.081a5.285,5.285,0,0,0,.388-3.781,55.938,55.938,0,0,1,12.663-5.552,5.2,5.2,0,0,0,7.9,1.522q1.223,1.052,2.361,2.2Zm-30.547,3.22a2.641,2.641,0,1,1,2.622,2.641,2.634,2.634,0,0,1-2.622-2.641ZM68.027,15.636a2.622,2.622,0,1,1-2.622,2.641A2.634,2.634,0,0,1,68.027,15.636ZM22.976,20.918A2.622,2.622,0,1,1,25.6,18.277,2.634,2.634,0,0,1,22.976,20.918Zm5.187-2.838a5.216,5.216,0,0,0-.144-1.039,39.376,39.376,0,0,1,35.035-.259,5.209,5.209,0,0,0-.218,1.469,58.516,58.516,0,0,0-13.319,5.819,5.233,5.233,0,0,0-7.448,0A58.519,58.519,0,0,0,28.162,18.08ZM42.881,32.006a5.21,5.21,0,0,0,5.823,0A57.02,57.02,0,0,1,62.97,50.826a5.248,5.248,0,0,0-.639.582,79.493,79.493,0,0,0-26.813-8.1,5.219,5.219,0,0,0-1.228-2.014A56.532,56.532,0,0,1,42.881,32.006ZM30.59,42.3a2.622,2.622,0,1,1-2.622,2.641A2.634,2.634,0,0,1,30.59,42.3ZM2.548,46.966a2.641,2.641,0,1,1,2.622,2.641A2.634,2.634,0,0,1,2.548,46.966Zm3.909,5.048A5.1,5.1,0,0,0,10.36,47a144.906,144.906,0,0,1,15.055-1.657,5.2,5.2,0,0,0,1.442,3.216A58.933,58.933,0,0,0,20.992,81a5.2,5.2,0,0,0-1.369.841C11.239,74.327,6.457,61.744,6.457,52.015ZM22.976,88.452a2.641,2.641,0,0,1,0-5.282A2.681,2.681,0,0,1,25.6,85.811,2.634,2.634,0,0,1,22.976,88.452Zm22.817,3.406a39.244,39.244,0,0,1-17.916-4.329,5.345,5.345,0,0,0,.279-2.052A80.134,80.134,0,0,0,63.93,59.687a5.181,5.181,0,0,0,2.465.481,56.742,56.742,0,0,1,1.342,6.442,1.285,1.285,0,0,0,2.542-.376,59.312,59.312,0,0,0-1.43-6.839,5.217,5.217,0,0,0,.853-.663,78.019,78.019,0,0,1,11.908,9.952A39.519,39.519,0,0,1,71.94,81.86a5.18,5.18,0,0,0-1.36-.733,59.724,59.724,0,0,0,.326-7.187,1.285,1.285,0,0,0-2.57.04,57.149,57.149,0,0,1-.315,6.908,5.267,5.267,0,0,0-4.178,6.57,39.238,39.238,0,0,1-18.05,4.4Zm23.043-3.182a2.622,2.622,0,1,1,2.622-2.641A2.634,2.634,0,0,1,68.836,88.675Z"/>
    </g>
  </g>
</svg>
