<svg xmlns="http://www.w3.org/2000/svg" width="84" height="84" viewBox="0 0 84 84">
  <g id="Grupo_1093241" data-name="Grupo 1093241" transform="translate(-338 -3374)">
    <g id="Grupo_1093057" data-name="Grupo 1093057" transform="translate(-51 232.465)">
      <rect id="Rectángulo_381829" data-name="Rectángulo 381829" width="84" height="84" rx="7" transform="translate(389 3141.535)" fill="#fff"/>
    </g>
    <g id="Layer_1" transform="translate(342.713 3372.238)">
      <g id="Grupo_1093240" data-name="Grupo 1093240" transform="translate(2.167 11.431)">
        <g id="Grupo_1093239" data-name="Grupo 1093239" transform="translate(0.696 0.696)">
          <g id="Grupo_1093221" data-name="Grupo 1093221" transform="translate(0 8.916)">
            <g id="Grupo_1093220" data-name="Grupo 1093220">
              <path id="Trazado_835742" data-name="Trazado 835742" d="M73.347,45.953V99.166a1.392,1.392,0,0,1-1.392,1.392H6.059a1.392,1.392,0,0,1-1.392-1.392V45.953Z" transform="translate(-4.667 -45.953)" fill="#fc5d3d"/>
            </g>
          </g>
          <g id="Grupo_1093228" data-name="Grupo 1093228" transform="translate(20.227 23.018)">
            <g id="Grupo_1093223" data-name="Grupo 1093223">
              <g id="Grupo_1093222" data-name="Grupo 1093222">
                <path id="Trazado_835743" data-name="Trazado 835743" d="M91.426,96.6c-7.795,0-14.113,5.339-14.113,11.925a11.276,11.276,0,0,0,5.068,9.153l.5,4.249A1.217,1.217,0,0,0,84.092,123H98.759a1.216,1.216,0,0,0,1.208-1.074l.5-4.249a11.275,11.275,0,0,0,5.068-9.153C105.539,101.939,99.221,96.6,91.426,96.6Z" transform="translate(-77.313 -96.6)" fill="#efefef"/>
              </g>
            </g>
            <g id="Grupo_1093225" data-name="Grupo 1093225" transform="translate(5.071 8.254)">
              <g id="Grupo_1093224" data-name="Grupo 1093224">
                <path id="Trazado_835744" data-name="Trazado 835744" d="M100.9,131.613c-1.308,1.308-3.081,1.657-4.389.349a3.35,3.35,0,1,1,4.738-4.738C102.555,128.532,102.205,130.3,100.9,131.613Z" transform="translate(-95.527 -126.243)" fill="#afafaf"/>
              </g>
            </g>
            <g id="Grupo_1093227" data-name="Grupo 1093227" transform="translate(16.612 8.254)">
              <g id="Grupo_1093226" data-name="Grupo 1093226">
                <path id="Trazado_835745" data-name="Trazado 835745" d="M138.147,131.613c1.308,1.308,3.081,1.657,4.389.349a3.35,3.35,0,0,0-4.738-4.738c-1.308,1.308-.959,3.08.349,4.389Z" transform="translate(-136.974 -126.243)" fill="#afafaf"/>
              </g>
            </g>
          </g>
          <g id="Grupo_1093230" data-name="Grupo 1093230">
            <g id="Grupo_1093229" data-name="Grupo 1093229">
              <path id="Trazado_835746" data-name="Trazado 835746" d="M73.347,15.323v7.524H4.667V15.323a1.392,1.392,0,0,1,1.392-1.392h65.9A1.392,1.392,0,0,1,73.347,15.323Z" transform="translate(-4.667 -13.931)" fill="#afafaf"/>
            </g>
          </g>
          <g id="Grupo_1093232" data-name="Grupo 1093232" transform="translate(3.608 2.751)">
            <g id="Grupo_1093231" data-name="Grupo 1093231">
              <circle id="Elipse_11074" data-name="Elipse 11074" cx="1.707" cy="1.707" r="1.707" fill="#fc5d3d"/>
            </g>
          </g>
          <g id="Grupo_1093234" data-name="Grupo 1093234" transform="translate(10.192 2.751)">
            <g id="Grupo_1093233" data-name="Grupo 1093233" transform="translate(0)">
              <circle id="Elipse_11075" data-name="Elipse 11075" cx="1.707" cy="1.707" r="1.707" fill="#f0c020"/>
            </g>
          </g>
          <g id="Grupo_1093236" data-name="Grupo 1093236" transform="translate(16.775 2.751)">
            <g id="Grupo_1093235" data-name="Grupo 1093235">
              <circle id="Elipse_11076" data-name="Elipse 11076" cx="1.707" cy="1.707" r="1.707" fill="#13bf6d"/>
            </g>
          </g>
          <g id="Grupo_1093238" data-name="Grupo 1093238" transform="translate(2.912 10.739)">
            <g id="Grupo_1093237" data-name="Grupo 1093237">
              <path id="Trazado_835747" data-name="Trazado 835747" d="M76.9,102.2h-57.5a.7.7,0,1,1,0-1.392h56.8V53.2a.7.7,0,0,1,1.392,0V101.5A.7.7,0,0,1,76.9,102.2Zm-60.281,0h-.8a.7.7,0,1,1,0-1.392h.8a.7.7,0,0,1,0,1.392Z" transform="translate(-15.124 -52.499)" fill="#ffcbc3"/>
            </g>
          </g>
        </g>
        <path id="Trazado_835748" data-name="Trazado 835748" d="M88.956,107.655a.7.7,0,1,0,.983.058A.717.717,0,0,0,88.956,107.655Z" transform="translate(-64.622 -80.742)"/>
        <path id="Trazado_835749" data-name="Trazado 835749" d="M77.923,100.013a.712.712,0,0,0-.972.164,11.246,11.246,0,0,0-2.141,6.543,11.918,11.918,0,0,0,5.109,9.539l.468,3.945a1.914,1.914,0,0,0,1.9,1.687H96.954a1.914,1.914,0,0,0,1.9-1.687l.468-3.945a11.918,11.918,0,0,0,5.109-9.539c0-6.9-6.543-12.621-14.81-12.621a16.606,16.606,0,0,0-8.336,2.186.7.7,0,0,0-.253.952.716.716,0,0,0,.952.253,15.045,15.045,0,0,1,6.694-1.971l-.825,2.77a.7.7,0,0,0,.668.9h1.342l-.9,2.8a.7.7,0,1,0,1.325.429l1.2-3.706a.7.7,0,0,0-.663-.91H89.453l.684-2.292c7.3.229,12.9,5.278,12.9,11.219a10.591,10.591,0,0,1-4.775,8.584.7.7,0,0,0-.29.487l-.5,4.249a.523.523,0,0,1-.518.459H93.078l.17-3.467a.7.7,0,0,0-1.392-.07l-.171,3.536H87.555l-.171-3.536a.7.7,0,0,0-1.392.07l.17,3.467H82.286a.523.523,0,0,1-.518-.459l-.5-4.249a.709.709,0,0,0-.29-.487A10.591,10.591,0,0,1,76.2,106.72a9.849,9.849,0,0,1,1.885-5.736.7.7,0,0,0-.164-.972Z" transform="translate(-54.584 -71.081)"/>
        <path id="Trazado_835750" data-name="Trazado 835750" d="M94.207,124.924a4.044,4.044,0,0,0,0,5.722c1.567,1.58,3.783,1.238,5.374-.348v0c1.6-1.6,1.922-3.817.348-5.371A4.042,4.042,0,0,0,94.207,124.924Zm4.388,4.388v0c-1.024,1.024-2.359,1.378-3.4.348a2.655,2.655,0,0,1,3.753-3.756C99.986,126.967,99.614,128.3,98.6,129.312Z" transform="translate(-67.724 -92.467)"/>
        <path id="Trazado_835751" data-name="Trazado 835751" d="M141.246,130.655a4.046,4.046,0,0,0-5.722-5.722c-1.479,1.479-1.336,3.689.349,5.373C137.45,131.883,139.655,132.246,141.246,130.655Zm-4.738-4.738a2.654,2.654,0,0,1,3.753,3.753c-1.033,1.033-2.38.675-3.4-.349S135.474,126.951,136.508,125.917Z" transform="translate(-97.657 -92.476)"/>
        <path id="Trazado_835752" data-name="Trazado 835752" d="M130.023,153.155a.7.7,0,0,0,0,.983l.512.515a.7.7,0,0,0,.986-.986l-.512-.512A.711.711,0,0,0,130.023,153.155Z" transform="translate(-94.277 -113.551)"/>
        <path id="Trazado_835753" data-name="Trazado 835753" d="M119.543,154.653a.7.7,0,0,0,.983,0l.515-.512a.7.7,0,0,0,0-.986.711.711,0,0,0-.986,0l-.512.512A.7.7,0,0,0,119.543,154.653Z" transform="translate(-86.714 -113.551)"/>
        <path id="Trazado_835754" data-name="Trazado 835754" d="M195.195,136.731a.7.7,0,0,0,.983,0l3.762-3.762a.7.7,0,0,0,0-.986l-3.762-3.759a.708.708,0,0,0-.983,0,.692.692,0,0,0,0,.983l3.266,3.269-3.266,3.269A.691.691,0,0,0,195.195,136.731Z" transform="translate(-141.3 -95.562)"/>
        <path id="Trazado_835755" data-name="Trazado 835755" d="M47.447,128.225a.708.708,0,0,0-.983,0L42.7,131.984a.7.7,0,0,0,0,.986l3.762,3.762a.7.7,0,1,0,.983-.986l-3.269-3.269,3.269-3.269a.689.689,0,0,0,0-.983Z" transform="translate(-31.27 -95.562)"/>
        <circle id="Elipse_11077" data-name="Elipse 11077" cx="0.696" cy="0.696" r="0.696" transform="translate(0.001 29.689)"/>
        <path id="Trazado_835756" data-name="Trazado 835756" d="M70.151,11.431H4.255a2.09,2.09,0,0,0-2.088,2.088c0,.092,0,9.251,0,25.512a.7.7,0,1,0,1.392,0V21.738H70.846V74.256a.7.7,0,0,1-.7.7H4.256a.7.7,0,0,1-.7-.7V44.6a.7.7,0,1,0-1.392,0V74.256a2.091,2.091,0,0,0,2.088,2.088H70.15a2.091,2.091,0,0,0,2.088-2.088c0-6.758,0-58.911,0-60.737A2.091,2.091,0,0,0,70.151,11.431ZM3.559,20.346V13.519a.7.7,0,0,1,.7-.7h65.9a.7.7,0,0,1,.7.7v6.827Z" transform="translate(-2.167 -11.431)"/>
        <path id="Trazado_835757" data-name="Trazado 835757" d="M17.526,21.309a2.4,2.4,0,1,0,2.4,2.4,2.409,2.409,0,0,0-2.4-2.4Zm0,3.414a1.011,1.011,0,1,1,1.011-1.011A1.017,1.017,0,0,1,17.526,24.723Z" transform="translate(-11.513 -18.559)"/>
        <path id="Trazado_835758" data-name="Trazado 835758" d="M41.173,21.309a2.4,2.4,0,1,0,2.4,2.4,2.405,2.405,0,0,0-2.4-2.4Zm0,3.416a1.012,1.012,0,1,1,1.011-1.014A1.017,1.017,0,0,1,41.173,24.725Z" transform="translate(-28.578 -18.559)"/>
        <path id="Trazado_835759" data-name="Trazado 835759" d="M64.823,21.309a2.4,2.4,0,1,0,2.4,2.4,2.405,2.405,0,0,0-2.4-2.4Zm0,3.416a1.012,1.012,0,1,1,1.011-1.014A1.017,1.017,0,0,1,64.823,24.725Z" transform="translate(-45.643 -18.559)"/>
        <path id="Trazado_835760" data-name="Trazado 835760" d="M122.62,27.439H94.776a.7.7,0,1,0,0,1.392H122.62a.7.7,0,0,0,0-1.392Z" transform="translate(-68.488 -22.982)"/>
        <circle id="Elipse_11078" data-name="Elipse 11078" cx="0.696" cy="0.696" r="0.696" transform="translate(56.22 4.457)"/>
        <path id="Trazado_835761" data-name="Trazado 835761" d="M220.462,27.439h-5.686a.7.7,0,0,0,0,1.392h5.686a.7.7,0,1,0,0-1.392Z" transform="translate(-155.076 -22.982)"/>
      </g>
    </g>
  </g>
</svg>
