<svg xmlns="http://www.w3.org/2000/svg" width="84" height="84" viewBox="0 0 84 84">
  <g id="Grupo_1093242" data-name="Grupo 1093242" transform="translate(-758 -3374)">
    <g id="Grupo_1093058" data-name="Grupo 1093058" transform="translate(369 232.465)">
      <rect id="Rectángulo_381829" data-name="Rectángulo 381829" width="84" height="84" rx="7" transform="translate(389 3141.535)" fill="#fff"/>
    </g>
    <g id="software_2_" data-name="software (2)" transform="translate(768 3388.5)">
      <path id="Trazado_835762" data-name="Trazado 835762" d="M7.5,10.679V46.554a2.679,2.679,0,0,0,2.679,2.679H61.058a2.679,2.679,0,0,0,2.679-2.679V10.679A2.679,2.679,0,0,0,61.058,8H10.179A2.679,2.679,0,0,0,7.5,10.679Zm0,0" transform="translate(-6.571 -6.571)" fill="#87d1ea"/>
      <path id="Trazado_835763" data-name="Trazado 835763" d="M419.053,8h-2.971a2.679,2.679,0,0,1,2.679,2.679V46.554a2.679,2.679,0,0,1-2.679,2.679h2.971a2.679,2.679,0,0,0,2.679-2.679V10.679A2.679,2.679,0,0,0,419.053,8Zm0,0" transform="translate(-364.567 -6.571)" fill="#5fa6ce"/>
      <path id="Trazado_835764" data-name="Trazado 835764" d="M7.5,283.02v4.5a2.679,2.679,0,0,0,2.679,2.679H61.058a2.679,2.679,0,0,0,2.679-2.679v-4.5Zm0,0" transform="translate(-6.571 -247.541)" fill="#cae5ed"/>
      <path id="Trazado_835765" data-name="Trazado 835765" d="M418.761,287.523a2.679,2.679,0,0,1-2.679,2.679h2.971c.05,0,.1,0,.148,0,.082,0,.163-.013.243-.024.05-.007.1-.016.149-.026l.13-.03a2.69,2.69,0,0,0,1.979-2.187c.007-.044.013-.089.017-.134.009-.09.014-.182.014-.274v-4.5h-2.971Zm0,0" transform="translate(-364.567 -247.541)" fill="#9bb8d1"/>
      <path id="Trazado_835766" data-name="Trazado 835766" d="M190.817,341.031l-1.571,7.27H200.48l-1.571-7.27Zm0,0" transform="translate(-165.816 -298.37)" fill="#3a4d7b"/>
      <path id="Trazado_835767" data-name="Trazado 835767" d="M206.6,343.636l-.562-2.6H197.95l-.563,2.6Zm0,0" transform="translate(-172.948 -298.37)" fill="#242e5b"/>
      <path id="Trazado_835768" data-name="Trazado 835768" d="M127.561,391.041H153.2a.5.5,0,0,0,.339-.858c-2.861-2.671-7.686-4.426-13.157-4.426s-10.3,1.755-13.157,4.426A.5.5,0,0,0,127.561,391.041Zm0,0" transform="translate(-111.333 -337.559)" fill="#cae5ed"/>
      <path id="Trazado_835769" data-name="Trazado 835769" d="M237.886,390.184c-2.862-2.671-7.687-4.426-13.157-4.426q-.707,0-1.4.039a13.849,13.849,0,0,1,9.528,4.387c.266.307.089.858-.275.858h4.962A.5.5,0,0,0,237.886,390.184Zm0,0" transform="translate(-195.681 -337.559)" fill="#9bb8d1"/>
      <path id="Trazado_835770" data-name="Trazado 835770" d="M406.652,200l-3.938-6.822a.547.547,0,0,1,.2-.748l2.936-1.7a.548.548,0,0,0,0-.949l-11.541-6.662a.932.932,0,0,0-1.4.807v13.326a.548.548,0,0,0,.822.474l2.936-1.7a.547.547,0,0,1,.748.2l3.939,6.821a.547.547,0,0,0,.748.2l4.348-2.511A.548.548,0,0,0,406.652,200Zm0,0" transform="translate(-344.264 -159.901)" fill="#ea6789"/>
      <path id="Trazado_835771" data-name="Trazado 835771" d="M243.042,2.357h23.582a1.753,1.753,0,0,1,1.751,1.751V23.342a.929.929,0,0,0,1.857,0V4.108A3.612,3.612,0,0,0,266.624.5H243.042a.929.929,0,0,0,0,1.857Zm0,0" transform="translate(-212.137)"/>
      <path id="Trazado_835772" data-name="Trazado 835772" d="M233.535,84.506l7.273,4.2a.931.931,0,0,0,.464.124h0a.931.931,0,0,0,.464-.124l7.274-4.2a.929.929,0,0,0,.464-.8V75.3a.928.928,0,0,0-.464-.8l-.006,0-7.267-4.2a.928.928,0,0,0-.929,0l-7.267,4.2-.007,0a.928.928,0,0,0-.464.8v8.4A.929.929,0,0,0,233.535,84.506Zm1.393-1.34V76.911l.312.18,5.1,2.947v6.254Zm7.274,3.127V80.039l5.1-2.947.312-.18v6.254Zm-.929-14.117,5.416,3.127-.8.461-4.618,2.666-4.619-2.666-.8-.461Zm0,0" transform="translate(-204.214 -61.048)"/>
      <path id="Trazado_835773" data-name="Trazado 835773" d="M101.242,83.705h.053a.928.928,0,0,0,.926-.876l.13-2.319a.929.929,0,0,0-.508-.881L99.77,78.584a.929.929,0,1,0-.838,1.657l.54.273L93.9,83.732V77.3l.506.331a.929.929,0,1,0,1.017-1.554L93.478,74.8a.928.928,0,0,0-1.017,0l-1.943,1.271a.929.929,0,1,0,1.017,1.554l.506-.331c0,8.851.027,8.268.024,8.255,0,.021.01.039.015.057.184.631.254.333,7.392,4.559l-.54.273a.929.929,0,0,0,.419,1.758.919.919,0,0,0,.418-.1l2.073-1.047a.928.928,0,0,0,.508-.881l-.13-2.319a.928.928,0,1,0-1.854.1l.033.6-5.574-3.218,5.574-3.219-.033.6A.927.927,0,0,0,101.242,83.705Zm0,0" transform="translate(-78.943 -64.97)"/>
      <path id="Trazado_835774" data-name="Trazado 835774" d="M63.192,39.633l-3.748-6.492,2.606-1.505a1.476,1.476,0,0,0,0-2.557L50.508,22.417a1.861,1.861,0,0,0-2.791,1.611V34.551H1.857V4.108A1.753,1.753,0,0,1,3.608,2.357H27.19A.929.929,0,1,0,27.19.5H3.608A3.612,3.612,0,0,0,0,4.108V39.982A3.612,3.612,0,0,0,3.608,43.59H23.85l-.958,4.432q-.614.157-1.214.347a.928.928,0,1,0,.561,1.77q.776-.246,1.581-.432a.951.951,0,0,0,.123-.028,23.171,23.171,0,0,1,5.1-.552,19.618,19.618,0,0,1,11.632,3.426H17.416a13.6,13.6,0,0,1,1.614-1.046.929.929,0,0,0-.9-1.624,14.579,14.579,0,0,0-2.872,2.062,1.424,1.424,0,0,0,.973,2.465H41.865a1.424,1.424,0,0,0,.972-2.465A17.573,17.573,0,0,0,35.2,48.028l-.96-4.438H54.487a3.592,3.592,0,0,0,1.574-.36l.225.39a1.476,1.476,0,0,0,2.017.54l4.348-2.511a1.475,1.475,0,0,0,.541-2.016ZM33.213,47.61a25.844,25.844,0,0,0-8.33-.005l.867-4.015h6.593Zm21.274-5.878H3.608a1.752,1.752,0,0,1-1.751-1.75V36.408h45.86v.946a1.477,1.477,0,0,0,2.215,1.279l2.606-1.5,2.589,4.484A1.753,1.753,0,0,1,54.487,41.733Zm3.218.629-.523-.905c-.009-.018-.019-.035-.03-.052l-3.2-5.534a1.47,1.47,0,0,0-.9-.688,1.5,1.5,0,0,0-.385-.051,1.472,1.472,0,0,0-.736.2l-2.364,1.365.005-12.669,10.97,6.333-2.365,1.365a1.478,1.478,0,0,0-.541,2.017l3.748,6.492Zm0,0"/>
    </g>
  </g>
</svg>
