<svg xmlns="http://www.w3.org/2000/svg" width="84" height="84" viewBox="0 0 84 84">
  <g id="Grupo_1093243" data-name="Grupo 1093243" transform="translate(-1178 -3374)">
    <g id="Grupo_1093059" data-name="Grupo 1093059" transform="translate(789 232.465)">
      <rect id="Rect치ngulo_381829" data-name="Rect치ngulo 381829" width="84" height="84" rx="7" transform="translate(389 3141.535)" fill="#fff"/>
    </g>
    <g id="software_1_" data-name="software (1)" transform="translate(1187 3383)">
      <path id="Trazado_835775" data-name="Trazado 835775" d="M69.832,132.933H9.519A2.019,2.019,0,0,1,7.5,130.914v-37.4A2.019,2.019,0,0,1,9.519,91.5H69.832a2.019,2.019,0,0,1,2.019,2.019v37.4A2.018,2.018,0,0,1,69.832,132.933Z" transform="translate(-6.529 -79.653)" fill="#685c79"/>
      <path id="Trazado_835776" data-name="Trazado 835776" d="M462.793,91.5h-3.884a2.019,2.019,0,0,1,2.019,2.019v37.4a2.019,2.019,0,0,1-2.019,2.019h3.884a2.019,2.019,0,0,0,2.019-2.019v-37.4A2.019,2.019,0,0,0,462.793,91.5Z" transform="translate(-399.49 -79.653)" fill="#594f69"/>
      <rect id="Rect치ngulo_387383" data-name="Rect치ngulo 387383" width="33.664" height="56.582" transform="translate(61.438 15.732) rotate(90)" fill="#ade7ff"/>
      <path id="Trazado_835777" data-name="Trazado 835777" d="M147.348,478.384H113.942A1.942,1.942,0,0,1,112,476.442h0a1.942,1.942,0,0,1,1.942-1.942h33.405a1.942,1.942,0,0,1,1.942,1.942h0A1.942,1.942,0,0,1,147.348,478.384Z" transform="translate(-97.498 -413.062)" fill="#685c79"/>
      <path id="Trazado_835778" data-name="Trazado 835778" d="M358.775,474.5h-3.9a1.942,1.942,0,1,1,0,3.884h3.9a1.942,1.942,0,1,0,0-3.884Z" transform="translate(-308.925 -413.062)" fill="#594f69"/>
      <path id="Trazado_835779" data-name="Trazado 835779" d="M185.825,419.657H161.3a10.244,10.244,0,0,0,4.181-8.157h16.159A10.244,10.244,0,0,0,185.825,419.657Z" transform="translate(-140.418 -358.22)" fill="#ade7ff"/>
      <path id="Trazado_835780" data-name="Trazado 835780" d="M293.738,411.5h-3.669a10.244,10.244,0,0,0,4.181,8.157h3.669A10.244,10.244,0,0,1,293.738,411.5Z" transform="translate(-252.511 -358.22)" fill="#82d2f5"/>
      <path id="Trazado_835781" data-name="Trazado 835781" d="M184.119,151v15.837l-12.559,6-12.559-6V151l12.559-6Z" transform="translate(-138.413 -126.226)" fill="#ff2c5c"/>
      <path id="Trazado_835782" data-name="Trazado 835782" d="M244.324,151l-3.884,1.856-12.28-6.134,3.6-1.722Z" transform="translate(-198.618 -126.226)" fill="#e62753"/>
      <path id="Trazado_835783" data-name="Trazado 835783" d="M171.559,197.343V213.18l-12.559-6V191.343Z" transform="translate(-138.413 -166.568)" fill="#4fb1f5"/>
      <path id="Trazado_835784" data-name="Trazado 835784" d="M256,197.343V213.18l12.559-6V191.343Z" transform="translate(-222.854 -166.568)" fill="#ffd659"/>
      <path id="Trazado_835785" data-name="Trazado 835785" d="M326.884,191.343,323,193.2l.059,15.809,3.826-1.828Z" transform="translate(-281.178 -166.568)" fill="#ffbd54"/>
      <circle id="Elipse_11079" data-name="Elipse 11079" cx="1.942" cy="1.942" r="1.942" transform="translate(48.732 0.971)" fill="#ff2c5c"/>
      <circle id="Elipse_11080" data-name="Elipse 11080" cx="1.942" cy="1.942" r="1.942" transform="translate(31.204 0.971)" fill="#ff2c5c"/>
      <circle id="Elipse_11081" data-name="Elipse 11081" cx="1.942" cy="1.942" r="1.942" transform="translate(13.676 0.971)" fill="#ff2c5c"/>
      <path id="Trazado_835786" data-name="Trazado 835786" d="M63.3,10.876H49.72a.971.971,0,0,0,0,1.942H63.3a1.049,1.049,0,0,1,1.048,1.048v37.4A1.049,1.049,0,0,1,63.3,52.309H2.99a1.049,1.049,0,0,1-1.048-1.048v-37.4A1.049,1.049,0,0,1,2.99,12.818H24.326v1.942H4.855a.971.971,0,0,0-.971.971V41.39a.971.971,0,0,0,1.942,0V16.7h18.5v5.21L20.168,23.9a.977.977,0,0,0-.552.876V40.612a.971.971,0,0,0,.552.876l12.559,6a.983.983,0,0,0,.837,0l7.061-3.373a.971.971,0,0,0-.837-1.752l-5.671,2.709V31.387l10.617-5.072V40l-1.443.689a.971.971,0,0,0,.837,1.752l1.995-.953a.971.971,0,0,0,.552-.876V24.775a.976.976,0,0,0-.552-.876l-4.157-1.986V16.7h18.5V48.425H5.827V45.533a.971.971,0,0,0-1.942,0V49.4a.971.971,0,0,0,.971.971H61.438a.971.971,0,0,0,.971-.971V15.732a.971.971,0,0,0-.971-.971H41.967V12.818h3.609a.971.971,0,1,0,0-1.942H41.967V8.934h8.707a.971.971,0,0,0,.971-.971V5.66a2.913,2.913,0,1,0-1.942,0V6.992H41a.971.971,0,0,0-.971.971v2.913H34.118V5.66a2.913,2.913,0,1,0-1.942,0v5.217H26.268V7.963a.971.971,0,0,0-.971-.971H16.589V5.66a2.913,2.913,0,1,0-1.942,0v2.3a.971.971,0,0,0,.971.971h8.707v1.942H2.99A2.993,2.993,0,0,0,0,13.866v37.4a2.993,2.993,0,0,0,2.99,2.99H24.043a9.255,9.255,0,0,1-3.473,6.215H16.444a2.913,2.913,0,0,0,0,5.827H49.849a2.913,2.913,0,0,0,0-5.827H45.725a9.348,9.348,0,0,1-3.475-6.215H63.3a2.993,2.993,0,0,0,2.99-2.99v-37.4A2.993,2.993,0,0,0,63.3,10.876ZM50.675,1.942a.971.971,0,1,1-.971.971A.972.972,0,0,1,50.675,1.942Zm-17.528,0a.971.971,0,1,1-.971.971A.972.972,0,0,1,33.146,1.942Zm-17.528,0a.971.971,0,1,1-.971.971A.972.972,0,0,1,15.618,1.942ZM26.268,16.7h5.907v1.459l-5.907,2.822Zm17.185,8.072L33.146,29.7,22.84,24.775l10.307-4.924Zm-21.895,1.54,10.617,5.072V45.072L21.558,40Zm18.467-5.33-5.907-2.822V16.7h5.907Zm0-8.166v1.942H34.118V12.818Zm-7.85,0v1.942H26.268V12.818ZM50.82,63.38a.972.972,0,0,1-.971.971H16.444a.971.971,0,1,1,0-1.942H49.849A.972.972,0,0,1,50.82,63.38Zm-7.88-2.913H23.353A10.952,10.952,0,0,0,26,54.251H40.3A10.953,10.953,0,0,0,42.94,60.466Z"/>
    </g>
  </g>
</svg>
