<svg xmlns="http://www.w3.org/2000/svg" xmlns:xlink="http://www.w3.org/1999/xlink" width="112" height="129" viewBox="0 0 112 129">
  <defs>
    <clipPath id="clip-path">
      <rect id="Rect치ngulo_381920" data-name="Rect치ngulo 381920" width="71" height="74" transform="translate(-0.157 -0.418)" fill="#fff" stroke="#707070" stroke-width="1"/>
    </clipPath>
  </defs>
  <g id="Grupo_1093200" data-name="Grupo 1093200" transform="translate(-623 -1250)">
    <g id="Grupo_1077689" data-name="Grupo 1077689" transform="translate(-606.843 -1489.914)">
      <g id="Grupo_1072691" data-name="Grupo 1072691" transform="translate(1230 2740)">
        <g id="Grupo_1072676" data-name="Grupo 1072676">
          <g id="Grupo_1072005" data-name="Grupo 1072005">
            <rect id="Rect치ngulo_381506" data-name="Rect치ngulo 381506" width="112" height="129" rx="28" transform="translate(-0.157 -0.086)" fill="#e9e2fe"/>
          </g>
          <g id="Enmascarar_grupo_1059121" data-name="Enmascarar grupo 1059121" transform="translate(0 55.333)" clip-path="url(#clip-path)">
            <path id="Elipse_9678" data-name="Elipse 9678" d="M43.869,24.18A19.689,19.689,0,1,0,63.558,43.869,19.711,19.711,0,0,0,43.869,24.18m0-24.18A43.869,43.869,0,1,1,0,43.869,43.869,43.869,0,0,1,43.869,0Z" transform="translate(-34.888 17.968)" fill="#6e40fb" opacity="0.856"/>
          </g>
          <g id="Grupo_1072675" data-name="Grupo 1072675" transform="translate(10.199 14.078)">
            <path id="Trazado_813500" data-name="Trazado 813500" d="M43.783,0A43.783,43.783,0,1,0,87.566,43.783,43.783,43.783,0,0,0,43.783,0Z" transform="translate(0 0)" fill="#6e40fb"/>
          </g>
        </g>
      </g>
    </g>
    <g id="escudo-seguro" transform="translate(607.162 1269.854)">
      <g id="Grupo_1072668" data-name="Grupo 1072668" transform="translate(39.382 1.7)">
        <path id="Trazado_819206" data-name="Trazado 819206" d="M99.447,41.723,78.478,62.691a3.83,3.83,0,0,1-5.417,0L63.018,52.647a3.83,3.83,0,0,1,5.417-5.417l7.336,7.336L94.03,36.306a3.83,3.83,0,0,1,5.417,5.417ZM81.231,10.768a132.98,132.98,0,0,1-32.779,13.9v17.38c0,32.607,28.2,46.179,32.779,46.179s32.78-13.572,32.78-46.179V24.672A137.131,137.131,0,0,1,81.231,10.768Z" transform="translate(-48.452 -10.768)" fill="#85bf4f"/>
        <path id="Trazado_819207" data-name="Trazado 819207" d="M150.158,192.872,171.126,171.9a3.83,3.83,0,1,0-5.417-5.417L147.45,184.747l-7.336-7.336a3.83,3.83,0,0,0-5.417,5.417l10.044,10.044A3.83,3.83,0,0,0,150.158,192.872Z" transform="translate(-120.131 -140.949)" fill="#ffcd85"/>
      </g>
      <g id="Grupo_1072669" data-name="Grupo 1072669" transform="translate(37.681 0)">
        <path id="Trazado_819208" data-name="Trazado 819208" d="M105.391,13.963A134.512,134.512,0,0,1,73.027.236a1.7,1.7,0,0,0-1.729,0A130.829,130.829,0,0,1,38.932,13.963,1.7,1.7,0,0,0,37.681,15.6v17.38A50,50,0,0,0,52.865,69.516c7.457,7.307,16.144,11.348,19.3,11.348S84,76.823,91.459,69.516a50,50,0,0,0,15.183-36.532V15.6A1.7,1.7,0,0,0,105.391,13.963Zm-2.15,19.021a46.666,46.666,0,0,1-14.162,34.1C81.745,74.271,73.9,77.461,72.162,77.461s-9.583-3.19-16.917-10.376a46.667,46.667,0,0,1-14.162-34.1V16.895A133.964,133.964,0,0,0,72.162,3.672,138.2,138.2,0,0,0,103.24,16.894Z" transform="translate(-37.681 0)" fill="#000003"/>
        <path id="Trazado_819209" data-name="Trazado 819209" d="M93,100.021a1.7,1.7,0,0,0-2.206-.959c-3.039,1.2-6.158,2.3-9.27,3.276a1.7,1.7,0,0,0-1.192,1.623v6.569a1.7,1.7,0,0,0,3.4,0V105.2c2.792-.9,5.581-1.9,8.307-2.977A1.7,1.7,0,0,0,93,100.021Z" transform="translate(-73.592 -83.316)" fill="#000003"/>
        <path id="Trazado_819210" data-name="Trazado 819210" d="M171.907,89.617a1.7,1.7,0,0,0,.682-.143l.031-.014a1.7,1.7,0,1,0-1.374-3.112l-.027.012a1.7,1.7,0,0,0,.688,3.257Z" transform="translate(-149.272 -72.59)" fill="#000003"/>
        <path id="Trazado_819211" data-name="Trazado 819211" d="M316.122,345.805a1.7,1.7,0,0,0-2.355.494,41.4,41.4,0,0,1-4.888,6.106A43.449,43.449,0,0,1,304,356.745a1.7,1.7,0,1,0,2.063,2.705,46.9,46.9,0,0,0,5.262-4.682,44.763,44.763,0,0,0,5.291-6.609A1.7,1.7,0,0,0,316.122,345.805Z" transform="translate(-261.375 -290.956)" fill="#000003"/>
        <path id="Trazado_819212" data-name="Trazado 819212" d="M277.51,432.2l-.1.057a1.7,1.7,0,1,0,1.7,2.944l.113-.066a1.7,1.7,0,1,0-1.719-2.935Z" transform="translate(-238.835 -363.742)" fill="#000003"/>
        <path id="Trazado_819213" data-name="Trazado 819213" d="M132.261,167.142a5.531,5.531,0,1,0-7.822,7.823l10.044,10.044a5.533,5.533,0,0,0,7.822,0l20.968-20.968a5.531,5.531,0,0,0-7.823-7.822l-17.056,17.056Zm25.595-8.518a2.129,2.129,0,1,1,3.011,3.011L139.9,182.6a2.131,2.131,0,0,1-3.012,0L126.844,172.56a2.129,2.129,0,0,1,3.011-3.012l7.335,7.336a1.7,1.7,0,0,0,2.405,0Z" transform="translate(-109.374 -130.182)" fill="#000003"/>
      </g>
    </g>
  </g>
</svg>
