<svg xmlns="http://www.w3.org/2000/svg" width="130" height="91" viewBox="0 0 130 91">
  <g id="Grupo_1093219" data-name="Grupo 1093219" transform="translate(-199 -2525)">
    <g id="Grupo_1072664" data-name="Grupo 1072664" transform="translate(-190 -601.535)">
      <rect id="Rectángulo_381829" data-name="Rectángulo 381829" width="130" height="60" rx="7" transform="translate(389 3141.535)" fill="#1e5af9"/>
    </g>
    <g id="Grupo_1093218" data-name="Grupo 1093218" transform="translate(-29.361 -227.672)">
      <g id="internet" transform="translate(239 2752.671)">
        <g id="Grupo_1093205" data-name="Grupo 1093205" transform="translate(1.593 17.836)">
          <g id="Grupo_1093204" data-name="Grupo 1093204" transform="translate(0 0)">
            <path id="Trazado_835726" data-name="Trazado 835726" d="M8.557,125.724l-1.057,1.9v55.033a6.576,6.576,0,0,0,6.576,6.576h92.386a6.576,6.576,0,0,0,6.576-6.576V127.628l-1.057-1.9H8.557Z" transform="translate(-7.5 -125.724)" fill="#ddeafb"/>
          </g>
        </g>
        <g id="Grupo_1093207" data-name="Grupo 1093207" transform="translate(1.593 17.836)">
          <g id="Grupo_1093206" data-name="Grupo 1093206" transform="translate(0 0)">
            <path id="Trazado_835727" data-name="Trazado 835727" d="M102.271,125.724v46.169a6.576,6.576,0,0,1-6.576,6.576H7.5v4.192a6.576,6.576,0,0,0,6.576,6.576h92.386a6.576,6.576,0,0,0,6.576-6.576V127.628l-1.057-1.9h-9.71Z" transform="translate(-7.5 -125.724)" fill="#cbe2ff"/>
          </g>
        </g>
        <g id="Grupo_1093209" data-name="Grupo 1093209" transform="translate(1.593 1.593)">
          <g id="Grupo_1093208" data-name="Grupo 1093208" transform="translate(0 0)">
            <path id="Trazado_835728" data-name="Trazado 835728" d="M106.462,49.232H14.076A6.576,6.576,0,0,0,7.5,55.808V67.379H113.038V55.808A6.576,6.576,0,0,0,106.462,49.232Z" transform="translate(-7.5 -49.232)" fill="#698ed5"/>
          </g>
        </g>
        <g id="Grupo_1093211" data-name="Grupo 1093211" transform="translate(96.363 1.593)">
          <g id="Grupo_1093210" data-name="Grupo 1093210" transform="translate(0 0)">
            <path id="Trazado_835729" data-name="Trazado 835729" d="M457.987,49.232H453.8V67.379h10.767V55.808A6.576,6.576,0,0,0,457.987,49.232Z" transform="translate(-453.795 -49.232)" fill="#4073c8"/>
          </g>
        </g>
        <g id="Grupo_1093216" data-name="Grupo 1093216" transform="translate(30.816 59.203)">
          <g id="Grupo_1093212" data-name="Grupo 1093212" transform="translate(17.064 17.064)">
            <path id="Trazado_835730" data-name="Trazado 835730" d="M238.309,408.836l-7.944-7.944-4.886,4.886,7.944,7.944a1.062,1.062,0,0,0,1.5,0l3.385-3.385A1.062,1.062,0,0,0,238.309,408.836Z" transform="translate(-225.479 -400.892)" fill="#f6f1f1"/>
          </g>
          <g id="Grupo_1093213" data-name="Grupo 1093213" transform="translate(17.065 19.741)">
            <path id="Trazado_835731" data-name="Trazado 835731" d="M236.851,417.3l-1.926,1.926a1.062,1.062,0,0,1-1.5,0L227.69,413.5l-2.21,2.21,7.944,7.944a1.062,1.062,0,0,0,1.5,0l3.385-3.385a1.062,1.062,0,0,0,0-1.5Z" transform="translate(-225.48 -413.496)" fill="#efe7e4"/>
          </g>
          <g id="Grupo_1093214" data-name="Grupo 1093214" transform="translate(0 0)">
            <path id="Trazado_835732" data-name="Trazado 835732" d="M146.553,320.6l28.059,10.443a.849.849,0,0,1,.3,1.4l-17.89,17.89a.849.849,0,0,1-1.4-.3l-10.443-28.059A1.062,1.062,0,0,1,146.553,320.6Z" transform="translate(-145.119 -320.532)" fill="#f6f1f1"/>
          </g>
          <g id="Grupo_1093215" data-name="Grupo 1093215" transform="translate(0 0)">
            <path id="Trazado_835733" data-name="Trazado 835733" d="M174.613,331.044l-3.655-1.36L159,341.637a.849.849,0,0,1-1.4-.3l-7.179-19.29-3.875-1.442a1.062,1.062,0,0,0-1.365,1.365l10.443,28.059a.849.849,0,0,0,1.4.3l17.89-17.89a.849.849,0,0,0-.3-1.4Z" transform="translate(-145.12 -320.532)" fill="#efe7e4"/>
          </g>
        </g>
        <g id="Grupo_1093217" data-name="Grupo 1093217" transform="translate(0 0)">
          <path id="Trazado_835734" data-name="Trazado 835734" d="M78.981,265.492H58.507l-2.142-2.142,5.376-5.376a2.442,2.442,0,0,0-.875-4.015l-28.06-10.443a2.654,2.654,0,0,0-3.413,3.414L36.3,265.492H8.168a4.988,4.988,0,0,1-4.983-4.983V226.153a1.593,1.593,0,0,0-3.185,0v34.356a8.178,8.178,0,0,0,8.168,8.168H37.486l2.349,6.311a2.442,2.442,0,0,0,4.015.876l5.376-5.375,5.472,5.472a2.658,2.658,0,0,0,3.753,0l3.385-3.385a2.658,2.658,0,0,0,0-3.754h0l-.144-.144H78.981a1.593,1.593,0,0,0,0-3.186Zm-22.406,7.84-6.223-6.223a1.593,1.593,0,0,0-2.253,0l-5.683,5.683-9.634-25.887,25.887,9.635-5.683,5.683a1.592,1.592,0,0,0,0,2.252l6.223,6.223Z" transform="translate(0 -185.737)"/>
          <path id="Trazado_835735" data-name="Trazado 835735" d="M100.555,41.732H94.986a1.593,1.593,0,1,0,0,3.185h5.568a4.989,4.989,0,0,1,4.983,4.983v9.979H3.185V49.9a4.989,4.989,0,0,1,4.983-4.983H87.621a1.593,1.593,0,1,0,0-3.185H8.168A8.178,8.178,0,0,0,0,49.9V74.981a1.593,1.593,0,0,0,3.185,0V63.064H105.538V116.5a4.989,4.989,0,0,1-4.983,4.983H86.612a1.593,1.593,0,0,0,0,3.185h13.943a8.178,8.178,0,0,0,8.168-8.168V49.9A8.178,8.178,0,0,0,100.555,41.732Z" transform="translate(0 -41.732)"/>
          <path id="Trazado_835736" data-name="Trazado 835736" d="M49.7,81.019a2.95,2.95,0,1,0,2.95-2.95,2.95,2.95,0,0,0-2.95,2.95Z" transform="translate(-39.145 -70.353)"/>
          <path id="Trazado_835737" data-name="Trazado 835737" d="M92.434,81.019a2.95,2.95,0,1,0,2.95-2.95A2.95,2.95,0,0,0,92.434,81.019Z" transform="translate(-72.806 -70.353)"/>
          <path id="Trazado_835738" data-name="Trazado 835738" d="M135.17,81.019a2.95,2.95,0,1,0,2.95-2.95A2.95,2.95,0,0,0,135.17,81.019Z" transform="translate(-106.467 -70.353)"/>
          <path id="Trazado_835739" data-name="Trazado 835739" d="M66.509,238.556h.009a1.592,1.592,0,0,0,1.5-1.058l3.945-11.07,3.77,11.05a1.593,1.593,0,0,0,1.5,1.078h.007a1.593,1.593,0,0,0,1.5-1.066l5.348-15.256a1.593,1.593,0,0,0-3.006-1.053L77.26,232.09,73.5,221.077a1.6,1.6,0,0,0-3.008-.02l-3.951,11.086-3.758-10.935a1.593,1.593,0,1,0-3.012,1.035l5.237,15.239A1.593,1.593,0,0,0,66.509,238.556Z" transform="translate(-47.014 -182.16)"/>
          <path id="Trazado_835740" data-name="Trazado 835740" d="M205.276,238.555h.009a1.592,1.592,0,0,0,1.5-1.058l3.945-11.07,3.77,11.05a1.593,1.593,0,0,0,1.5,1.078h.007a1.593,1.593,0,0,0,1.5-1.066l5.348-15.256a1.593,1.593,0,0,0-3.006-1.053l-3.824,10.91-3.757-11.013a1.6,1.6,0,0,0-3.007-.02l-3.951,11.086-3.758-10.935a1.593,1.593,0,0,0-3.012,1.035l5.237,15.239A1.593,1.593,0,0,0,205.276,238.555Z" transform="translate(-156.314 -182.16)"/>
          <path id="Trazado_835741" data-name="Trazado 835741" d="M341.792,238.556h.009a1.592,1.592,0,0,0,1.5-1.058l3.945-11.07,3.77,11.05a1.593,1.593,0,0,0,1.5,1.078h.007a1.593,1.593,0,0,0,1.5-1.066l5.348-15.256a1.593,1.593,0,0,0-3.006-1.053l-3.824,10.91-3.757-11.013a1.6,1.6,0,0,0-3.008-.02l-3.951,11.086-3.758-10.935a1.593,1.593,0,1,0-3.012,1.035l5.237,15.239a1.593,1.593,0,0,0,1.5,1.075Z" transform="translate(-263.84 -182.16)"/>
        </g>
      </g>
    </g>
  </g>
</svg>
