<svg xmlns="http://www.w3.org/2000/svg" width="190" height="95.895" viewBox="0 0 190 95.895">
  <g id="Grupo_1093187" data-name="Grupo 1093187" transform="translate(-180 -1841.082)">
    <g id="Grupo_1073387" data-name="Grupo 1073387" transform="translate(0 939.977)">
      <g id="Grupo_1073375" data-name="Grupo 1073375" transform="translate(-210 -2222)">
        <rect id="Rect치ngulo_381829" data-name="Rect치ngulo 381829" width="190" height="60" rx="7" transform="translate(390 3141)" fill="#1e5af9"/>
      </g>
      <g id="Grupo_1067370" data-name="Grupo 1067370" transform="translate(31 483)">
        <g id="Grupo_1063897" data-name="Grupo 1063897" transform="translate(0 -17)">
          <rect id="Rect치ngulo_373435" data-name="Rect치ngulo 373435" width="85" height="85" rx="5" transform="translate(180 446)" fill="#e9e2fe"/>
        </g>
      </g>
    </g>
    <g id="filled_outline" data-name="filled outline" transform="translate(113.849 1825.082)">
      <circle id="Elipse_11059" data-name="Elipse 11059" cx="21.357" cy="21.357" r="21.357" transform="translate(144 50.932)" fill="#3d5966"/>
      <path id="Trazado_835685" data-name="Trazado 835685" d="M176,209.775h9.188v36.414H176Z" transform="translate(-25.874 -156.682)" fill="#349438"/>
      <ellipse id="Elipse_11060" data-name="Elipse 11060" cx="4.381" cy="4.929" rx="4.381" ry="4.929" transform="translate(150.571 47.647)" fill="#4caf50"/>
      <path id="Trazado_835686" data-name="Trazado 835686" d="M0,0H9.188V36.754H0Z" transform="translate(180.754 89.507) rotate(180)" fill="#bf2913"/>
      <circle id="Elipse_11061" data-name="Elipse 11061" cx="4.929" cy="4.929" r="4.929" transform="translate(171.381 47.647)" fill="#e64f39"/>
      <path id="Trazado_835687" data-name="Trazado 835687" d="M200,144h21.44v59.724H200Z" transform="translate(-45.28 -103.498)" fill="#7496a6"/>
      <circle id="Elipse_11062" data-name="Elipse 11062" cx="10.405" cy="10.405" r="10.405" transform="translate(154.952 30.123)" fill="#dedde2"/>
      <path id="Trazado_835688" data-name="Trazado 835688" d="M240,40V59.908a3.063,3.063,0,1,0,6.126,0V40Z" transform="translate(-77.623 -19.406)" fill="#f5be41"/>
      <circle id="Elipse_11063" data-name="Elipse 11063" cx="2.738" cy="2.738" r="2.738" transform="translate(162.619 18.076)" fill="#f5d07d"/>
      <path id="Trazado_835689" data-name="Trazado 835689" d="M232,336h9.188v30.628H232Z" transform="translate(-71.155 -258.744)" fill="#e6ad2c"/>
      <path id="Trazado_835690" data-name="Trazado 835690" d="M312,256h9.188v45.942H312Z" transform="translate(-135.841 -194.058)" fill="#258adb"/>
      <path id="Trazado_835691" data-name="Trazado 835691" d="M0,0H9.188V45.942H0Z" transform="translate(154.72 107.884) rotate(180)" fill="#258adb"/>
      <ellipse id="Elipse_11064" data-name="Elipse 11064" cx="4.929" cy="4.381" rx="4.929" ry="4.381" transform="translate(175.762 57.504)" fill="#42a5f5"/>
      <ellipse id="Elipse_11065" data-name="Elipse 11065" cx="4.929" cy="4.381" rx="4.929" ry="4.381" transform="translate(160.428 72.837)" fill="#f5be41"/>
      <ellipse id="Elipse_11066" data-name="Elipse 11066" cx="4.929" cy="4.381" rx="4.929" ry="4.381" transform="translate(145.095 57.504)" fill="#42a5f5"/>
      <path id="Trazado_835692" data-name="Trazado 835692" d="M280,304h9.188v36.414H280Z" transform="translate(-109.966 -232.87)" fill="#349438"/>
      <ellipse id="Elipse_11067" data-name="Elipse 11067" cx="4.381" cy="4.929" rx="4.381" ry="4.929" transform="translate(170.285 66.266)" fill="#4caf50"/>
      <path id="Trazado_835693" data-name="Trazado 835693" d="M0,0H9.188V36.754H0Z" transform="translate(160.845 107.884) rotate(180)" fill="#bf2913"/>
      <ellipse id="Elipse_11068" data-name="Elipse 11068" cx="4.381" cy="4.929" rx="4.381" ry="4.929" transform="translate(151.667 66.266)" fill="#e64f39"/>
      <path id="Trazado_835694" data-name="Trazado 835694" d="M165.44,333.44A21.44,21.44,0,0,1,144,312v35.222h42.879V312A21.44,21.44,0,0,1,165.44,333.44Z" transform="translate(0 -239.338)" fill="#3d5966"/>
      <path id="Trazado_835695" data-name="Trazado 835695" d="M144,61.942v45.942h3.063V85.225a21.428,21.428,0,0,0,36.754,0v22.659h3.063V61.942a6.134,6.134,0,0,0-5.441-6.086,6.121,6.121,0,0,0-3.748-9.034V40.5a12.334,12.334,0,0,0-7.657-11.357V20.594a4.594,4.594,0,1,0-9.188,0v8.551A12.334,12.334,0,0,0,153.188,40.5v6.319a6.121,6.121,0,0,0-3.748,9.034A6.134,6.134,0,0,0,144,61.942Zm3.063,5.3a6.086,6.086,0,0,0,3.063.823,6.15,6.15,0,0,0,.86-.061,6.087,6.087,0,0,0-.86,3.124V84.339a18.27,18.27,0,0,1-3.063-10.146ZM171.5,76.4a6.106,6.106,0,0,0,6.187.036V87.879a18.394,18.394,0,0,1-6.126,3.641V77.256A6.15,6.15,0,0,0,171.5,76.4Zm6.187-5.266a3.063,3.063,0,1,1-3.063-3.063A3.063,3.063,0,0,1,177.691,71.13ZM165.44,74.193a3.063,3.063,0,1,1-3.063,3.063,3.063,3.063,0,0,1,3.063-3.063Zm-12.251,2.24a6.1,6.1,0,0,0,6.126,0V91.52a18.394,18.394,0,0,1-6.126-3.641Zm3.063-2.24a3.063,3.063,0,1,1,3.063-3.063A3.063,3.063,0,0,1,156.251,74.193Zm6.126,18.12V82.558a6.1,6.1,0,0,0,6.126,0v9.756a18.4,18.4,0,0,1-6.126,0Zm18.377-7.975V71.47h-.01c.006-.112.01-.225.01-.34a6.087,6.087,0,0,0-.859-3.124,6.149,6.149,0,0,0,.859.061,6.086,6.086,0,0,0,3.063-.824v6.95A18.27,18.27,0,0,1,180.754,84.339Zm3.063-22.4a3.063,3.063,0,1,1-3.063-3.063A3.063,3.063,0,0,1,183.816,61.942Zm-4.594-9.188a3.063,3.063,0,0,1-1.531,2.648v-5.3A3.063,3.063,0,0,1,179.222,52.754ZM163.908,24.925a4.583,4.583,0,0,0,3.063,0V40.5a1.531,1.531,0,1,1-3.063,0Zm1.531-5.862a1.531,1.531,0,1,1-1.531,1.531A1.531,1.531,0,0,1,165.44,19.063Zm-4.594,13.485V40.5a4.594,4.594,0,1,0,9.188,0V32.547a9.188,9.188,0,1,1-9.188,0Zm4.594,20.206a12.223,12.223,0,0,0,9.189-4.162V65a6.12,6.12,0,0,0-6.064,6.985,6.108,6.108,0,0,0-6.248,0A6.12,6.12,0,0,0,156.251,65V48.593A12.222,12.222,0,0,0,165.44,52.754Zm-12.251-2.648v5.3a3.056,3.056,0,0,1,0-5.3Zm-3.063,8.774a3.063,3.063,0,1,1-3.063,3.063A3.063,3.063,0,0,1,150.126,58.879Z" transform="translate(0)"/>
    </g>
  </g>
</svg>
